<svg fill="#8f9bb360" xmlns="http://www.w3.org/2000/svg" viewBox="0 0 188 125"><path d="m77 68 6 1 4 1q2 0 2 3-1 3-3 3h-3l-13-2q-6-2-3-7l10-16q2-2 4-1 2 2 1 5l-3 3h19v-6q-1-2 2-4 3 0 3 3l2 9 4 2 13 11q1 2 3 2a54 54 0 0 1 36 8l9 6 1-1-3-4q-2-3 0-5t4 1l3 4 6 11q3 6-3 7l-12 5-3 1q-4 1-4-2t2-4l9-4 1-1c-14-9-27-18-45-16l1 6q1 14-11 20-6 2-11-2-5-6-3-12 2-9 10-13l4-3c-8-13-32-17-39-9m43 15a20 20 0 0 0-12 9v8q3 3 8 0 8-6 4-17M10 38q-3 0-2-4l6-10h4v4l-6 9zM7 54l-1 4-3 2-2-3 2-10q0-2 3-2 2 1 1 3zm32-43-2 1-6 4q-2 2-4 0l1-4 7-5q4-1 4 4M25 98q-1 3-3 2-5-2-7-7l1-3h3l6 7zm20 15-3-1q-2-2-1-3l3-2 7 1q2 0 2 3 0 2-2 2zM75 9l2 2q0 3-2 3l-7-1-3-3 4-2zm10 8q5 3 7 7l-1 3h-3l-6-6v-3zM10 79l-2 2-3-1-2-8 1-2h3zM50 7q-2 0-2-3 0-2 3-2h6l2 3-2 2zm44 22 2 1 3 6q2 3-1 4l-3-1-4-7q-1-3 3-4m-5 66q-2-2-1-3l4-6h3l1 2c0 2-4 7-5 7zm13-19-2 4q0 2-3 1-2-1-2-3l2-6 3-2 2 3zm-16 25q-2 4-6 6l-3-1v-3l4-5h3zm-25 14q-2-1-2-3l1-2 6-1 2 1q1 2-1 3z"/></svg>