<svg xmlns="http://www.w3.org/2000/svg" fill="#8f9bb360" viewBox="0 0 188 158"><path d="m41 137 3-3q2-2 4 0t1 3l-3 5 6-2 3-1q3 0 4 3 0 2-3 3l-12 5q-6 2-8-4l-4-15-1-2q0-3 3-4 2-1 3 2l3 7zm2-63-1-2 4-10q1-3 4-2 2 1 1 4l-3 10q-2 4-5 0m72-6 2 4v4q-2 2-4-1l-5-7v-4q2-1 4 1zm5 15q-2-3 0-5t4 0l5 5q2 1 1 4h-4zm-69 30q-2 2-4-1l-3-8 1-3h3q4 5 4 11zm52-54h-3l-6-4-2-3 4-2 7 4q3 3 0 5M40 83q2-2 4 1l1 9-2 2h-3c-1-2-2-9-1-11zm9 37q4-1 4 2l-2 9q-1 3-4 0c-3-3 1-10 2-11m102-33q2 3-1 4c-2 1-9 1-10-1s-2-4 1-4zM75 50q-2-2 1-4 5-2 10 0l1 3-2 2h-8zm103 24h-4v-4q1-3 4-5l3-1q3 1 1 3zm-19 13q-2-3 0-4l8-3 2 1v3c-1 2-7 4-9 4zM59 50l4-2q2 0 3 2l-1 3-5 3q-2 1-4-1-1-3 1-4z"/></svg>