<svg xmlns="http://www.w3.org/2000/svg" fill="#8f9bb360" viewBox="0 0 233 283"><path d="m79 180-5-5-3-2 1-3 3-1 4 3 3 2 3-4q7-12 19-18a32 32 0 0 1 32 1 45 45 0 0 1 17 18 65 65 0 0 1 4 55 46 46 0 0 1-14 20 35 35 0 0 1-35 7 50 50 0 0 1-35-36v-4q0-2 2-2 2-1 3 1l1 3a47 47 0 0 0 37 33 31 31 0 0 0 27-12q9-11 11-25 3-15-3-30-5-14-17-22a26 26 0 0 0-29 0 47 47 0 0 0-20 24 38 38 0 0 0-3 19v2l-2 3-3-2-1-4q-1-9 2-17zm30-155-11 4q-3 1-5-1-1-3 2-4l5-2 4-2v-1l-5-1q-4-1-3-4t4-2l5 1 9 2q4 0 3 4l-6 16q-1 2-3 1-2 0-2-2l1-4zM63 151l-2 2-3-1-3-11q0-2 2-2l3 1zm28-37 2-2 6-4h3q2 2 0 4-3 4-8 5-2 2-3-3m-38-4 3-6q2-3 4-2 3 2 1 4l-2 6q-1 3-4 3-3-1-2-5m9-42 1-6q2-2 3-1 3 0 3 3l-2 7q-1 2-3 2-2-1-2-3zm23 17 5 1q2 1 1 3l-2 2h-8l-2-3 2-3zm14 7q6 2 7 8l-1 2h-3l-5-7q-1-4 2-4m-30 74q0 3-3 2a11 11 0 0 1-6-8l2-3 2 1 5 7zm8-119-3 6q-1 2-3 1t-1-3l2-6 3-1zm-6 43 2 2-1 3-5 4h-3l-1-3q2-5 8-6m14-58q3 0 2 4-2 3-6 5l-3-1v-2l6-6zm-33 93q0-4 2-4 3 0 3 3v4q1 3-2 3t-3-2zm31-12h4q2 1 2 3l-2 2h-6q-2-1-2-4 0-2 4-2m-10-8 1 1 3 4v3l-3 1-4-5q-1-4 2-4M61 83q0-4 2-4 3 0 3 2l1 4q0 2-2 3l-3-1z"/></svg>