<svg xmlns="http://www.w3.org/2000/svg" fill="#8f9bb360" viewBox="0 0 231 107"><path d="m214 18-10 2q-3 0-4-2 0-3 2-3l10-4-6-2-3-2q-3-1-2-4 2-3 4-1l14 4q7 1 4 8l-6 15-1 2q-1 3-4 2-2-1-2-4l3-8zm-41 62-1 2-8 8q-2 2-4 0t1-4l7-7q3-3 5 1m-69-26-1-5 2-3q2-1 3 2l2 9q0 2-3 3t-3-3zm-83 1-3 4-3 1q-2-1-2-4l5-8q2-2 4-1 3 2 1 5zm84-18q1 5-2 5-3 1-3-2l-3-6q-2-3 1-4 2-1 4 1zM10 66q2-3 4-2 3 1 1 4l-1 7q-1 3-4 2t-2-4zm173-25q3-1 3 2l-1 9-2 3-3-2q-1-6 2-11zm-73 27 3 1 4 6v4q-3 2-4-1l-5-6q-1-3 2-5m70 6q-4 1-3-3l3-9 2-1 2 2c1 2-1 9-3 11zm8-38q-4 0-3-4l9-11q3-1 4 3c0 2-8 11-10 12M78 20q0-3 3-3c2-1 8 3 9 5q1 5-3 4zM18 97q-1 3-4 1c-2-1-4-8-3-10q2-4 4-1zm114-9q0 4-3 4-5-1-9-5v-3l3-1 8 3zM48 20l3 2q1 2-1 4l-6 3-4-1q-2-2 1-4zM31 32l4 1v4l-6 5h-3q-2-2 0-4zm40-15q0 3-2 3h-8l-2-2 1-3c2-2 9-1 10 0zm76 79-4-1q-3 0-3-3l3-2h6q2-1 3 2 1 4-3 3z"/></svg>