<svg fill="none" xmlns="http://www.w3.org/2000/svg" viewBox="0 0 64 64"><path fill-rule="evenodd" clip-rule="evenodd" d="M48 3.3c-5 0-9.7 3-11.7 7.7-1.9 4.4-.8 8.2 1.2 11.3a39 39 0 0 0 7.2 7.7 5 5 0 0 0 6.6 0l1-1c2.1-1.9 4.5-4.1 6.2-6.7 2-3.1 3-6.9 1.2-11.3-2-4.7-6.7-7.7-11.7-7.7m0 8a4.7 4.7 0 0 0 0 9.4 4.7 4.7 0 0 0 0-9.4" fill="#EC4466"/><path d="M3.3 50.7a10 10 0 1 1 20 0 10 10 0 0 1-20 0" fill="#EC4466"/><path opacity=".4" fill-rule="evenodd" clip-rule="evenodd" d="M13.3 26.7c0-6.3 5.8-10.7 12-10.7h4a2.7 2.7 0 1 1 0 5.3h-4c-4 0-6.6 2.8-6.6 5.4 0 2.5 2.6 5.3 6.6 5.3h8c6.3 0 12 4.4 12 10.7s-5.7 10.6-12 10.6h-4a2.7 2.7 0 1 1 0-5.3h4c4.1 0 6.7-2.8 6.7-5.3 0-2.6-2.6-5.4-6.7-5.4h-8c-6.2 0-12-4.4-12-10.6" fill="#EC4466"/></svg>