<svg fill="none" xmlns="http://www.w3.org/2000/svg" viewBox="0 0 64 64"><path opacity=".4" d="M6.1 26.1H18m-7-6.4h7m34.5 13.6h6.4" stroke="#EC4466" stroke-width="4" stroke-linecap="round" stroke-linejoin="round"/><path d="M16.6 46h-.2c-3 0-5.5-2.5-5.5-5.5v-6.7M16.6 46a5.1 5.1 0 1 1 10.2 0m-10.2 0a5.1 5.1 0 1 0 10.2 0m0 0H41m0 0a5.1 5.1 0 1 1 10.2 0M41 46a5.1 5.1 0 1 0 10.2 0M46 40.9V18.8c0-3-2.4-5.5-5.5-5.5H11M51.2 46h2.1c3.1 0 5.6-2.5 5.6-5.5v-9.2c0-2.5-1.5-4.8-3.8-5.8l-9-4M31.3 33.8l-.2-.7a9 9 0 0 0-5-5l-.7-.3.6-.2a9 9 0 0 0 5-5l.3-.7.3.6a9 9 0 0 0 5 5.1l.7.2-.7.3a9 9 0 0 0-5 5z" stroke="#EC4466" stroke-width="4" stroke-linecap="round" stroke-linejoin="round"/></svg>