<svg fill="none" xmlns="http://www.w3.org/2000/svg" viewBox="0 0 64 64"><path opacity=".4" d="M21.4 35.7c2.21 1.05 5.59 1.26 10.57-1.25 3.61-1.8 6.37-2.17 8.46-1.84M21.17 7.85h20.77c7.25 0 11.77 5.12 11.77 12.37v23.56c0 7.25-4.52 12.38-11.78 12.38H21.17c-7.25 0-11.77-5.13-11.77-12.38V20.22c0-7.25 4.54-12.37 11.77-12.37" stroke="#9D6DFF" stroke-width="4" stroke-linecap="round" stroke-linejoin="round"/><path d="M37.02 18.34v7.7c0 1.08.32 2.12.94 3l5.76 8.31a5.1 5.1 0 0 1-4.19 8l-15.08-.03a5.1 5.1 0 0 1-4.17-8L26 29.05c.61-.89.93-1.93.93-3v-7.7m-1.51-.01h13.12" stroke="#9D6DFF" stroke-width="4" stroke-linecap="round" stroke-linejoin="round"/></svg>