<svg fill="none" xmlns="http://www.w3.org/2000/svg" viewBox="0 0 64 64"><path d="M10.4 25.8h43.2M41.7 8v7.9M22.3 8v7.9m31.3 10v-3c0-7.2-4.4-11.1-11.4-11.1H21.8c-7 0-11.4 4-11.4 11.1v21.8C10.4 52 14.8 56 21.8 56h6m6.1-9.7.3 9.2a4.6 4.6 0 0 0 4.6 4.3h16.4c2.4 0 4.4-1.9 4.6-4.3l.3-8.3m-4.3-9.6c2.4 0 4.3 2 4.3 4.3v4.9q-5.4 3.1-13.1 3.3c-7.7.2-9.6-1.3-13.1-3.3v-4.9c0-2.4 2-4.3 4.3-4.3z" stroke="#FF9A4D" stroke-width="4" stroke-linecap="round" stroke-linejoin="round"/><path opacity=".4" d="M52 35.4v-.5c0-1.8-1.5-3.2-3.2-3.2h-3.6A3 3 0 0 0 42 35v.5m5 18.3V50" stroke="#FF9A4D" stroke-width="4" stroke-linecap="round" stroke-linejoin="round"/></svg>