<svg fill="none" xmlns="http://www.w3.org/2000/svg" viewBox="0 0 64 64"><path opacity=".4" d="m20.1998 45.7001 7-7.5 10.2 6.8 6.8-6.8m-18.4-9.6v-6.6m-8 6.6v-10.5" stroke="#FF4E85" stroke-width="4" stroke-linecap="round" stroke-linejoin="round"/><path d="M27.2 8h-6.4C12.9 8 8 13.6 8 21.4v21.2C8 50.5 12.9 56 20.8 56h22.4c8 0 12.8-5.5 12.8-13.4v-5.2M45 8v9.9a1 1 0 0 0 .5927 1.0155c.1284.0564.2671.0852.4073.0845h10m0-.4a10.7002 10.7002 0 1 0-10.7 10.8 10.7 10.7 0 0 0 7.566-3.134A10.7 10.7 0 0 0 56 18.7" stroke="#FF4E85" stroke-width="4" stroke-linecap="round" stroke-linejoin="round"/></svg>