<svg fill="none" xmlns="http://www.w3.org/2000/svg" viewBox="0 0 64 64"><path opacity=".4" d="m20.2 45.7 7-7.5L37.4 45l6.8-6.8m-18.4-9.6V22m-8 6.6V18.1" stroke="#9D6DFF" stroke-width="4" stroke-linecap="round" stroke-linejoin="round"/><path d="M27.2 8h-6.4C12.9 8 8 13.5 8 21.4v21.2C8 50.5 12.9 56 20.8 56h22.4c8 0 12.8-5.5 12.8-13.4v-5.2M45 8v9.9q.1 1 1.1 1.2H56m0-.4a10.7 10.7 0 1 0-21.4 0 10.7 10.7 0 0 0 21.4 0" stroke="#9D6DFF" stroke-width="4" stroke-linecap="round" stroke-linejoin="round"/></svg>