<svg fill="none" xmlns="http://www.w3.org/2000/svg" viewBox="0 0 64 64"><path d="m36.14 35.99 11.71-10.13a4.1 4.1 0 0 0 1.78-3.98 17.25 17.25 0 0 0-34.1 0 4.1 4.1 0 0 0 1.78 3.98l11.7 10.16m-2.83 0 12.74-.03c3.7 0 6.01 2.6 6.02 6.3l.02 7.85c.01 3.7-2.29 6.32-6 6.33l-12.72.02c-3.7.01-6.02-2.6-6.03-6.3l-.02-7.84c-.01-3.7 2.3-6.32 6-6.33" stroke="#EC4466" stroke-width="4" stroke-linecap="round" stroke-linejoin="round"/><path opacity=".4" d="M32.58 34.73V24.51m16.36 0H16.21m13.53 18.9h5.67" stroke="#EC4466" stroke-width="4" stroke-linecap="round" stroke-linejoin="round"/></svg>