<svg fill="none" xmlns="http://www.w3.org/2000/svg" viewBox="0 0 64 64"><path opacity=".4" d="M15.6 46.6h4.8m7.2-20.4v9.6l-4.4-1.5-4.5 1.5v-9.6" stroke="#FF4E85" stroke-width="4" stroke-linecap="round" stroke-linejoin="round"/><path d="M30.9 54.5h16.4c5.4 0 8.7-3.9 8.7-9.2V18.6c0-5.3-3.4-9.1-8.8-9H32c-5.4 0-8.7 3.8-8.7 9.1V26m7.6 28.5c4.6 0 7.5-3.3 7.5-7.9V34.1c-.1-4.6-2.9-7.9-7.6-7.9H15.4m15.5 28.3H15.6c-4.7 0-7.6-3.3-7.6-7.9V34.1c0-4.6 2.9-7.9 7.5-7.9M44.8 9.5v11l-5.2-1.7-5.2 1.7v-11" stroke="#FF4E85" stroke-width="4" stroke-linecap="round" stroke-linejoin="round"/></svg>