<svg fill="none" xmlns="http://www.w3.org/2000/svg" viewBox="0 0 64 64"><path d="M37.197 35.688h7.87m-7.87 6.965h6.045m10.465-16.829H9.4M21.173 9.848h20.763c7.257 0 11.771 5.123 11.771 12.372v19.563c0 7.25-4.514 12.372-11.774 12.372h-20.76c-7.257 0-11.774-5.123-11.774-12.372V22.22c0-7.25 4.539-12.372 11.774-12.372" stroke="#9D6DFF" stroke-width="4" stroke-linecap="round" stroke-linejoin="round"/><path opacity=".4" d="M28.944 43.761a6.387 6.387 0 0 1-9.034 0 6.386 6.386 0 0 1 0-9.034 6.387 6.387 0 0 1 9.034 0 6.387 6.387 0 0 1 0 9.034m0 0-4.518-4.517v-6.387m-6.794-14.271h-.137m6.255 0h-.136m6.257 0h-.136" stroke="#9D6DFF" stroke-width="4" stroke-linecap="round" stroke-linejoin="round"/></svg>