<svg width="36" height="36" viewBox="0 0 36 36" fill="none" xmlns="http://www.w3.org/2000/svg">
<path fill-rule="evenodd" clip-rule="evenodd" d="M1.875 25.5002C1.875 24.804 2.15156 24.1363 2.64384 23.6441C3.13613 23.1518 3.80381 22.8752 4.5 22.8752H7.5C7.79837 22.8752 8.08452 22.9937 8.2955 23.2047C8.50647 23.4157 8.625 23.7019 8.625 24.0002C8.625 24.2986 8.50647 24.5847 8.2955 24.7957C8.08452 25.0067 7.79837 25.1252 7.5 25.1252H4.5C4.40054 25.1252 4.30516 25.1647 4.23484 25.2351C4.16451 25.3054 4.125 25.4008 4.125 25.5002V26.2502C4.125 26.4572 4.293 26.6252 4.5 26.6252H6C6.69619 26.6252 7.36387 26.9018 7.85616 27.3941C8.34844 27.8863 8.625 28.554 8.625 29.2502V30.0002C8.625 30.6964 8.34844 31.3641 7.85616 31.8564C7.36387 32.3487 6.69619 32.6252 6 32.6252H3C2.70163 32.6252 2.41548 32.5067 2.2045 32.2957C1.99353 32.0847 1.875 31.7986 1.875 31.5002C1.875 31.2019 1.99353 30.9157 2.2045 30.7047C2.41548 30.4937 2.70163 30.3752 3 30.3752H6C6.09946 30.3752 6.19484 30.3357 6.26516 30.2654C6.33549 30.1951 6.375 30.0997 6.375 30.0002V29.2502C6.375 29.1508 6.33549 29.0554 6.26516 28.9851C6.19484 28.9147 6.09946 28.8752 6 28.8752H4.5C3.80381 28.8752 3.13613 28.5987 2.64384 28.1064C2.15156 27.6141 1.875 26.9464 1.875 26.2502V25.5002ZM10.125 25.5002C10.125 24.804 10.4016 24.1363 10.8938 23.6441C11.3861 23.1518 12.0538 22.8752 12.75 22.8752H14.25C14.9462 22.8752 15.6139 23.1518 16.1062 23.6441C16.5984 24.1363 16.875 24.804 16.875 25.5002V30.0002C16.875 30.6964 16.5984 31.3641 16.1062 31.8564C15.6139 32.3487 14.9462 32.6252 14.25 32.6252H12.75C12.0538 32.6252 11.3861 32.3487 10.8938 31.8564C10.4016 31.3641 10.125 30.6964 10.125 30.0002V25.5002ZM12.75 25.1252C12.6505 25.1252 12.5552 25.1647 12.4848 25.2351C12.4145 25.3054 12.375 25.4008 12.375 25.5002V30.0002C12.375 30.2072 12.543 30.3752 12.75 30.3752H14.25C14.3495 30.3752 14.4448 30.3357 14.5152 30.2654C14.5855 30.1951 14.625 30.0997 14.625 30.0002V25.5002C14.625 25.4008 14.5855 25.3054 14.5152 25.2351C14.4448 25.1647 14.3495 25.1252 14.25 25.1252H12.75ZM18.375 25.5002C18.375 24.804 18.6516 24.1363 19.1438 23.6441C19.6361 23.1518 20.3038 22.8752 21 22.8752H22.5C23.1962 22.8752 23.8639 23.1518 24.3562 23.6441C24.8484 24.1363 25.125 24.804 25.125 25.5002V30.0002C25.125 30.6964 24.8484 31.3641 24.3562 31.8564C23.8639 32.3487 23.1962 32.6252 22.5 32.6252H21C20.3038 32.6252 19.6361 32.3487 19.1438 31.8564C18.6516 31.3641 18.375 30.6964 18.375 30.0002V25.5002ZM21 25.1252C20.9005 25.1252 20.8052 25.1647 20.7348 25.2351C20.6645 25.3054 20.625 25.4008 20.625 25.5002V30.0002C20.625 30.2072 20.793 30.3752 21 30.3752H22.5C22.5995 30.3752 22.6948 30.3357 22.7652 30.2654C22.8355 30.1951 22.875 30.0997 22.875 30.0002V25.5002C22.875 25.4008 22.8355 25.3054 22.7652 25.2351C22.6948 25.1647 22.5995 25.1252 22.5 25.1252H21ZM27.412 22.9272C27.88 22.7792 28.39 22.9532 28.672 23.3552L31.875 27.9312V24.0012C31.875 23.7029 31.9935 23.4167 32.2045 23.2057C32.4155 22.9947 32.7016 22.8762 33 22.8762C33.2984 22.8762 33.5845 22.9947 33.7955 23.2057C34.0065 23.4167 34.125 23.7029 34.125 24.0012V31.5012C34.1249 31.7405 34.0485 31.9735 33.9069 32.1664C33.7653 32.3592 33.5659 32.5019 33.3376 32.5737C33.1094 32.6455 32.8642 32.6427 32.6377 32.5657C32.4111 32.4886 32.2151 32.3413 32.078 32.1452L28.875 27.5692V31.5002C28.875 31.7986 28.7565 32.0847 28.5455 32.2957C28.3345 32.5067 28.0484 32.6252 27.75 32.6252C27.4516 32.6252 27.1655 32.5067 26.9545 32.2957C26.7435 32.0847 26.625 31.7986 26.625 31.5002V24.0002C26.625 23.5102 26.943 23.0752 27.412 22.9272Z" fill="#8F9BB3"/>
<path opacity="0.4" d="M9.375 12C9.375 14.2875 10.2837 16.4813 11.9012 18.0988C13.5187 19.7163 15.7125 20.625 18 20.625C20.2875 20.625 22.4813 19.7163 24.0988 18.0988C25.7163 16.4813 26.625 14.2875 26.625 12C26.625 9.71251 25.7163 7.51871 24.0988 5.9012C22.4813 4.2837 20.2875 3.375 18 3.375C15.7125 3.375 13.5187 4.2837 11.9012 5.9012C10.2837 7.51871 9.375 9.71251 9.375 12Z" fill="#8F9BB3"/>
<path fill-rule="evenodd" clip-rule="evenodd" d="M18 7.125C18.621 7.125 19.125 7.629 19.125 8.25V11.19L20.605 11.683C20.8798 11.7836 21.1046 11.9872 21.2317 12.2508C21.3588 12.5143 21.3782 12.817 21.2858 13.0946C21.1935 13.3723 20.9966 13.603 20.7369 13.7379C20.4772 13.8727 20.1752 13.9011 19.895 13.817L17.645 13.067C17.4209 12.9925 17.2259 12.8493 17.0877 12.6578C16.9495 12.4663 16.8751 12.2362 16.875 12V8.25C16.875 7.629 17.379 7.125 18 7.125Z" fill="#8F9BB3"/>
</svg>
