<svg xmlns="http://www.w3.org/2000/svg" fill="none" viewBox="0 0 30 30"><path fill-rule="evenodd" d="m14.02 13.56.03.06.05.07h3.04a1.18 1.18 0 0 1 0 2.37H15a4.6 4.6 0 0 1-.74 3l-.32.42h4.34a1.18 1.18 0 0 1 0 2.37h-6.94a1.2 1.2 0 0 1-1.09-.71 1.2 1.2 0 0 1 .23-1.29l1.85-2.16a2 2 0 0 0 .27-1.63h-2.4a1.18 1.18 0 1 1 0-2.37h1.24a4.6 4.6 0 0 1 1.39-5.12 4.66 4.66 0 0 1 6.56.58c.42.5.35 1.25-.15 1.67a1.2 1.2 0 0 1-1.67-.15 2.3 2.3 0 0 0-3.22-.3 2.3 2.3 0 0 0-.33 3.18M15 0C6.73 0 0 6.73 0 15s6.73 15 15 15 15-6.73 15-15S23.27 0 15 0" fill="#8f9bb3"/></svg>