<svg xmlns="http://www.w3.org/2000/svg" fill="none" viewBox="0 0 31 30"><path fill="#8f9bb3" fill-rule="evenodd" d="M16.2 30h-2c-2.2 0-4-1.6-4-3.6l-.2-1q-.5-.7-1.4-1-.7 0-1.6.3a4 4 0 0 1-5.3-1.4l-1-1.6q-.8-1.3-.4-2.8t1.8-2.1A2 2 0 0 0 3.2 15a2 2 0 0 0-1-1.8A3.5 3.5 0 0 1 .6 8.3l1-1.6A4 4 0 0 1 7 5.3q.4.3 1 .3c1.2 0 2.2-.9 2.2-2 0-2 1.7-3.6 3.9-3.6h2c2.2 0 4 1.7 3.8 3.7l.3 1q.5.7 1.4.9.8.1 1.6-.2a4 4 0 0 1 5.3 1.3l1 1.6v.1c1 1.7.4 3.8-1.4 4.8l-.8.8a2 2 0 0 0-.2 1.5q.2.9 1 1.3 1.5.7 1.8 2.2.5 1.4-.4 2.7l-1 1.6a4 4 0 0 1-5.3 1.3l-1-.2q-1 0-1.6.6a2 2 0 0 0-.7 1.4c0 2-1.7 3.6-3.8 3.6m-1-18.9c2.3 0 4.2 1.7 4.2 3.9s-2 3.9-4.2 3.9S11 17.2 11 15s1.9-3.9 4.2-3.9"/></svg>