<svg xmlns="http://www.w3.org/2000/svg" fill="none" viewBox="0 0 30 30"><path fill-rule="evenodd" d="M16.328 12.142a1.185 1.185 0 0 1 0 2.369h-4.415a4.4 4.4 0 0 0 0 .994h4.415a1.185 1.185 0 0 1 0 2.369H12.94a4.76 4.76 0 0 0 3.815 1.673c.6-.055 1.206.479 1.235 1.133a1.183 1.183 0 0 1-1.133 1.233 7.11 7.11 0 0 1-6.508-3.611c-.079-.14-.139-.285-.207-.428H9.64c-.654 0-1.184-.53-1.184-1.184a1.17 1.17 0 0 1 1.06-1.16 7 7 0 0 1 0-1.045 1.173 1.173 0 0 1-1.06-1.159c0-.653.53-1.184 1.184-1.184h.494l.212-.439c1.337-2.329 3.84-3.636 6.502-3.619a1.186 1.186 0 0 1 1.143 1.225 1.194 1.194 0 0 1-1.227 1.144c-1.48-.09-2.886.573-3.833 1.69zM15 0A15.02 15.02 0 0 0 0 15c0 8.27 6.73 15 15 15s15-6.73 15-15A15.02 15.02 0 0 0 15 0" fill="#8f9bb3"/></svg>