<svg xmlns="http://www.w3.org/2000/svg" fill="none" viewBox="0 0 30 30"><path fill-rule="evenodd" d="M19.17 12.14a1.18 1.18 0 0 1 0 2.37h-1.9a4.6 4.6 0 0 1-3.26 3.4l3.05 3.06a1.18 1.18 0 1 1-1.68 1.67l-4.9-4.9a1.18 1.18 0 0 1 .83-2.03h1.47c.86 0 1.6-.49 1.98-1.2h-3.45a1.18 1.18 0 0 1 0-2.37h3.29a2.2 2.2 0 0 0-1.65-.91H11.3a1.2 1.2 0 0 1-1.18-1.2c0-.66.52-1.19 1.18-1.19h1.47l.17.02h6.22a1.18 1.18 0 0 1 0 2.37H16.8q.24.43.39.91zM15 0C6.73 0 0 6.73 0 15s6.73 15 15 15 15-6.73 15-15S23.27 0 15 0" fill="#8f9bb3"/></svg>