<svg xmlns="http://www.w3.org/2000/svg" fill="#8f9bb3" viewBox="0 0 30 30" fill-rule="evenodd"><path d="M13.46 11.5a1.26 1.26 0 0 0 .02 2.54h.33l-.02-2.53zm3.16 4.87h-.42l.02 2.34h.42a1.17 1.17 0 0 0 1.16-1.18 1.17 1.17 0 0 0-1.18-1.16m.04 4.71h-.42v.3a1.18 1.18 0 0 1-2.37.03v-.3h-.75a3.2 3.2 0 0 1-3.24-3.2 1.18 1.18 0 1 1 2.37-.01c0 .47.39.85.85.84h.75l-.02-2.34h-.33a3.63 3.63 0 0 1-.06-7.26h.32v-.52a1.18 1.18 0 1 1 2.37-.02v.52h.75a3.2 3.2 0 0 1 3.24 3.17c0 .65-.52 1.25-1.17 1.26s-1.19-.46-1.2-1.12v-.12a.85.85 0 0 0-.85-.83h-.75l.03 2.53h.42a3.54 3.54 0 0 1 3.57 3.5 3.54 3.54 0 0 1-3.5 3.57M14.86 0A15 15 0 0 0 0 15.13 15 15 0 0 0 15.13 30 15 15 0 0 0 30 14.87 15 15 0 0 0 14.87 0"/></svg>