<svg xmlns="http://www.w3.org/2000/svg" fill="none" viewBox="0 0 30 30"><path fill-rule="evenodd" d="M15 30a15 15 0 1 0 0-30 15 15 0 0 0 0 30M8.2 19.7q.64.25 1.53.25H20.1q.63 0 1.22-.2.64-.2 1.12-.61.5-.43.8-1.08.3-.63.3-1.52V13.6c0-2.25-2.73-2.25-2.73 0v2.22q0 .63-.24.93-.23.27-.94.27h-9.31q-.4 0-.65-.06a1 1 0 0 1-.36-.2 1 1 0 0 1-.17-.34q-.02-.21-.02-.47v-2.46c0-2.14-2.7-2.14-2.7 0v3.17q0 .66.17 1.26a3 3 0 0 0 .58 1.05q.4.46 1.03.73m3.94-5.86c0 1.42 2.24 1.42 2.24 0v-3.2c0-1.8-2.24-1.8-2.24 0zm5.8 0c0 1.42-2.23 1.42-2.23 0v-3.2c0-1.8 2.24-1.8 2.24 0z" fill="#8f9bb3"/></svg>