<svg xmlns="http://www.w3.org/2000/svg" fill="none" viewBox="0 0 213 212"><path fill="#2977FF" d="M28.7 190.28c34.7 29.6 125.84 29.18 160.31-2.72 31.3-35.04 30.2-126.12-.09-160.35q-2.75-2.79-5.58-5.49C148.62-7.9 57.54-7.44 23.04 24.45c-31.3 35.02-30.16 126.11.08 160.35q2.75 2.8 5.58 5.48"/><path fill="#fff" stroke="#fff" d="M96.43 27.5h-.02c-.44 0-1.43.1-2.11.42a4.5 4.5 0 0 0-1.69 1.37c-5.15 6.4-11.98 11.86-19.48 16.92-5.37 3.62-11.07 7.02-16.73 10.4q-3.4 2.03-6.75 4.06l-.04.03-.03.02a3.4 3.4 0 0 0-.96 1.77 2.8 2.8 0 0 0 .13 1.82q.16.4.57.54.38.1.7.01c.4-.1.83-.32 1.15-.53l3.58-2h.01l1.48-.87C72 52.18 87.64 42.98 97.5 29.61c.36-.43.63-.99.36-1.53a1 1 0 0 0-.29-.34 1 1 0 0 0-.37-.17q-.31-.05-.7-.07zm34.12 154.38h.02l.02-.01q1.37-.55 2.38-1.63a78.5 78.5 0 0 1 25.22-18.28 5.6 5.6 0 0 0 3.1-3c.18-.43.28-.89.21-1.33a.7.7 0 0 0-.46-.59q-.31-.1-.6-.07-.62.06-1.44.36c-1.1.38-2.54 1.04-4 1.76a112 112 0 0 0-6.65 3.58l-.05.04-.05.04-.05.05a82 82 0 0 0-20.37 17.27q-.34.4-.54.71t-.24.67q0 .4.3.67.31.2.59.21c.36.04.82-.02 1.25-.1.45-.1.93-.22 1.36-.35Zm31.44-35.81.02-.01a4 4 0 0 0 1.93-1.66q.63-1.1.57-2.62v-.05l-.3-2-.03-.14-.08-.1c-.2-.26-.49-.37-.74-.4a3 3 0 0 0-.76 0c-.41.06-.85.19-1.17.28l-.16.05h-.02l-.02.01c-11.02 4.31-23.46 10.03-33.7 17.06q-15.18 10.35-23.75 23.94l-.02.04-.02.04q-.05.15-.18.37l-.07.13-.19.35q-.13.24-.23.52c-.05.17-.1.4-.05.64.13.5.6.69.92.78.37.1.82.14 1.25.15q.69.01 1.32-.02h.32l.68-.03h.05a4.2 4.2 0 0 0 3.37-2.23 84.5 84.5 0 0 1 30.3-25.62l.28-.14v-.1a194 194 0 0 1 20.48-9.24Zm-33.48-4.11 6.6-2.97c8.58-3.85 17.35-7.78 25.22-11.84.52-.26 1.07-.6 1.46-1.05.4-.46.64-1.06.51-1.79a20 20 0 0 0-1.74-5.12c-.34-.74-.82-1.29-1.5-1.51-.66-.23-1.4-.1-2.17.27h-.02c-6.76 3.59-13.9 6.8-21.1 10.02l-2.91 1.31c-8.17 3.68-16.34 7.45-23.99 11.89-15.32 8.88-28.62 20.46-35.83 39.35l-.05.14-.3.82c-.09.3-.16.64-.11.97q.07.57.64.87.52.22 1.3.18h5.69q1.13.01 1.94-.61.76-.62 1.03-1.73c8.23-19.3 26.97-31.12 45.33-39.2Zm-11.62-17.7h.01l5.25-2.17c9.65-3.97 19.48-8.02 28.3-12.85l.02-.01.02-.02c.72-.5 1.13-1.12 1.01-1.83-.1-.64-.62-1.17-1.2-1.58a34 34 0 0 0-4.65-3.04h-.02v-.01a4.5 4.5 0 0 0-4.26.21c-7.98 4.03-16.8 7.64-25.49 11.18l-4.86 2c-21.53 8.5-46.4 23.28-55.78 48.48a74 74 0 0 0-3.72 12.28 6 6 0 0 0 0 2.2v.04a5 5 0 0 0 2.35 2.77c1.05.65 2.28 1.06 3.31 1.28.6.18 1.2.2 1.72-.03.54-.22.95-.66 1.25-1.22l.03-.07.02-.07a81 81 0 0 1 4.77-15.3c9.31-22.2 30.64-33.74 51.92-42.24ZM72.26 28.08l-.02-.03-.02-.03c-.23-.34-.63-.44-.93-.46q-.5-.02-1.03.12t-1.02.39q-.47.23-.8.58a91 91 0 0 1-17.97 13.2 4.5 4.5 0 0 0-1.41 1.24q-.31.39-.46.85c-.1.3-.12.67.07 1l.02.04.03.03c.38.48.96.47 1.35.38a3 3 0 0 0 1-.47 91 91 0 0 0 20.29-15.06l.17-.16.1-.09.34-.34q.18-.19.3-.47a1 1 0 0 0-.01-.72Zm56.72 2.27.07-.19-.1-.18a2 2 0 0 0-1.28-.98l-.68-.16-.05-.01-.5-.11h-.03a3.6 3.6 0 0 0-2.38.2q-1.02.54-1.57 1.76c-6.88 13.05-18.91 21.27-32.2 28.44a429 429 0 0 1-11.52 5.94C68.97 70 59.14 74.94 50.8 81.3l-.17.14c-.4.3-.83.64-1.19 1.02-.41.44-.77 1-.83 1.7v1.64q0 .63-.06 1.2l-.04.73c-.03.62 0 1.25.23 1.86l.03.06.04.05q.16.23.45.31.27.07.52 0 .45-.13.94-.52c9.05-7.46 19.6-12.93 30-18.34h.01l1.17-.59c8.94-4.49 18.86-9.47 27.4-15.7 8.92-6.49 16.39-14.36 19.68-24.5ZM98.2 85.26l.8-.33c19.82-8.39 40.58-17.16 52.43-36.65.85-1.18 1.1-2.25.85-3.32a8 8 0 0 0-1.8-2.98v-.01l-.39-.45-.03-.04-.4-.48a6 6 0 0 0-1.05-.97c-.39-.25-.89-.44-1.42-.26q-.75.29-1.23 1.3c-9.9 18.32-28.63 26.76-48.85 35.27l-4.74 2.02C77 84.86 61.09 91.6 49.05 103.65l-.06.06-.03.07a4.5 4.5 0 0 0-.45 2.02v7.8q0 .36.05.64.04.27.25.51.26.27.6.23.28-.05.45-.17c.23-.14.46-.37.65-.57l.24-.26.31-.33h.01l.01-.02c12.51-13.9 30.1-21.26 47.12-28.37Zm11.99 18.4q2.96-1.2 5.97-2.37c14.86-5.86 30.39-12 41.31-23.45l.06-.05.03-.08q.84-1.77.85-3.68.5-3.73.3-7.24c0-.32 0-.67-.03-.97a2 2 0 0 0-.24-.91 1 1 0 0 0-.45-.36 1 1 0 0 0-.6.04q-.5.22-1.06.88c-12.92 15-31.95 22.37-51.28 29.86l-1.52.6c-19.8 7.67-39.77 15.69-53.21 32.46l-.02.02-.3.4c-.64.85-1.2 1.59-1.2 2.89v15.91l.94-1.67c13.2-23.52 36.43-33.07 60.45-42.27Z"/></svg>