<svg xmlns="http://www.w3.org/2000/svg" fill="none" viewBox="0 0 457 180"><path d="M24.4 161.6c29.4 25 106.8 24.7 136-2.3 26.6-29.8 25.7-107.1 0-136.2l-4.8-4.7C126.2-6.7 48.8-6.3 19.6 20.8-7 50.5-6 127.8 19.5 156.9z" fill="#2977ff"/><path d="M127.8 134.1a63 63 0 0 0-15.6 13.2c-1.4 1.5.4 1.2 1.6.8q1-.4 1.7-1.2a61 61 0 0 1 19.6-14c1.1-.4 2.4-2 2.3-3-.2-1.1-8.5 3.6-9.6 4.2zm-5.8-6.2q8-4.2 16-7.3 1.8-.7 1.7-2.9 0-.8-.2-1.4c-.4-.5-1.2-.2-1.8 0-8.4 3.3-18 7.6-25.9 13a62 62 0 0 0-18 18.3q-.6.6-.6 1.2c.1.7 2.3.4 3 .4q1.5-.2 2.3-1.5a64 64 0 0 1 23.5-19.8zm-9.7-10.4c8-3.7 16.8-7.4 24.4-11.3.7-.4 1.4-1 1.3-1.8q-.4-2-1.3-3.7-.7-1.7-2.3-.8C110.7 112.3 81 118.8 70 147.6c-.4 1-.8 1.8.8 1.7h4.4q1.4 0 1.8-1.5c6.4-15 21-24 35.1-30.3zm-9-13.5c8.7-3.6 17.8-7.2 25.8-11.6q1.3-1-.2-2-1.5-1.2-3.5-2.3-1.5-.7-3 .2c-7.2 3.7-15.5 7-23.3 10.1-16.5 6.5-35.6 17.8-42.7 37a61 61 0 0 0-3 9.3v1.6c.5 1.6 2.6 2.4 4.1 2.8q1.3.4 1.9-.9 1.3-6 3.7-11.7c7.2-17.1 23.7-26 40.2-32.5zM68.8 30.8c-.3-.5-1.9 0-2.3.5q-6.1 5.8-14 10.3c-.6.2-1.5 1.3-1.2 1.8s1 0 1.4-.2a69 69 0 0 0 15.5-11.4c.2-.3.7-.7.6-1zm19.7 0-.9-.2q-1.6 0-2.5 1.2C77 41.7 63.9 48.7 51.9 56c-.6.5-.9 1.8-.5 2.3q.5.5 1.3-.1l2.8-1.6C68 49.2 80.3 42 88.2 31.7q.4-.6.3-.8zm23.9 1.4q-.6-.7-1.7-.7-1.7-.4-2.6 1.3C97.3 53 70.7 58.2 53 71.8q-1.3.6-1.6 1.9v3.9q.4.3 1-.3c7-5.7 15.2-10 23.2-14 14.1-7.2 31.8-15.7 37-31zM89 74c15.4-6.4 31.6-13.1 40.8-28.1 1.1-1.7.5-2.8-.8-4.4-.8-.9-1.9-2.6-2.9-.8C118.5 55 104 61.4 88.4 68c-13 5.6-26.7 10.8-36.9 20.9q-.2.6-.2 1.4v6c0 1.3.7.2 1.2-.3C62.2 85.2 75.8 79.5 89 74zm9.2 14.2c12.8-5.2 26.7-9.9 36.2-19.7q.6-1.3.6-2.7.3-2.7.3-5.5c0-1-.1-2-1.2-.7-20.6 23.7-61 22.6-81.5 48.1-.7.9-1.1 1.3-1.1 2.3v10.7c10.1-18 28-25.5 46.6-32.5z" fill="#fff" stroke="#fff" stroke-width="3" stroke-miterlimit="10"/><path d="M266.4 73q-.6 3.3-2.8 5.7a16 16 0 0 1-5.9 3.6q8.1 2.8 6.8 10.6-1.3 7.4-7.4 10.8-6 3.5-16.2 3.5a70 70 0 0 1-9.9-.9l-3-1q-3.8-1.5-3.2-5.3l6-34.5q.3-1.6 1.3-2.4 1-.9 2.6-1.4 2.6-.9 6.5-1.3 3.8-.4 7.8-.4 9.5 0 14 3.2 4.6 3.1 3.4 9.8M241 78.8h5.4q3 0 4.8-1.2 1.6-1.2 2-3.5.5-2-1-3.2t-4.8-1.1l-4.9.3zm10.2 13.5q.9-4.5-5.2-4.5h-6.6l-1.6 9 2.6.4 3.1.1q3 0 5.1-1.2 2.2-1.2 2.6-3.8m28.3 13.7a23 23 0 0 1-5.7.6q-3.7 0-5.1-1.2t-.8-4.7l3.8-22q.4-2 1.8-3.7c1-1 2-2 3.5-2.7q2.8-1.6 6.4-2.4a33 33 0 0 1 7.4-.8q8 0 7 5.7l-.8 2.5-1.2 2a20 20 0 0 0-11.9 1.4zm38-37q4 0 7 .8 3.3.9 5.3 2.5a9 9 0 0 1 2.8 4.2q.9 2.6.2 6L330 99.1a6 6 0 0 1-1.6 3.1q-1.2 1.3-2.9 2.1-5.3 3-14 3-4 0-7-.8-3-.7-5-2.2a8 8 0 0 1-2.8-3.8q-.7-2.3-.3-5.3.9-5 4.4-7.9 3.6-2.7 10-3.4l9.9-1v-.5q.5-2.2-1.3-3-1.7-1-5.3-1a34 34 0 0 0-10.6 2 4 4 0 0 1-1.3-2 6 6 0 0 1-.1-2.8q.3-2 1.4-3a9 9 0 0 1 3.2-2q2.3-.9 5.3-1.2 3-.4 5.6-.4M313 98l2.8-.2 2.4-.7 1-6-5.4.5q-2.1.1-3.6 1a3 3 0 0 0-1.7 2.1q-.2 1.5.8 2.4 1 1 3.7 1m58.8 7.9a24 24 0 0 1-5.8.6q-3.6 0-5-1.2-1.5-1.2-.9-4.7l3-17.4q.4-2.3-.7-3.4-1.2-1-3.4-1-1.5 0-2.9.3l-2.6 1L349 106a23 23 0 0 1-5.7.6q-3.7 0-5.1-1.2-1.5-1.2-.8-4.7l3.8-22.2q.4-2 1.5-3.3 1-1.2 2.7-2.3 2.8-1.8 6.8-2.8t8.6-1q8.4 0 12.3 3.6 3.8 3.6 2.7 10.2zm32.7-27q-2 0-3.6.5a10 10 0 0 0-3.2 1.8 11 11 0 0 0-4 7q-.7 4.5 1.5 6.7a8 8 0 0 0 6 2.2q2.2 0 4-.5l3.2-1.2a6 6 0 0 1 1.7 2.3q.5 1.1.2 2.8-.6 3-3.8 4.8a25 25 0 0 1-16.8.6q-3.5-1.3-5.7-3.7a13 13 0 0 1-3-5.9 21 21 0 0 1 0-8.2 24 24 0 0 1 3.1-8.5 21 21 0 0 1 12.3-9.5 26 26 0 0 1 7.8-1.2q5.3 0 7.9 2 2.5 1.8 2 4.9-.3 1.5-1.1 2.6l-2 2.1q-1.1-.6-2.8-1.1t-3.7-.6m18.3 18a119 119 0 0 1-3.6-25 12 12 0 0 1 7-2.5 7 7 0 0 1 4.1 1q1.6 1.2 1.8 4l1.2 10.3 1.1 10.1h.3a125 125 0 0 0 5.5-11.6l4.9-12.4q1.4-.7 2.7-1 1.5-.4 2.9-.4 2.6 0 4.3 1 1.8 1.2 1.3 4-.6 2.9-2.2 7a102 102 0 0 1-8.7 17 93 93 0 0 1-14.6 18.2q-4 3.4-7.7 3.4a6 6 0 0 1-4.6-1.9 6 6 0 0 1-1.6-4.8 75 75 0 0 0 10.6-9.6q-1.2-.3-2.4-1.7t-2.3-5.1" fill="#2977ff"/></svg>