<svg xmlns="http://www.w3.org/2000/svg" fill="none" viewBox="0 0 453 180">
    <path d="M296.4 161.6c29.5 25 106.8 24.7 136.1-2.3 26.6-29.8 25.6-107.1 0-136.2l-4.8-4.7c-29.5-25.1-106.8-24.7-136 2.4-26.7 29.7-25.7 107 0 136.1z" fill="#2977ff"/>
    <path d="M399.8 134.1a63 63 0 0 0-15.6 13.2c-1.4 1.5.4 1.2 1.7.8q1-.4 1.7-1.2a61 61 0 0 1 19.6-14c1-.4 2.4-2 2.3-3-.2-1.1-8.6 3.6-9.6 4.2zm-5.7-6.2q7.9-4.2 16-7.3 1.7-.7 1.7-2.9 0-.8-.3-1.4c-.3-.5-1.2-.2-1.7 0-8.5 3.3-18 7.6-25.9 13a62 62 0 0 0-18.1 18.3l-.6 1.2c.2.7 2.4.4 3.1.4q1.5-.2 2.2-1.5a65 65 0 0 1 23.6-19.8zm-9.8-10.4c8.1-3.7 16.8-7.4 24.5-11.3q1.3-.6 1.3-1.8-.5-2-1.4-3.7-.6-1.7-2.3-.8c-23.7 12.4-53.2 18.9-64.2 47.7-.4 1-.9 1.8.7 1.7h4.4q1.4 0 1.9-1.5c6.4-15 21-24 35-30.3zm-8.9-13.5c8.7-3.6 17.8-7.2 25.7-11.6 1-.6.7-1.3-.1-2l-3.5-2.3q-1.5-.7-3 .2a287 287 0 0 1-23.3 10.1c-16.6 6.5-35.6 17.8-42.7 37a61 61 0 0 0-3 9.3q-.2.7 0 1.6c.5 1.6 2.5 2.4 4 2.8q1.4.4 2-.9 1.3-6 3.6-11.7c7.2-17.1 23.8-26 40.2-32.5zm-34.5-73.2c-.4-.5-2 0-2.4.5q-6 5.8-14 10.3c-.5.2-1.4 1.3-1.1 1.8s1 0 1.3-.2q8.9-4.8 15.5-11.4.7-.5.7-1zm19.6 0-.8-.2q-1.6 0-2.6 1.2c-8 9.9-21.1 16.9-33.1 24.1-.6.5-.9 1.8-.6 2.3.2.5 1 .2 1.4-.1l2.7-1.6c12.6-7.3 24.9-14.4 32.8-24.8q.3-.6.2-.8zm24 1.4q-.7-.7-1.8-.7-1.8-.4-2.5 1.3c-10.8 20.2-37.5 25.4-55.3 39q-1.2.6-1.5 1.9l-.1 1.1q-.1 1.5.1 2.8.3.3 1-.3c7-5.7 15.1-10 23.1-14 14.2-7.2 31.9-15.7 37-31zM361 74c15.5-6.4 31.6-13.1 40.8-28.1 1.2-1.7.6-2.8-.7-4.4-.8-.9-2-2.6-2.9-.8C390.6 55 376 61.4 360.4 68c-12.9 5.6-26.6 10.8-36.8 20.9q-.3.6-.3 1.4v6c0 1.3.7.2 1.3-.3 9.7-10.7 23.3-16.4 36.4-21.8zm9.2 14.2C383 83 397 78.3 406.5 68.5q.5-1.3.6-2.7.3-2.7.2-5.5c0-1 0-2-1.2-.7-20.5 23.7-61 22.6-81.5 48.1-.7.9-1 1.3-1 2.3 0 2.3-.2 8.2 0 10.7 10-18 28-25.5 46.6-32.5z" fill="#fff" stroke="#fff" stroke-width="3" stroke-miterlimit="10"/>
    <path d="M162 77.5a39 39 0 0 0 0-8.2c-.1-.5-.6-3.5-3.4-5.5a8 8 0 0 0-5.4-1.5l-7.6.6a246 246 0 0 1-.7 14.5q-.6 6.5-3.6 10.2-.7 1-3.4 2.7c-5.6 3.2-11.9 1-13.5.4l-3.3-1.5a48 48 0 0 0 2.5-19.9c0-.4-.2-3.7-3-5.8a8 8 0 0 0-5.6-1.3l-7.8.7a204 204 0 0 1-.7 14.5q-.5 6.6-3 10.2a7 7 0 0 1-2.8 2.7 9 9 0 0 1-8.9-1A50 50 0 0 0 94.5 70c0-.6-.3-3-2.3-5a8 8 0 0 0-6.7-2l-7.6.6-.2 4.8-.4 5a42 42 0 0 1-3.6 15.2 9 9 0 0 1-6.7 2.9l-1.2-.1q-.8 0-1.4-.4-1.7-.6-2.3-1.6a47 47 0 0 0 2.8-15.8c0-4.3-.1-6.5-1.8-8.2-2-2-5.1-1.8-6.3-1.7l-8.2.5a57 57 0 0 1-.5 9.6c-.7 7-1.2 11-3.9 13.5-.9.8-3 2.5-7.5 2.4h-10c-4-.1-6.6 0-9.7 1.3a18 18 0 0 0-4.8 3A38 38 0 0 0 .9 115.7c-.8 4.3-1.2 6.5-.7 8.8 2.9 13.3 27.2 15.6 41 14.5 7.6-.6 17.7-1.4 21.5-8.5 2.4-4.4 1.4-9.4.5-12.2A98 98 0 0 1 27 122c-14.9-1.5-17-5.8-17.4-7.7-.1-.4-.5-1.8 0-3.4 1.5-5 10.2-7.3 21.8-6.3l7 .3a20 20 0 0 0 15.4-5.5l1 1.1a17 17 0 0 0 4 2.7s3.9 1.6 9 1.6h.7A25 25 0 0 0 84 100h.1q1.8 1.6 4.7 2.9a22 22 0 0 0 9 1.6 26 26 0 0 0 15.5-4.6l3 1.8a35 35 0 0 0 17.4 3.4c3.7-.2 12.8-.7 19.9-7.6s8-15.9 8.4-20m64.8-8.7q-.6-3-1.8-4.7a6 6 0 0 0-2.1-1.7l-1-.4q-1.1-.3-3.7-.2l-8 1a212 212 0 0 1-.4 14.4q-.4 6.5-3.4 10.2a10 10 0 0 1-7.7 3.9h-1a41 41 0 0 1-7-.9l.7-4.1.6-6c.4-6 0-8.6-.3-11a8 8 0 0 0-2.5-4.7 8 8 0 0 0-6.4-1.8l-8.1 1q0 7.9-.3 12.9a95 95 0 0 1-2.2 20.2c-.9 3.5-1.3 5.2-2.3 7.1a24 24 0 0 1-19.5 12l.6 4.8c.2 1 .8 4 3.2 6 2.3 2 4.8 2.1 7 2.2 8.2.3 14.6-4.5 16.6-6.2 3.6-3 5.5-6.2 6.4-7.8q2.8-4.8 4.2-12a28 28 0 0 0 11.4 1.5q12-.1 19-7.3A30 30 0 0 0 227 77a39 39 0 0 0-.1-8.2M207 124c-2.7-2.3-9.8-2.3-12.4.2-2.5 2.7-2.4 9.8 0 12.4l.4.4c2.7 2.3 9.7 2.3 12.4-.2 2.4-2.7 2.3-9.7 0-12.4zm-76.4-70.4c2.4 2.2 9 2.1 11.5-.1 2.2-2.6 2.1-9 0-11.6q-.3 0-.4-.3c-2.5-2.2-9-2.1-11.6.2-2.2 2.5-2.1 9 0 11.5q.3 0 .5.3" fill="#2977ff"/>
</svg>
