<svg xmlns="http://www.w3.org/2000/svg" fill="#8f9bb3" viewBox="0 0 36 36" xmlns:v="https://vecta.io/nano"><path opacity=".4" d="M27.78 7.87c.84.2 1.6.52 2.21 1.14.63.63.95 1.4 1.15 2.25.2.81.3 1.83.44 3.04l.27 2.43c.15 1.34.27 2.39-.07 3.37s-1.1 1.73-2.05 2.68l-8.59 8.59-2.74 2.55A4.5 4.5 0 0 1 15.63 35a4.5 4.5 0 0 1-2.77-1.08c-.8-.6-1.68-1.49-2.74-2.55l-2.49-2.48-2.55-2.75A4.5 4.5 0 0 1 4 23.37a4.5 4.5 0 0 1 1.08-2.77c.6-.8 1.5-1.68 2.55-2.75l8.42-8.42.17-.16c.95-.95 1.7-1.7 2.68-2.05s2.03-.22 3.37-.07z"/><path fill-rule="evenodd" d="M9.55 21.57a1.64 1.64 0 0 1 2.29 0l5.84 5.74c.63.61.63 1.61 0 2.23s-1.65.61-2.28 0L9.55 23.8a1.55 1.55 0 0 1 0-2.24m4.31-4.19a1.64 1.64 0 0 1 2.28 0L22 23.1c.63.62.63 1.62 0 2.23-.63.62-1.65.62-2.28 0l-5.85-5.73a1.55 1.55 0 0 1 0-2.23m7.83-16.1c1.7-.45 3.62-.46 5.28.98 1.8 1.57 2.26 3.94 1.91 6.15a11.5 11.5 0 0 1-3.4 6.34 1.64 1.64 0 0 1-2.3-.01 1.56 1.56 0 0 1 .02-2.23 8.3 8.3 0 0 0 2.49-4.58c.24-1.54-.15-2.69-.87-3.31-.54-.47-1.18-.6-2.26-.3a20 20 0 0 0-3.68 1.65l-.33.17c-1.44.75-3.15 1.62-4.84 1.9a5.6 5.6 0 0 1-5.3-1.73A1.6 1.6 0 0 1 8 5.18q.05-.65.53-1.09a1.64 1.64 0 0 1 2.29.12c.38.41.74.6 1.06.7q.51.16 1.28.03c1.1-.19 2.36-.8 3.88-1.59l.39-.2c1.32-.69 2.83-1.48 4.28-1.87"/></svg>