<svg xmlns="http://www.w3.org/2000/svg" fill="#8f9bb3" viewBox="0 0 36 36"><path opacity=".4" d="M4.88 15.75v6.07l.17 5.63a7.4 7.4 0 0 0 1.44 3.95q.5.6 1.1 1.1a7.3 7.3 0 0 0 3.92 1.45c1.47.17 3.58.17 5.87.17.86 0 1.6 0 2.33-.25q.2-.07.43-.18c.68-.32 1.2-.86 1.82-1.47L29.13 25a7 7 0 0 0 1.66-2.14c.34-.82.34-1.7.33-2.7v-5.2l-.22-6.53c-.24-1.76-.74-3.24-1.91-4.42s-2.64-1.68-4.4-1.92a53 53 0 0 0-6.48-.23H17a8.5 8.5 0 0 1 3.24 6.7v4.2a6.01 6.01 0 0 1-11.52 2.36 3.4 3.4 0 0 1-3.86.62"/><path d="M19.7 33.87q.23-.07.44-.18c.68-.32 1.21-.86 1.82-1.47L29.13 25a7 7 0 0 0 1.66-2.14q.2-.54.28-1.13H28.1l-4.33.18a5.6 5.6 0 0 0-3.39 1.47c-.9.9-1.29 2.04-1.47 3.4-.18 1.29-.18 2.27-.18 4.32v2.97q.5-.05.97-.2"/><path fill-rule="evenodd" d="M11.63 4.88a3.7 3.7 0 0 0-3.76 3.69v4.15a1.5 1.5 0 0 1-3 0V8.57a6.73 6.73 0 0 1 9.34-6.2 6.7 6.7 0 0 1 4.16 6.2v4.2a4.1 4.1 0 0 1-5.7 3.8 4.1 4.1 0 0 1-2.54-3.8v-4.2a1.5 1.5 0 0 1 3 0v4.2c0 .6.48 1.1 1.12 1.1s1.13-.5 1.13-1.1v-4.2c0-2.03-1.67-3.7-3.76-3.7"/></svg>