<svg xmlns="http://www.w3.org/2000/svg" fill="#2977ff" viewBox="0 0 36 36" xmlns:v="https://vecta.io/nano"><path opacity=".3" d="M33.38 17.91v.18l-.28 7.88c-.27 2.06-.86 3.7-2.14 4.99-1.29 1.28-2.93 1.87-5 2.14-2 .27-4.59.27-7.87.27h-.18c-3.28 0-5.86 0-7.88-.27-2.06-.27-3.7-.86-4.99-2.14-1.28-1.29-1.87-2.93-2.14-5-.27-2-.27-4.59-.27-7.87v-.18l.27-7.88c.27-2.06.86-3.7 2.14-4.99 1.29-1.28 2.93-1.87 5-2.14 2-.27 4.59-.27 7.87-.27h.18l7.88.27c2.06.27 3.7.85 4.99 2.14 1.28 1.29 1.87 2.93 2.14 5 .27 2 .27 4.59.27 7.87"/><path fill-rule="evenodd" d="M25.5 18a1.5 1.5 0 0 0-1.5-1.5h-6.75v-.88l-.03-.85c-.03-.2-.13-1.06-.98-1.47s-1.6.04-1.77.13c-.23.15-.49.35-.7.51l-.04.04-1.88 1.58q-.47.44-.83.96c-.21.31-.52.83-.52 1.48s.3 1.17.52 1.48q.36.53.83.96a23 23 0 0 0 1.88 1.58l.04.04.7.5c.17.1.92.56 1.77.15s.95-1.28.98-1.47c.03-.27.03-.6.03-.86v-.89H24a1.5 1.5 0 0 0 1.5-1.5"/></svg>