<svg xmlns="http://www.w3.org/2000/svg" fill="none" viewBox="0 0 745 212"><path fill="#2977ff" d="M28.7 190.3c34.7 29.6 125.8 29.2 160.3-2.7 31.3-35 30.2-126.2 0-160.4l-5.7-5.5C148.6-7.9 57.5-7.4 23 24.5c-31.3 35-30.1 126 .1 160.3z"/><path fill="#fff" stroke="#fff" d="M96.4 27.5c-.4 0-1.4.1-2.1.4a5 5 0 0 0-1.7 1.4 88 88 0 0 1-19.5 17q-8 5.3-16.7 10.3l-6.8 4v.1q-.7.8-1 1.8-.2 1 .2 1.8l.5.6h.7l1.2-.6 3.6-2 1.4-.8C72 52.2 87.6 43 97.5 29.6q.7-.7.4-1.5l-.3-.4-.4-.1h-.7zm34.1 154.4a7 7 0 0 0 2.5-1.7 79 79 0 0 1 25.2-18.2q1.4-.5 2.3-1.8l.8-1.2q.3-.8.2-1.4l-.5-.6h-.6l-1.4.3-4 1.8c-3 1.4-6 3.2-6.7 3.6l-.1.1a82 82 0 0 0-20.4 17.3l-.5.7-.2.6.3.7q.3.3.5.2h1.3zM162 146q1.3-.6 2-1.7c.6-1.1.5-1.6.5-2.6l-.3-2v-.2l-.1-.1q-.3-.4-.7-.4h-.8l-1.2.3h-.1c-11 4.3-23.5 10-33.8 17a82 82 0 0 0-23.7 24v.1l-.2.4-.1.1-.2.4-.2.5v.6q.2.7.8.8l1.3.2h1.6l.7-.1q2.3-.4 3.4-2.2a85 85 0 0 1 30.3-25.7h.3v-.2A194 194 0 0 1 162 146zm-33.5-4.1 6.6-3c8.6-3.9 17.4-7.8 25.2-11.9q.9-.3 1.5-1t.5-1.8a20 20 0 0 0-1.7-5.1q-.6-1.2-1.5-1.5c-1-.3-1.4-.1-2.2.2q-10.3 5.3-21.1 10l-3 1.4q-12.3 5.3-24 11.9A77 77 0 0 0 73 180.5v.2l-.3.8q-.2.4-.1 1 0 .5.6.8t1.3.2h5.7a3 3 0 0 0 2-.6q.7-.6 1-1.7c8.2-19.3 27-31.2 45.3-39.2zM117 124.3l5.3-2.2c9.6-4 19.4-8 28.2-12.9q1.2-.7 1.1-1.8-.2-1-1.2-1.6a34 34 0 0 0-4.7-3 5 5 0 0 0-4.2.2c-8 4-16.8 7.6-25.5 11.1l-4.9 2c-21.5 8.5-46.4 23.3-55.8 48.5a74 74 0 0 0-3.7 12.3 6 6 0 0 0 0 2.2q.7 2 2.4 2.8c1.7.8 2.2 1 3.3 1.3q1 .3 1.7 0 .8-.4 1.2-1.3l.1-.1a81 81 0 0 1 4.8-15.3c9.3-22.2 30.6-33.7 51.9-42.2zM72.3 28q-.5-.5-1-.5h-1q-.5.1-1 .5-.5.1-.9.6-7.9 7.5-18 13.2-.7.4-1.3 1.2l-.5.8v1l.1.1q.7.7 1.4.4l1-.5a91 91 0 0 0 20.3-15l.1-.2h.1l.4-.4q0-.2.3-.5zm56.7 2.3V30a2 2 0 0 0-1.3-1l-.7-.2h-.6q-1.3-.4-2.4.1c-1 .5-1.2 1-1.5 1.8-7 13-19 21.2-32.2 28.4l-11.6 6C69 70 59.1 74.9 50.8 81.3l-.2.1-1.2 1q-.6.7-.8 1.8v3.5q-.2 1 .1 1.9l.1.1.5.3h.5l1-.5c9-7.5 19.5-13 30-18.3l1.1-.6c9-4.5 18.9-9.5 27.4-15.7 9-6.5 16.4-14.4 19.7-24.5zm-30.8 55 .8-.4c19.8-8.4 40.6-17.1 52.4-36.6q1.3-1.8.9-3.3t-1.8-3l-.4-.5-.4-.5-1-1q-.7-.5-1.5-.2T146 41c-10 18.4-28.7 26.8-49 35.3l-4.7 2C77 85 61 91.7 49 103.7l-.1.1a5 5 0 0 0-.5 2.1v8.4l.3.6.6.2.5-.2.6-.6.3-.2.3-.3c12.5-14 30-21.3 47.1-28.4zm12 18.4 6-2.4c14.8-5.9 30.3-12 41.3-23.5a9 9 0 0 0 1-3.8q.4-3.7.2-7.2v-1q0-.4-.3-.9l-.4-.4-.6.1q-.5.2-1 .9c-13 15-32 22.3-51.4 29.8l-1.5.6c-19.8 7.7-39.7 15.7-53.2 32.5l-.3.4c-.6.9-1.2 1.6-1.2 2.9v16l1-1.8c13.1-23.5 36.4-33 60.4-42.2z"/><path fill="#2977ff" d="M337.3 70.8q-1.3 7.7-6.4 13a28 28 0 0 1-13.3 8.4c12.3 4.3 17.2 13.4 15.2 25.3-2 11.2-7.4 18.4-16.6 23.8s-21.6 8-37.1 8l-6.7-.1-8-.7-8-1.3a34 34 0 0 1-7-2.1q-8.7-3.6-7.1-12.4L256 53.5a9 9 0 0 1 3-5.5q2.2-2 5.8-3.1 6-2 14.9-3a169 169 0 0 1 17.9-.9q21.5 0 32 7.3t7.7 22.5m-57.8 13.3h12.3q7.2 0 11-2.8t4.7-8q.8-4.5-2.5-7.2t-11-2.7l-5.8.1-5.2.6zm23.5 31q1.8-10.5-12.1-10.4h-15l-3.6 20.7q2.3.7 5.9 1l7 .2q6.8 0 11.8-2.8 5-2.9 6-8.7m62.2 32.7q-2 .5-5.5 1a56 56 0 0 1-7.7.5q-8.6 0-11.8-2.8t-1.9-10.8l8.9-50.7q1-5 4-8.6c3-3.6 4.9-4.6 8.2-6.4q6.6-3.6 14.9-5.5c8.3-1.9 11.2-1.8 17-1.8q18.6 0 16.3 13.1-.5 3-1.8 5.7t-2.9 4.5a47 47 0 0 0-27.4 3.4zm85-85.1q9 0 16 1.8c7.1 1.9 8.6 3.1 11.7 5.6s5.2 5.7 6.4 9.6 1.4 8.4.5 13.6l-6.5 37.6q-.8 4.4-3.7 7.1-3 2.8-6.6 4.8a66 66 0 0 1-31.6 6.5q-8.8 0-15.6-1.6a31 31 0 0 1-11.3-5 18 18 0 0 1-6.3-8.6 24 24 0 0 1-.7-12q2-11.7 10-17.9c8-6.2 12.7-6.7 22.4-7.7l22.3-2.3.2-1.2q.8-4.8-3-7c-3.9-2.1-6.6-2-12-2q-6 0-12.4 1.3-6.3 1.4-11.5 3.3a9 9 0 0 1-2.9-4.6q-1-3-.4-6.4.8-4.4 3.3-7c2.5-2.6 4.1-3.2 7.2-4.4q5.1-1.8 11.9-2.7 6.7-.9 12.5-.8M440 128.5q2.9 0 6.4-.5 3.5-.7 5.4-1.6L454 113l-12.2 1q-4.7.3-8 2a7 7 0 0 0-3.9 5q-.6 3.3 1.7 5.4c2.3 2.1 4.2 2.1 8.3 2.1m125.4 19.3q-2 .5-5.5 1a56 56 0 0 1-7.7.5q-8.6 0-11.9-2.8-3.2-2.9-1.8-10.8l7-40.2q.9-5.2-1.8-7.7t-7.8-2.5q-3.4 0-6.6.9a40 40 0 0 0-6.1 2.2l-10.4 59.4q-2 .5-5.6 1s-5 .5-7.7.5q-8.6 0-11.8-2.8c-3.2-2.8-2.8-5.5-1.9-10.8l9-51.2q.8-4.6 3.3-7.5a27 27 0 0 1 6.3-5.3q6.5-4.1 15.8-6.6a78 78 0 0 1 20-2.4q19.3 0 28.3 8.4t6.3 23.6zM634 85.1a26 26 0 0 0-8.2 1.4 23 23 0 0 0-7.3 4q-3.3 2.7-5.7 6.7c-2.4 4-2.7 5.7-3.3 9.1q-1.8 10.5 3.2 15.5t13.8 5q5.1 0 9.2-1.3 4-1.2 7.2-2.6 2.8 2.4 4 5 1.1 2.8.4 6.6-1.1 6.8-8.6 10.8t-19.7 4q-10.5 0-18.7-2.7c-8.2-2.7-9.7-4.6-13-8.3s-5.7-8.1-6.9-13.4a48 48 0 0 1 0-18.6q2-11 7-19.3c5-8.3 7.6-10 12.4-13.6a52 52 0 0 1 15.8-8 60 60 0 0 1 17.8-2.7q12.1 0 18 4.3 5.8 4.5 4.6 11.3-.6 3.1-2.6 6c-2 2.8-2.8 3.4-4.4 4.7q-2.6-1.3-6.4-2.6-3.8-1.2-8.6-1.3m38 36.4-2.1-8.8a188 188 0 0 1-4-25.7l-1.6-18.8a25 25 0 0 1 15.1-5.5q5.6 0 8.8 2.3t4 8.6l2.4 21.9L697 117h.6l5.8-11.7 5.9-13 5.6-13.5 5-13.2a35 35 0 0 1 6-2.2 24 24 0 0 1 6.1-.8q5.6 0 9.3 2.3c3.7 2.3 3.4 4.4 2.7 8.3q-1.1 6.3-4.6 15c-3.5 8.8-5.2 12-8.4 18.3a254 254 0 0 1-21.2 34.2q-11.7 15.5-20.6 22.8-9 7.5-16.7 7.4-6.3 0-10-4-3.6-3.9-3.2-10.2a161 161 0 0 0 22.7-20.6q-2.6-.8-5.2-3.7a29 29 0 0 1-4.8-11"/></svg>