<svg xmlns="http://www.w3.org/2000/svg" fill="none" viewBox="0 0 623 212"><path fill="#2977ff" d="M271 87.8a62 62 0 0 0 0-13.4 13 13 0 0 0-5.5-8.7 15 15 0 0 0-9.2-2.3l-12.7 1q0 3.5-.3 9.4l-.9 13.9a25 25 0 0 1-5.8 15 20 20 0 0 1-5.7 4.3c-9.4 5-19.9 1.5-22.6.7a34 34 0 0 1-5.6-2.4 64 64 0 0 0 4.2-17.5c.4-4.8.3-9.7 0-13.4a12 12 0 0 0-5.2-9 14 14 0 0 0-9.3-2l-13 1-.2 9.4-1 13.9a36 36 0 0 1-5.2 16.6c-2 2.8-3.9 3.8-4.8 4.3-4 1.9-8 1.1-9.3.9a16 16 0 0 1-5.6-2.4 80 80 0 0 0 4.5-18.7 89 89 0 0 0 .3-13.8c0-1-.3-5-3.8-8a14 14 0 0 0-11.1-3.2l-12.8 1.2V68l-.3 4-.6 8.4c-.7 7.6-3.3 21.9-6.2 24.8q-4.3 4.5-11.1 4.5l-2-.1q-1.3-.2-2.5-.6-2.7-1-3.8-2.5 1.5-3.8 2.5-7.8a78 78 0 0 0 2.2-19.2c-.1-6.8-.2-10.7-3-13.3-3.5-3.2-8.6-3-10.6-2.8l-13.6.8q0 3-.3 7.4l-.6 8.3c-1.2 10.8-2 19-6.5 22.9-1.5 1.4-5.2 4-12.7 3.9l-16.6-.2c-6.8 0-11 0-16.3 2.2-1 .4-4 1.7-8 4.7A55 55 0 0 0 1.6 146c-1.3 6.8-2 10.2-1.1 13.8 4.7 20.8 45.4 24.6 68.5 22.8 12.7-1 29.6-2.2 36-13.3 4.1-7 2.3-14.9.8-19.2-27 7-47.5 7-60.6 5.8-24.9-2.3-28.3-9-29.1-12-.2-.7-.7-3 0-5.4 2.6-7.8 16.8-9.6 36.6-8.5q5.8.5 11.8.5c6.1 0 8.2.2 14.3-2a34 34 0 0 0 11.4-6.6l1.7 1.7a29 29 0 0 0 6.6 4.2s6.5 3.1 15 3.1h1.3c10.5 0 19-3 25.8-7.7v.1a28 28 0 0 0 8 4.5 43 43 0 0 0 15.2 3.1c3.3 0 9.3-.6 16.3-3a42 42 0 0 0 9.4-4.8l5.2 2.8c12.3 5.7 24.5 5 29.4 5 6.4 0 21-.7 32.8-11.6s13.4-24.9 14.2-31.5m108.5-13.6q-.8-4.8-3-7.4a9 9 0 0 0-3.4-2.5l-1.6-.5a18 18 0 0 0-6.3-.4L352 64.8V74q-.2 5.8-.8 13.4-.7 10.1-5.7 16a17 17 0 0 1-12.7 6.3H331l-3-.1a62 62 0 0 1-8.6-1.2l1-6.8q.9-5.7 1-9.5c.7-9.4 0-14.8-.6-18.5a12 12 0 0 0-4-7.5 14 14 0 0 0-10.9-2.7L292.3 65a505 505 0 0 1-.4 21.6 144 144 0 0 1-3.7 31.8 39 39 0 0 1-7.2 14.1 50 50 0 0 1-22.3 16A42 42 0 0 1 248 150l1 7.5a15 15 0 0 0 5.4 9.6c3.7 3 8 3.2 11.6 3.3a44 44 0 0 0 27.9-9.7 45 45 0 0 0 10.7-12.2c3-5 9-13.3 10.5-20.7a51 51 0 0 0 6.8 1.7c4.8.9 8 1.4 12.3 1.3 13.3-.2 24-4.7 32-12.2s12.5-18 13.5-31.6q.5-8-.3-12.9m-36 78.2c-3.9-3.1-14-3-18 .3-3.4 3.6-3.3 13.2 0 16.8l.7.5c3.9 3.1 14 3 18-.3 3.4-3.6 3.3-13.2 0-16.8zm-108.6-117c-4-3.1-14.1-3-18 .3-3.5 3.6-3.3 13.2 0 16.8l.7.5c3.8 3.1 14 3 17.9-.2 3.5-3.7 3.4-13.3 0-16.8zm-88.2 120.6q-.3 1.6-1.4 2.7a6 6 0 0 1-2.7 1.8q3.8 1.3 3.1 5.2-.6 3.5-3.4 5a14 14 0 0 1-7.8 1.7H133l-1.6-.2-1.7-.3-1.4-.4q-1.8-.8-1.5-2.6l2.8-16.5q.2-.8.6-1.2.7-.5 1.3-.6 1.2-.4 3-.6l3.8-.2q4.5 0 6.7 1.5c2.1 1.5 2 2.6 1.6 4.7m-12 2.8h2.5q1.5 0 2.3-.6 1-.8 1-1.7.1-1-.6-1.5-.8-.7-2.2-.6h-1.3l-1 .2zm4.8 6.4q.4-2.1-2.5-2.1h-3.1l-.8 4.3 1.3.2h1.4q1.4 0 2.5-.6c1-.5 1-1 1.2-1.8m13 6.8-1.2.3h-1.6q-1.8 0-2.4-.5-.9-.8-.4-2.3l1.8-10.5q.2-1 .9-1.8c.6-.8 1-1 1.7-1.4q1.3-.7 3-1.1c1.8-.4 2.4-.4 3.6-.4q4 0 3.4 2.7 0 .7-.4 1.2l-.6 1-1.9-.2-2 .2c-1 .2-1.2.4-1.8.7zm17.7-17.7q1.9 0 3.3.4c1.5.4 1.8.6 2.5 1.1a4 4 0 0 1 1.3 2 6 6 0 0 1 .1 2.9l-1.3 7.8q-.2 1-.8 1.5l-1.4 1q-2.5 1.4-6.6 1.4-1.8 0-3.2-.4a5 5 0 0 1-2.4-1 4 4 0 0 1-1.3-1.8 5 5 0 0 1-.1-2.5q.4-2.4 2-3.7c1.7-1.3 2.7-1.4 4.7-1.6l4.6-.5.1-.3q.2-1-.6-1.4-1-.6-2.5-.5l-2.6.3-2.4.7-.6-1v-1.3q0-.9.6-1.4.7-.7 1.5-1 1-.4 2.5-.5zm-2.1 13.7h1.3l1.1-.4.5-2.8-2.5.2q-1 0-1.7.4c-.7.3-.7.6-.8 1s0 1 .3 1.2 1 .4 1.8.4m26.1 4-1.1.3h-1.6q-1.8 0-2.5-.5-.9-.8-.4-2.3l1.5-8.4q.2-1-.4-1.6-.8-.6-1.6-.5l-1.4.2-1.3.5L183 172l-1.1.2h-1.6q-1.8 0-2.5-.5-.9-.8-.4-2.3l1.9-10.7q.2-1 .7-1.5.7-.8 1.3-1.1 1.3-.9 3.3-1.4c1.9-.5 2.7-.5 4.1-.5q4 0 6 1.8c1.8 1.7 1.6 2.8 1.3 4.9zm14.3-13-1.7.3-1.5.8a5 5 0 0 0-1.9 3.3q-.4 2.2.7 3.2c1 1 1.6 1 2.8 1q1.1 0 2-.2l1.5-.5.8 1q.3.7 0 1.4-.2 1.4-1.7 2.2c-1.6.9-2.4.9-4.1.9q-2.2 0-4-.6c-1.6-.6-2-1-2.6-1.7s-1.2-1.7-1.5-2.8-.2-2.4 0-3.9q.5-2.3 1.5-4a8 8 0 0 1 2.6-2.9q1.5-1 3.3-1.6a10 10 0 0 1 3.7-.6q2.5 0 3.7.9c1.2.9 1.2 1.4 1 2.3l-.5 1.3-1 1-1.3-.6c-.8-.2-1.1-.2-1.8-.2m8 7.6-.5-1.9-.5-2.3-.4-3-.3-4 1.4-.8 1.8-.3q1.1 0 1.8.5c.7.4.7.9.8 1.8l.5 4.5.6 4.5 1.3-2.4 1.2-2.7 1.2-2.8 1-2.8 1.3-.5 1.3-.1q1.1 0 1.9.5c.8.5.7.9.6 1.7q-.3 1.3-1 3.1l-1.8 3.8-2.1 3.9-2.3 3.3q-2.4 3.2-4.3 4.7c-1.8 1.6-2.4 1.6-3.4 1.6q-1.4 0-2.1-.8c-.8-.9-.8-1.3-.7-2.2l2.5-2 2.2-2.3q-.5-.1-1-.8c-.6-.6-.8-1.1-1-2.3m222.4 23.9c34.7 29.6 125.8 29.1 160.3-2.8 31.3-35 30.2-126 0-160.3l-5.7-5.5C558.6-7.9 467.5-7.5 433 24.4c-31.3 35-30.1 126.1.1 160.4z"/><path fill="#fff" stroke="#fff" d="M506.4 27.5c-.4 0-1.4.1-2.1.4a5 5 0 0 0-1.7 1.4 87 87 0 0 1-19.5 17q-8 5.3-16.7 10.3l-6.7 4v.1h-.1a3 3 0 0 0-1 1.8 3 3 0 0 0 .1 1.8q.2.4.6.6h.7l1.2-.6 3.5-2 1.5-.8c15.8-9.3 31.4-18.5 41.3-31.9q.7-.7.4-1.5l-.3-.4-.4-.1zm34.2 154.4a7 7 0 0 0 2.4-1.7 79 79 0 0 1 25.2-18.2 6 6 0 0 0 3-3q.4-.8.3-1.4l-.5-.6h-.6q-.6 0-1.4.3l-4 1.8-6.7 3.6-.1.1a82 82 0 0 0-20.4 17.3l-.5.7q-.3.4-.2.7 0 .4.3.6l.5.2h1.3zM572 146q1.3-.6 2-1.7c.6-1.1.5-1.6.5-2.6l-.3-2v-.2l-.1-.1q-.4-.4-.7-.4h-.8l-1.2.3h-.1c-11 4.3-23.5 10-33.8 17q-15.1 10.4-23.7 24v.1l-.2.4-.1.1-.2.4-.2.5v.6q.2.7.8.8l1.3.1h2.3a4 4 0 0 0 3.4-2.2 85 85 0 0 1 30.3-25.6l.3-.2A194 194 0 0 1 572 146zm-33.5-4.1 6.6-3a541 541 0 0 0 25.2-11.9l1.5-1q.6-.7.5-1.8a20 20 0 0 0-1.7-5.1q-.6-1.2-1.5-1.5c-1-.3-1.4-.1-2.2.2q-10.3 5.3-21.1 10l-3 1.4q-12.3 5.3-24 11.9a77 77 0 0 0-35.8 39.3v.2l-.3.8q-.2.4-.1 1a1 1 0 0 0 .6.8q.5.2 1.3.2h5.7q1.2 0 2-.6.7-.6 1-1.7c8.2-19.3 27-31.2 45.3-39.2zM527 124.3l5.3-2.2c9.6-4 19.4-8 28.2-12.9q1.2-.7 1.1-1.8-.2-1-1.2-1.6a34 34 0 0 0-4.7-3 5 5 0 0 0-4.2.2c-8 4-16.8 7.6-25.5 11.1l-4.9 2c-21.5 8.5-46.4 23.3-55.8 48.5a74 74 0 0 0-3.7 12.3 6 6 0 0 0 0 2.2q.7 2 2.4 2.8c1.7.8 2.2 1 3.3 1.3q.9.3 1.7 0 .8-.4 1.2-1.3l.1-.1a81 81 0 0 1 4.8-15.3c9.3-22.2 30.6-33.7 51.9-42.2zM482.3 28q-.5-.6-1-.5h-1l-1 .5-.9.5a91 91 0 0 1-18 13.2q-.7.5-1.3 1.3-.4.4-.5.8v1l.1.1q.7.6 1.4.4l1-.5a91 91 0 0 0 20.3-15l.1-.2h.1l.4-.4.3-.5zm56.7 2.2V30a2 2 0 0 0-1.3-1l-.7-.2h-.6q-1.3-.4-2.4.1c-1 .5-1.2 1-1.5 1.8-7 13-19 21.2-32.2 28.4l-11.6 6c-9.7 4.9-19.6 9.8-27.9 16.2l-.2.1-1.2 1q-.6.7-.8 1.8v3.5q-.1 1 .1 1.9l.1.1.5.3h.5l1-.5c9-7.5 19.5-13 30-18.4l1.1-.5c9-4.5 18.9-9.5 27.4-15.7 9-6.5 16.4-14.4 19.7-24.5zm-30.8 55 .8-.4c19.8-8.4 40.6-17.1 52.4-36.6q1.3-1.8.9-3.3a8 8 0 0 0-1.8-3l-.4-.5-.4-.5-1-1q-.7-.5-1.5-.2T556 41c-10 18.3-28.7 26.7-48.9 35.2l-4.7 2C487 85 471 91.7 459 103.8h-.1a5 5 0 0 0-.5 2.1v8.4l.3.5q.3.3.6.3l.5-.2.6-.6.3-.2.3-.3c12.5-14 30-21.3 47.1-28.4zm12 18.4 6-2.4c14.8-5.9 30.3-12 41.3-23.5q.9-1.9 1-3.8.4-3.7.2-7.2v-1l-.3-.9-.4-.4-.6.1q-.5.2-1 .9c-13 15-32 22.3-51.4 29.8l-1.5.6c-19.8 7.7-39.7 15.7-53.2 32.5l-.3.4c-.6.9-1.2 1.6-1.2 2.9v16l1-1.8c13.1-23.5 36.4-33 60.4-42.2z"/></svg>