<svg xmlns="http://www.w3.org/2000/svg" fill="#8f9bb3" viewBox="0 0 36 36" xmlns:v="https://vecta.io/nano"><path opacity=".4" d="M32.83 13.14c.13.14.14.36.15.8L33 18.2v.52c0 .92 0 1.38-.23 1.52s-.65-.11-1.48-.61a9.2 9.2 0 0 0-11.5 1.57 10.3 10.3 0 0 0-1.5 12.01c.47.87.7 1.3.57 1.54-.13.25-.57.25-1.45.25h-.5c-3.42 0-6.1 0-8.2-.3-2.15-.3-3.86-.93-5.2-2.32-1.33-1.4-1.94-3.18-2.23-5.43C1 24.76 1 21.96 1 18.4v-.19l.02-4.25c.01-.45.02-.67.15-.81.14-.14.35-.14.78-.14h30.1c.43 0 .64 0 .78.14"/><path fill-rule="evenodd" d="M7 19.23c0-.68.54-1.23 1.2-1.23h1.6q.5 0 .85.36a1.24 1.24 0 0 1 0 1.74q-.36.35-.85.35H8.2q-.5 0-.85-.35a1.2 1.2 0 0 1-.35-.87m6.4 0c0-.68.54-1.23 1.2-1.23h3.2q.5 0 .85.36a1.24 1.24 0 0 1 0 1.74q-.36.35-.85.35h-3.2q-.5 0-.85-.35a1.2 1.2 0 0 1-.35-.87M7 25.77c0-.67.54-1.22 1.2-1.22h1.6q.5 0 .85.35a1.24 1.24 0 0 1 0 1.74q-.36.35-.85.36H8.2q-.5 0-.85-.36a1.2 1.2 0 0 1-.35-.87"/><path d="M17.1 3h-.18l-8.34.3c-2.18.3-3.9.93-5.27 2.33-1.35 1.42-1.98 3.2-2.26 5.45-.05.34-.08.52 0 .66q.05.1.15.17c.12.09.3.09.63.09h30.33c.35 0 .53 0 .64-.09l.15-.18c.08-.13.05-.3 0-.66-.28-2.24-.9-4.03-2.26-5.44-1.36-1.4-3.1-2.03-5.28-2.34C23.3 3 20.56 3 17.1 3" fill-opacity=".6"/><path fill-rule="evenodd" d="M9.6 0q.65.01 1.12.44.46.44.47 1.06v5q-.01.62-.47 1.06Q10.25 8 9.6 8c-.42 0-.82-.16-1.12-.44S8 6.9 8 6.5v-5c0-.4.17-.78.47-1.06Q8.94 0 9.59 0m13.8 0q.66.01 1.13.44.46.44.47 1.06v5q-.01.62-.47 1.06a1.65 1.65 0 0 1-2.25 0q-.46-.44-.47-1.06v-5c0-.4.17-.78.47-1.06Q22.75 0 23.4 0m-2.06 33.66a8 8 0 1 1 11.32-11.32 8 8 0 0 1-11.32 11.32m6.67-9.5c0-.64-.45-1.16-1-1.16-.56 0-1.01.52-1.01 1.17v3.9q0 .37.19.68.19.3.5.42l2.01.78q.39.13.76-.08.35-.22.49-.67.12-.45-.05-.88a1 1 0 0 0-.56-.59l-1.33-.5z"/></svg>