<svg xmlns="http://www.w3.org/2000/svg" fill="#8f9bb3" viewBox="0 0 36 36" xmlns:v="https://vecta.io/nano"><path fill-rule="evenodd" d="M27.56 20.81a1.5 1.5 0 0 1 1.5 1.5v3.75h3.75a1.5 1.5 0 0 1 0 3h-3.75v3.75a1.5 1.5 0 0 1-3 0v-3.75h-3.75a1.5 1.5 0 1 1 0-3h3.75v-3.75a1.5 1.5 0 0 1 1.5-1.5"/><path d="M17.15 2.69h-.17l-7.89.27c-2.06.28-3.7.86-4.99 2.14-1.28 1.3-1.87 2.93-2.14 5-.05.3-.07.47 0 .6q.05.09.14.16c.12.08.28.08.6.08h28.71c.33 0 .5 0 .61-.08l.14-.17c.07-.12.05-.28 0-.6-.27-2.06-.85-3.7-2.14-5-1.29-1.27-2.93-1.85-5-2.13-2-.27-4.59-.27-7.87-.27" fill-opacity=".6"/><path opacity=".4" d="M32.27 12.32c.13.13.14.33.14.74q.04 1.76.03 3.92v.17l-.11 6.2a.45.45 0 0 1-.4.46h-.22a.45.45 0 0 1-.4-.4v-1.1a3.75 3.75 0 0 0-7.5 0v.6c0 .43 0 .64-.13.77s-.34.13-.77.13h-.6a3.75 3.75 0 1 0 0 7.5h1.1a.45.45 0 0 1 .4.4v.2a.45.45 0 0 1-.47.4l-6.2.13h-.16c-3.29 0-5.87 0-7.89-.27-2.06-.28-3.7-.86-4.99-2.15-1.28-1.29-1.86-2.92-2.14-5-.27-2-.27-4.59-.27-7.87v-.17q0-2.15.02-3.92c0-.41.01-.61.14-.74s.34-.13.75-.13h28.92c.41 0 .62 0 .75.13"/><path fill-rule="evenodd" d="M7.69 17.81c0-.62.5-1.12 1.12-1.12h1.5a1.12 1.12 0 1 1 0 2.25h-1.5A1.13 1.13 0 0 1 7.7 17.8m6 0c0-.62.5-1.12 1.12-1.12h7.5a1.12 1.12 0 1 1 0 2.25h-7.5a1.13 1.13 0 0 1-1.12-1.13m-6 6c0-.62.5-1.12 1.12-1.12h1.5a1.12 1.12 0 1 1 0 2.25h-1.5A1.13 1.13 0 0 1 7.7 23.8m6 0c0-.62.5-1.12 1.12-1.12h2.25a1.12 1.12 0 1 1 0 2.25H14.8a1.13 1.13 0 0 1-1.12-1.13M10.5 0A1.5 1.5 0 0 1 12 1.5v5a1.5 1.5 0 1 1-3 0v-5A1.5 1.5 0 0 1 10.5 0m13 0A1.5 1.5 0 0 1 25 1.5v5a1.5 1.5 0 1 1-3 0v-5A1.5 1.5 0 0 1 23.5 0"/></svg>