<svg xmlns="http://www.w3.org/2000/svg" width="36" height="36" fill="#8f9bb3" xmlns:v="https://vecta.io/nano"><path opacity=".3" d="M18.086 2.625l7.882.27c2.065.279 3.703.86 4.99 2.146s1.869 2.926 2.146 4.991c.271 2.015.271 4.596.271 7.882v.172l-.27 7.882c-.278 2.065-.86 3.703-2.146 4.99s-2.926 1.869-4.991 2.146c-2.015.271-4.596.271-7.882.271h-.172c-3.286 0-5.867 0-7.882-.27-2.065-.278-3.703-.86-4.99-2.146s-1.868-2.926-2.146-4.991c-.271-2.015-.271-4.596-.271-7.882v-.172l.27-7.882c.279-2.065.86-3.703 2.146-4.99s2.926-1.868 4.991-2.146c2.015-.271 4.596-.271 7.882-.271h.172z"/><path fill-rule="evenodd" d="M23.559 12.44a1.5 1.5 0 0 1 0 2.12L20.121 18l3.44 3.44a1.5 1.5 0 0 1 .457 1.066 1.5 1.5 0 0 1-.44 1.073 1.5 1.5 0 0 1-1.074.439 1.5 1.5 0 0 1-1.066-.458l-3.44-3.438-3.438 3.439a1.5 1.5 0 0 1-1.061.44 1.5 1.5 0 0 1-.574-.114c-.182-.075-.347-.186-.487-.325a1.5 1.5 0 0 1-.44-1.061 1.5 1.5 0 0 1 .439-1.061l3.44-3.44-3.44-3.439A1.5 1.5 0 0 1 12 13.5a1.5 1.5 0 0 1 1.501-1.5 1.5 1.5 0 0 1 1.061.44l3.438 3.439 3.44-3.44a1.5 1.5 0 0 1 2.12.001z"/></svg>