<svg xmlns="http://www.w3.org/2000/svg" width="32" height="32" fill="none" xmlns:v="https://vecta.io/nano"><g clip-path="url(#A)"><path fill="#2699fb" d="M22.59 0H9.4A9.4 9.4 0 0 0 0 9.41V22.6A9.4 9.4 0 0 0 9.41 32H22.6a9.4 9.4 0 0 0 9.41-9.41V9.4A9.4 9.4 0 0 0 22.59 0"/><g fill="#fff"><path d="M20.26 3.96c.58.24 1.03.69 1.6 1.25l3.22 3.23q.79.69 1.26 1.6c.25.58.24 1.21.24 2.01v5.16l-.13 3.8a4.3 4.3 0 0 1-1.12 2.6 4.3 4.3 0 0 1-2.6 1.12c-.99.14-2.24.14-3.8.14H16.5c-1.57 0-2.82 0-3.82-.14a4.3 4.3 0 0 1-2.58-1.12A4.3 4.3 0 0 1 8.98 21c-.13-.98-.13-2.24-.13-3.8v-5.84l.13-3.8a4.3 4.3 0 0 1 1.13-2.6 4.3 4.3 0 0 1 2.59-1.11c1-.13 3.98-.13 5.54-.13.8 0 1.44 0 2.02.23" opacity=".4"/><path d="m21.85 5.21 3.23 3.24a5 5 0 0 1 1.25 1.6c.21.5.24 1.03.25 1.68h-2.64c-1.03 0-1.88 0-2.56-.09a3 3 0 0 1-1.89-.84 3 3 0 0 1-.82-1.87c-.1-.68-.1-1.6-.1-2.63V3.73c.66 0 1.19.03 1.68.23.6.24 1.04.69 1.6 1.25"/><path fill-rule="evenodd" d="M12.88 16c0-.47.38-.85.85-.85h4.56a.85.85 0 0 1 .8 1.19.9.9 0 0 1-.8.53h-4.56a.86.86 0 0 1-.86-.86m0 4.58c0-.47.38-.86.85-.86h7.98a.85.85 0 0 1 .6 1.47 1 1 0 0 1-.6.25h-7.98a.86.86 0 0 1-.86-.86"/><path d="M7.53 7.74a4.3 4.3 0 0 0-2.1 3.69v9.2l.13 3.81c.07.97.46 1.88 1.12 2.6.69.68 1.55.98 2.6 1.11.98.14 2.23.14 3.8.14h5.78a4.3 4.3 0 0 0 3.7-2.1c-1.02.1-2.23.1-3.55.1h-2.59c-1.5 0-2.83 0-3.92-.16a5.6 5.6 0 0 1-3.4-1.52 5.6 5.6 0 0 1-1.53-3.4c-.15-1.09-.15-2.43-.15-3.92v-6.02z"/></g></g><defs><clipPath id="A"><path fill="#fff" d="M0 0h32v32H0z"/></clipPath></defs></svg>