<svg xmlns="http://www.w3.org/2000/svg" fill="#8f9bb3" viewBox="0 0 36 36" xmlns:v="https://vecta.io/nano"><path opacity=".4" d="M23.58 2.19c.77.31 1.35.9 2.1 1.64l4.23 4.24a7 7 0 0 1 1.65 2.1c.32.76.31 1.59.31 2.64v6.77l-.17 5a5.6 5.6 0 0 1-1.47 3.4 5.6 5.6 0 0 1-3.4 1.47c-1.3.18-2.95.18-5 .18h-3.16c-2.06 0-3.7 0-5.01-.18a5.6 5.6 0 0 1-3.39-1.47 5.6 5.6 0 0 1-1.47-3.4c-.18-1.3-.18-2.95-.18-5v-7.66l.18-5a5.6 5.6 0 0 1 1.47-3.4c.9-.9 2.04-1.29 3.4-1.47 1.3-.17 5.22-.17 7.27-.17 1.05 0 1.88 0 2.64.3"/><path d="m25.68 3.83 4.24 4.24c.74.74 1.33 1.33 1.64 2.1.27.65.31 1.35.32 2.2h-3.46c-1.35 0-2.47 0-3.36-.11a4 4 0 0 1-2.48-1.1A4 4 0 0 1 21.5 8.7c-.12-.89-.12-2.1-.12-3.44V1.88c.85 0 1.55.04 2.2.3.77.32 1.36.91 2.1 1.65"/><path fill-rule="evenodd" d="M13.88 18c0-.62.5-1.12 1.12-1.12h6a1.12 1.12 0 1 1 0 2.25h-6A1.13 1.13 0 0 1 13.88 18m0 6c0-.62.5-1.12 1.12-1.12h10.5a1.12 1.12 0 1 1 0 2.25H15A1.13 1.13 0 0 1 13.88 24"/><path d="M6.88 7.16A5.6 5.6 0 0 0 4.12 12v12.08l.18 5a5.6 5.6 0 0 0 1.47 3.4c.9.9 2.04 1.29 3.4 1.47 1.3.18 2.94.18 5 .18h7.58a5.6 5.6 0 0 0 4.84-2.76c-1.33.13-2.91.13-4.65.13h-3.39c-1.96 0-3.71 0-5.14-.2a7.4 7.4 0 0 1-4.46-2 7.4 7.4 0 0 1-2.01-4.46c-.2-1.43-.2-3.19-.2-5.14v-7.9l.14-4.64"/></svg>