<svg xmlns="http://www.w3.org/2000/svg" fill="none" viewBox="0 0 36 36" xmlns:v="https://vecta.io/nano"><g fill="#8f9bb3"><path opacity=".4" d="M17.49 3.03c-2.51 0-4.92.22-7.15.62l-.18.03c-2.55.45-4.25.75-5.71 2.42C2.99 7.74 2.99 9.64 3 12.59v2.83c0 2.95 0 4.86 1.44 6.49 1.47 1.66 3.17 1.98 5.73 2.43l.18.03c4.72.84 9.58.84 14.3 0l.17-.03c2.56-.45 4.26-.76 5.72-2.42C32 20.28 32 18.37 32 15.42V12.6c0-2.95 0-4.86-1.46-6.5-1.46-1.66-3.16-1.98-5.72-2.42l-.18-.04A41 41 0 0 0 17.5 3"/><path fill-rule="evenodd" d="M26.96 20h.1l2.96.1c.8.11 1.47.34 2 .88.54.53.77 1.2.88 2 .1.78.1 1.75.1 2.97v.1L32.9 29a3.3 3.3 0 0 1-.88 2.01c-.53.54-1.2.77-2 .88-.77.1-1.75.1-2.97.1h-.1c-1.21 0-2.19 0-2.96-.1a3.3 3.3 0 0 1-2-.88 3.3 3.3 0 0 1-.88-2q-.15-1.5-.1-2.97v-.1l.1-2.96c.11-.8.34-1.48.88-2.01.53-.54 1.2-.77 2-.88.77-.1 1.75-.1 2.97-.1m-2.79 1.42c-.65.1-1 .25-1.24.5-.25.24-.41.6-.5 1.24a24 24 0 0 0-.09 2.84l.09 2.84c.09.65.25 1 .5 1.24.24.25.59.4 1.24.5.67.08 1.56.09 2.83.09l2.84-.1c.65-.08 1-.24 1.24-.49.25-.24.41-.6.49-1.24.09-.67.1-1.56.1-2.84l-.1-2.84c-.08-.65-.24-1-.49-1.24-.24-.25-.59-.4-1.24-.5-.67-.08-1.56-.09-2.84-.09zm4.17 2.42a.83.83 0 1 1 .24.58 1 1 0 0 1-.24-.59"/></g><path d="M32 28.76s-2.2.55-3.5 0c-1.44-.62-1.6-2.38-3-3.13C24.23 24.95 22 25 22 25" stroke="#8f9bb3"/><path d="m19.17 10.57-2.64-1.25c-1.15-.44-2.38-.49-3.39.27-.64.47-.86 1.14-.96 1.83a19 19 0 0 0 0 5.16c.09.69.32 1.36.95 1.84 1 .75 2.25.7 3.4.26q1.07-.4 2.64-1.25l2.45-1.33c.58-.37 1.13-.83 1.31-1.52q.15-.58 0-1.16c-.18-.69-.73-1.15-1.31-1.53-.77-.5-1.62-.9-2.45-1.33" fill="#8f9bb3"/></svg>