<svg xmlns="http://www.w3.org/2000/svg" fill="none" viewBox="0 0 64 64" xmlns:v="https://vecta.io/nano"><path fill="#8798ad" d="M22.2 42.7H30v8q.1 1.8 2 2.1h.1q.9 0 1.4-.5.7-.7.7-1.6v-8h7.7a2.2 2.2 0 0 0 .1-4.3h-7.8v-8c0-1.2-1-2.1-2.1-2.1a2 2 0 0 0-1.5.6q-.6.7-.6 1.5v8h-7.7c-1.2 0-2.1 1-2.1 2.1q0 .9.6 1.6.7.6 1.5.6m38.3-32.4c-2.8-3.1-6.7-5-10.9-5h-1V2.7a2.2 2.2 0 0 0-4.5 0v2.6h-10V2.7c0-1.2-1-2.2-2.2-2.2q-2 .2-2.2 2.2v2.6H18.5V2.8a2.2 2.2 0 0 0-4.4 0v2.7h-.6q-6.1.4-10.1 5A14 14 0 0 0 0 19.4V46c0 9.6 7.8 17.3 17.3 17.3h29.3C56.2 63.3 64 55.5 64 46V19.5q0-5.2-3.4-9.2M60.1 46c0 7.5-6 13.5-13.5 13.5H17.3A13.5 13.5 0 0 1 4 46V23.6h56zM4 19.5A10 10 0 0 1 14 9.2V13a2.2 2.2 0 0 0 4.4 0V9.2h11.2V13a2.2 2.2 0 0 0 4.4 0V9.2h10.1V13a2.2 2.2 0 0 0 4.4 0V9.2h1.2c5.7 0 10.3 4.6 10.3 10.3z"/></svg>