<svg xmlns="http://www.w3.org/2000/svg" fill="#ff4e85" viewBox="0 0 28 15" xmlns:v="https://vecta.io/nano"><path opacity=".4" d="M27.54 14.56a1.5 1.5 0 0 0 0-2.13L19.7 4.85a22 22 0 0 0-1.72-1.56 4 4 0 0 0-2.78-.87c-.84.07-1.51.44-2.08.87-.52.4-1.1.95-1.73 1.56L9.81 6.3a.74.74 0 0 1-1 0c-.36-.27-.8-.7-1.52-1.39L2.62.41A1.6 1.6 0 0 0 .46.43a1.5 1.5 0 0 0-.04 2.09L5.15 7.1l1.73 1.56c.78.63 1.77.94 2.78.88a4 4 0 0 0 2.08-.88c.52-.4 1.09-.95 1.72-1.56q.75-.76 1.58-1.44c.18-.13.62-.32 1 0 .36.27.8.7 1.51 1.38l7.8 7.52a1.6 1.6 0 0 0 2.2 0"/><path fill-rule="evenodd" d="M17.1 13.5q0 .62.45 1.06.47.43 1.1.44h7.8c.4 0 .8-.16 1.1-.44.29-.28.45-.67.45-1.07v-7.5q0-.62-.46-1.07a1.6 1.6 0 0 0-2.2 0q-.46.45-.46 1.07V12h-6.23q-.63.01-1.1.44c-.29.28-.45.67-.45 1.06"/></svg>