<svg xmlns="http://www.w3.org/2000/svg" fill="#8f9bb3" viewBox="0 0 36 36" xmlns:v="https://vecta.io/nano"><path opacity=".4" d="m29.37 23.48-.39 4.57a7 7 0 0 1-1.1 3.13 7 7 0 0 1-2.14 2.02c-.92.56-1.94.8-3.16.92H13.4a7 7 0 0 1-3.16-.93 7 7 0 0 1-2.13-2.02 7 7 0 0 1-1.1-3.13 50 50 0 0 1-.4-4.57L5.62 7.13h24.75z"/><path fill-rule="evenodd" d="M14.25 26.95a1.1 1.1 0 0 1-1.12-1.13v-9a1.13 1.13 0 0 1 2.24 0v9c0 .62-.5 1.13-1.12 1.13m7.5-11.25c.62 0 1.13.5 1.13 1.12v9a1.13 1.13 0 0 1-2.25 0v-9a1.1 1.1 0 0 1 1.12-1.12M20.02 1.92a4.5 4.5 0 0 1 2.33.85q.73.58 1.16 1.34.4.7.87 1.7l.64 1.32h6.48a1.5 1.5 0 0 1 0 3h-27a1.5 1.5 0 1 1 0-3h6.61l.54-1.17q.45-1.03.86-1.76c.3-.52.64-1 1.15-1.4q1.06-.77 2.37-.87A18 18 0 0 1 18 1.88q1.16-.01 2.02.04m-5.6 5.2h7.27a19 19 0 0 0-.76-1.47 1.4 1.4 0 0 0-1.18-.74c-.39-.03-.9-.03-1.7-.03l-1.74.03c-.56.05-.91.27-1.2.77-.19.33-.39.77-.7 1.45"/></svg>