<svg xmlns="http://www.w3.org/2000/svg" fill="none" viewBox="0 0 170 170" xmlns:v="https://vecta.io/nano"><g clip-path="url(#A)"><path d="M120 0H50a50 50 0 00-50 50v70a50 50 0 00 50 50h70a50 50 0 00 50-50V50a50 50 0 00-50-50Z" fill="#ff4e85"/><g fill="#fff"><use href="#B"/><use href="#B"/><use href="#C"/><use href="#C"/></g></g><defs><clipPath id="A"><path d="M0 0h170v170H0" fill="#fff"/></clipPath><path id="B" d="M124 113 57 46a8 8 0 00-10 10l66 68a8 8 0 00 10-10Z"/><path id="C" d="m57 124 67-67a7 7 0 10-10-10l-68 66a7 7 0 10 10 10Z"/></defs></svg>