<svg xmlns="http://www.w3.org/2000/svg" fill="#fff" viewBox="0 0 36 36" xmlns:v="https://vecta.io/nano"><path fill-rule="evenodd" d="M20.02 1.92a4.5 4.5 0 0 1 2.33.85q.73.58 1.16 1.34.4.7.87 1.7l.64 1.32h6.48a1.5 1.5 0 0 1 0 3h-27a1.5 1.5 0 1 1 0-3h6.61l.54-1.17q.45-1.03.86-1.76c.3-.52.64-1 1.15-1.4q1.06-.77 2.37-.87A18 18 0 0 1 18 1.88q1.16-.01 2.02.04m-5.6 5.2h7.27a19 19 0 0 0-.76-1.47 1.4 1.4 0 0 0-1.18-.74c-.39-.03-.9-.03-1.7-.03l-1.74.03c-.56.05-.91.27-1.2.77-.19.33-.39.77-.7 1.45m18.15 13.93a1.5 1.5 0 0 1 0 2.13l-4.19 4.18 4.2 4.2a1.5 1.5 0 0 1-2.13 2.12l-4.19-4.2-4.19 4.2a1.5 1.5 0 1 1-2.12-2.13l4.19-4.18-4.2-4.2a1.5 1.5 0 0 1 2.13-2.12l4.19 4.2 4.19-4.2a1.5 1.5 0 0 1 2.12 0"/><path opacity=".4" d="M13.37 34a7 7 0 0 1-3.19-.92 7 7 0 0 1-2.13-2.01 7 7 0 0 1-1.12-3.12 50 50 0 0 1-.39-4.55L5.65 8.7c-.04-.74-.06-1.11.16-1.35s.6-.24 1.35-.24h21.68c.75 0 1.13 0 1.35.24s.2.6.15 1.36l-.57 9.33c-.02.35-.03.53-.1.66-.06.13-.25.3-.61.62l-.15.14L27.36 21c-.5.5-.75.75-1.06.75s-.57-.25-1.07-.75l-1.55-1.54a3.8 3.8 0 0 0-6.14 1.2 3.7 3.7 0 0 0 .81 4.1l1.55 1.54c.5.5.75.75.75 1.07 0 .3-.25.56-.75 1.06l-1.55 1.53c-.9.9-1.25 2.12-1.05 3.28.07.44.11.66.02.77s-.29.1-.68.1q-1.92 0-3.27-.11"/></svg>