<svg xmlns="http://www.w3.org/2000/svg" fill="none" viewBox="0 0 26 26" xmlns:v="https://vecta.io/nano"><path stroke="#5bbd76" stroke-linecap="round" stroke-linejoin="round" stroke-width="2" d="M11.02 18.84c1.1-.16 2.23 0 3.35-.02 2.59-.06 4.61-2.23 6.59-3.7 1-.75 2.41-.65 3.3.23a2.5 2.5 0 0 1 0 3.56c-2.13 2.12-4 4.08-6.89 5.2-4 1.53-7.72.79-11.77 0a23 23 0 0 0-4.6-.33m10.02-4.99h2.19c1.56 0 2.82-1.1 2.82-2.65a2.7 2.7 0 0 0-2.14-2.63c-1.8-.44-3.59-.8-5.47-.75-2.97.07-5.06 1.71-7.42 3.28m22.17-1.42-.02-8.7c0-3.16-1.57-4.93-4.77-4.92l-10.1.02c-3.2 0-4.69 1.78-4.68 4.95l.02 8.36M16.08 1l.01 7.22-2.7-.87-2.71.89-.01-7.22"/></svg>