<svg xmlns="http://www.w3.org/2000/svg" fill="#8f9bb3" viewBox="0 0 64 64"><path opacity=".4" d="M36.3 3.3q8-.1 13 .5a13 13 0 0 1 8.1 3.6q3 3.3 3.2 8.3.3 4.9-.4 12.8l-.4 6a25 25 0 0 1-1.4 8.9 13 13 0 0 1-7.3 6.8c-2.2.8-4.9.8-9.1.8q-1.5 0-1.6.3L29 58.8l-2.4 1.4c-.7.4-1.9.8-3.1.1a3 3 0 0 1-1.7-2.6l-.1-2.8v-2.5c0-1.2-1.2-1.5-1.7-1.4q-3.3 0-5-.3a13 13 0 0 1-10.1-9.3q-.5-1.7-.6-5l-.5-8q-.7-7.8-.4-12.7.3-5 3.2-8.3a13 13 0 0 1 8.2-3.6q4.9-.6 13-.5z"/><path fill-rule="evenodd" d="M40.6 19.6c-1 1.1-.8 2.8.3 3.8l3.3 2.8.6.5-.6.5-3.3 2.8a2.7 2.7 0 1 0 3.5 4l3.3-2.8 1.8-1.7c.5-.6 1.2-1.5 1.2-2.8s-.7-2.3-1.2-2.9l-1.7-1.6h-.1l-3.3-2.9c-1.1-1-2.8-.8-3.8.3m-17.2 0c1 1.1.8 2.8-.3 3.8l-3.3 2.8-.6.5.6.5 3.3 2.8a2.7 2.7 0 0 1-3.5 4l-3.3-2.8-1.8-1.7a4 4 0 0 1-1.2-2.8c0-1.3.7-2.3 1.2-2.9l1.7-1.6h.1l3.3-2.9c1.1-1 2.8-.8 3.8.3m12.1-3.5c1.4.5 2.2 2 1.7 3.4l-5.3 16a2.7 2.7 0 0 1-5.1-1.7l5.3-16c.5-1.4 2-2.1 3.4-1.7"/></svg>