<svg xmlns="http://www.w3.org/2000/svg" fill="none" viewBox="0 0 466 250" xmlns:v="https://vecta.io/nano"><path fill="#8f9bb360" d="M11 14.8c2-1.8 2.4-4.8 1.3-7.6C10.8 3.7 7 2 3.7 3.4s-4.6 5.5-3 9a7 7 0 0 0 6.2 4.4c-4.6 3-5.3 7.2-5 10.5.3 2.7 3.3 3.8 5.7 2.7l12.6-5.7c2.4-1 3.5-3.9 1.9-6-2.1-2.5-5.7-5-11-3.6M388 181.9c5-.6 9.5-4.4 11-10 2.2-7.3-1.5-14.8-8.1-16.8s-13.7 2.2-15.8 9.5a14 14 0 0 0 4.2 14.6c-13.6-1.9-20.1 7.9-22.8 13.9-1.1 2.4.4 5 2.9 5.8l34.6 10.6c2.6.8 5.3-.7 5.7-3.4 1-6.6.6-18.4-11.7-24.2M30.6 95.7c2.4 0 .7 4.3 2.7 5.7 1.9 1.4 5.2-1.3 6 .9s-3.6 2.1-4.3 4.4 3 4.7 1 6.1-3-3-5.4-2.9c-2.4 0-3.3 4.3-5.3 3s1.7-3.9 1-6.2c-.8-2.3-5.2-2.1-4.4-4.4.8-2.2 4 .4 6-1s.3-5.6 2.7-5.6m81.4 14.9q-1.6 0-2.4-1.4l-4-6.4c-3.3-1-6-4.3-6-8.1V78c0-5 4-9.1 8.9-9.1h28.7a9 9 0 0 1 8.8 9v15.6c0 5-4 9-8.8 9h-21.4a1 1 0 0 0-1 1v4.2a3 3 0 0 1-2 2.8zm-3.5-35.8a3 3 0 0 0-3.1 3.2v16.6c.1 2.4.1 2.4 2.1 2.4 1 0 1 3 2 3 1.3 0 1.4-3 2.5-3h25.2c1.7 0 3-1.6 3-3.4V78c0-1.8-1.3-3.2-3-3.2zm4.7 14.1a2.5 2.5 0 0 1-2.4-2.6q0-2.3 2.4-2.5c2.3-.2 2.5 1.1 2.5 2.5s-1.1 2.6-2.5 2.6m9.4 0c1.3 0 2.4-1.2 2.4-2.6q0-2.3-2.4-2.5a2.5 2.5 0 0 0-2.5 2.5c0 1.4 1 2.6 2.5 2.6m9.4 0c1.3 0 2.4-1.2 2.4-2.6s-1.1-2.5-2.5-2.5a2.5 2.5 0 0 0-2.5 2.5c0 1.4 1 2.6 2.5 2.6m321.3 10c3.5 0 1 6 3.9 8 2.7 2 7.5-1.9 8.6 1.3s-5.2 3-6.2 6.3 4.3 6.8 1.4 8.8c-2.8 2-4.3-4.1-7.7-4.1s-5 6-7.7 4.1c-2.9-2 2.5-5.5 1.5-8.8s-7.4-3-6.2-6.3c1.1-3.2 5.8.8 8.6-1.2s.3-8 3.8-8.1m-77.6-19.1q-.7 0-1.5-.4-.6-.3-1-1l-11.6-12.2a10 10 0 0 0-7.3-3.2H238c-4.6 0-8.2-4.2-8.2-9V8.7q.2-3.5 2.5-6.2a8 8 0 0 1 6-2.5l140.8.1c4.6 0 8.4 4 8.4 8.8v45.3a9 9 0 0 1-8.7 8.9q-.3 0-.4.3V77q0 1.8-1.7 2.6-.6.3-1 .2m-137.3-74q-1.2 0-2 .8a3 3 0 0 0-1 2.1v45.4a3 3 0 0 0 3 3L360 57q1 0 2 1l4.4 4.8c2.3 2.6 6.4 1 6.5-2.4a3.4 3.4 0 0 1 3.1-3.3h3a3 3 0 0 0 2.9-2.9V8.9a3 3 0 0 0-2.9-3zm24.2 42.3c-9.2 0-16.7-7.6-16.7-17.1a17 17 0 0 1 16.7-17.1A17 17 0 0 1 279.2 31a17 17 0 0 1-16.6 17.1m0-28.4c-6.1 0-11 5-11 11.3s4.9 11.4 11 11.4 11-5.1 11-11.4-5-11.3-11-11.3M367.3 45c0 1.6-1.3 2.9-2.9 2.9l-30.4-.2a2.9 2.9 0 1 1 0-5.8l30.5.3c1.5 0 2.8 1.3 2.8 2.8m0-12.3c0 1.6-1.2 2.9-2.8 2.9L297 35a2.8 2.8 0 0 1 0-5.7l67.4.5q2.6.2 2.8 2.8m.1-12.6c0 1.6-1.3 2.9-2.9 2.9l-67.3-.5a2.8 2.8 0 0 1 0-5.7l67.4.5c1.5 0 2.8 1.3 2.8 2.8M64.6 250l-1.1-.2q-1.6-.8-1.8-2.7v-20.9q0-.3-.3-.3c-6.7 0-12.2-5.6-12.1-12.5V150q0-5 3.6-8.8a12 12 0 0 1 8.6-3.6l199.9.3q5 0 8.5 3.7 3.4 3.7 3.6 8.8l-.1 63.4c0 6.8-5.5 12.4-12.1 12.4L92.9 226a10 10 0 0 0-7.3 3.1l-19.1 20.1q-1 .8-2 .8m-3.1-106.6q-2.7 0-4.6 2a6 6 0 0 0-2 4.7v63.3c0 3.7 2.9 6.7 6.5 6.7h3.2a3 3 0 0 1 2 .9q.8.8.8 2c0 6.2 7.5 9.2 11.7 4.7l6.5-6.7q.8-.8 2-.8l173.6.2q2.7 0 4.6-2 1.9-1.9 2-4.7v-63.3q0-2.8-2-4.8a6 6 0 0 0-4.5-2zM79.8 195a3 3 0 1 0 0 6l46 .1a3 3 0 1 0 0-6zm0-14.9a3 3 0 1 0 0 6l99 .2a3 3 0 1 0 0-6zm0-15.3a3 3 0 1 0 0 6l99 .1a3 3 0 1 0 0-6z"/></svg>