<svg xmlns="http://www.w3.org/2000/svg" fill="none" viewBox="0 0 32 32" stroke="#8f9bb3" stroke-width="1.5" stroke-linecap="round" stroke-linejoin="round" xmlns:v="https://vecta.io/nano"><path d="M9.6 20.85a19 19 0 0 1-4.81-3.32q-1.57-1.53 0-3.05a19 19 0 0 1 4.8-3.33q1.92-.68 2.26 1.74Q12 14.4 12 16t-.15 3.11q-.33 2.41-2.26 1.74m12.81 0a18 18 0 0 0 4.81-3.32q1.57-1.53 0-3.05a19 19 0 0 0-4.8-3.33q-1.93-.68-2.26 1.74Q20 14.4 20 16t.15 3.11q.33 2.41 2.26 1.74"/><path opacity=".4" d="M16 8v16"/></svg>