<svg xmlns="http://www.w3.org/2000/svg" fill="none" viewBox="0 0 32 32" stroke="#8f9bb3" stroke-width="1.5" stroke-linecap="round" stroke-linejoin="round" xmlns:v="https://vecta.io/nano"><path d="M11.15 9.6c.7-1.59 2.17-3.66 3.32-4.81q1.53-1.57 3.05 0a19 19 0 0 1 3.33 4.8q.68 1.92-1.74 2.26Q17.6 12 16 12t-3.11-.15q-2.41-.33-1.74-2.26m0 12.81a18 18 0 0 0 3.32 4.81q1.53 1.57 3.05 0a19 19 0 0 0 3.33-4.8q.68-1.93-1.74-2.26Q17.6 20 16 20t-3.11.15q-2.41.33-1.74 2.26"/><path opacity=".4" d="M24 16H8"/></svg>