<svg xmlns="http://www.w3.org/2000/svg" fill="#8f9bb3" viewBox="0 0 36 36" xmlns:v="https://vecta.io/nano"><path opacity=".4" d="M17.7 1.88h-1.66l-6.65.22c-1.76.24-3.18.74-4.3 1.86-1.13 1.12-1.62 2.55-1.86 4.3C3 9.99 3 12.17 3 14.93v6.16l.23 6.65c.24 1.76.73 3.19 1.86 4.3 1.12 1.13 2.54 1.63 4.3 1.87 1.71.23 3.9.23 6.65.23h1.05a3 3 0 0 1-.21-1.13v-1.95c0-.45-.01-1.3.34-2.16.35-.84.96-1.45 1.28-1.76l7.5-7.5c.29-.3.82-.83 1.5-1.16a4.5 4.5 0 0 1 3.25-.3v-3.25l-.23-6.65c-.24-1.76-.73-3.19-1.86-4.3-1.12-1.13-2.54-1.63-4.3-1.87a55 55 0 0 0-6.65-.23"/><path fill-rule="evenodd" d="M9.38 10.5c0-.83.67-1.5 1.5-1.5h12a1.5 1.5 0 1 1 0 3h-12a1.5 1.5 0 0 1-1.5-1.5m0 7.5c0-.83.67-1.5 1.5-1.5h9a1.5 1.5 0 1 1 0 3h-9a1.5 1.5 0 0 1-1.5-1.5"/><path d="M28.33 20.15c.73-.37 1.6-.37 2.33 0 .4.2.9.7 1.22 1.02s.65.65.85 1.05c.36.73.36 1.6 0 2.33-.2.4-.53.73-.85 1.05l-7.4 7.4c-.35.35-.73.72-1.22.93-.49.2-1.01.2-1.5.2h-1.88c-.63 0-1.13-.5-1.13-1.13v-1.88c0-.49 0-1.02.2-1.5.2-.5.58-.87.92-1.21L27.28 21c.32-.32.65-.66 1.05-.85"/></svg>