<svg xmlns="http://www.w3.org/2000/svg" fill="none" viewBox="0 0 36 36" xmlns:v="https://vecta.io/nano"><path opacity=".4" d="m14.81 21.25-.95.03c-.23.03-1.2.13-1.66.98-.48.85.04 1.6.14 1.77l.57.7.05.04 1.79 1.88a6 6 0 0 0 1.08.83c.34.22.94.52 1.67.52s1.32-.3 1.67-.52a7 7 0 0 0 1.08-.83q.96-.9 1.79-1.88l.04-.04.57-.7c.1-.17.63-.92.15-1.77-.45-.85-1.43-.95-1.64-.98-.3-.03-.68-.03-.97-.03h-.86v-6.5h.86l.95-.03q.54-.04.98-.3.45-.26.68-.68c.48-.85-.04-1.6-.14-1.77-.17-.23-.4-.49-.58-.7l-.04-.04a25 25 0 0 0-1.79-1.88q-.5-.45-1.08-.83A3 3 0 0 0 17.5 8c-.73 0-1.32.3-1.67.52q-.58.37-1.08.83-.96.9-1.79 1.88l-.04.04-.57.7c-.1.17-.63.92-.15 1.77.45.85 1.43.95 1.64.98.3.03.68.03.97.03l.86.03v6.5z" fill="#8f9bb3"/><path d="M3 4h30M3 32h30" stroke="#8f9bb3" stroke-width="5" stroke-linecap="round"/></svg>