<svg xmlns="http://www.w3.org/2000/svg" fill="#8f9bb3" viewBox="0 0 36 36" xmlns:v="https://vecta.io/nano"><path opacity=".4" d="M11.239 24.761c.475.475 1.04.628 1.484.688.381.051.832.051 1.253.051h2.797a1.5 1.5 0 0 0 1.231-2.355l-.059-.062-.817-.817c-.3-.3-.45-.45-.45-.637s.15-.336.45-.636l3.356-3.355c.189-.19.283-.284.395-.316s.26.003.558.072q.308.069.621.111c.893.12 2.016.12 3.364.12h1.656l3.364-.12c.942-.126 1.792-.405 2.475-1.088s.962-1.534 1.088-2.475c.12-.892.12-2.016.12-3.364V8.922l-.12-3.364c-.126-.941-.405-1.792-1.088-2.475s-1.533-.962-2.475-1.088c-.892-.12-2.016-.12-3.364-.12h-1.656l-3.364.12c-.941.126-1.792.405-2.475 1.088s-.961 1.534-1.088 2.475c-.12.892-.12 2.016-.12 3.364v1.656l.12 3.364q.042.32.111.621c.07.297.104.446.072.558s-.127.207-.316.395l-3.355 3.356c-.3.3-.45.45-.636.45s-.337-.15-.637-.45l-.816-.817a.5.5 0 0 0-.12-.098 1.5 1.5 0 0 0-2.298 1.27v2.797l.05 1.253c.06.444.214 1.01.689 1.484"/><path fill-rule="evenodd" d="M22.398 32.659c0 .81-.657 1.466-1.466 1.466h-5.864a1.466 1.466 0 0 1 0-2.932h5.864c.81 0 1.466.656 1.466 1.466m-12.476.122a1.466 1.466 0 0 1-1.66 1.241c-1.731-.25-3.188-.77-4.35-1.933s-1.684-2.62-1.934-4.35a1.466 1.466 0 1 1 2.901-.42c.202 1.393.56 2.15 1.105 2.697s1.304.903 2.697 1.105a1.464 1.464 0 0 1 1.241 1.66m16.156 0a1.466 1.466 0 0 1 1.24-1.66c1.393-.202 2.152-.56 2.698-1.105s.903-1.304 1.105-2.697a1.466 1.466 0 1 1 2.901.42c-.25 1.73-.77 3.187-1.933 4.35s-2.62 1.683-4.35 1.933a1.465 1.465 0 0 1-1.661-1.241m6.581-8.184c-.81 0-1.466-.657-1.466-1.466v-2.932a1.466 1.466 0 0 1 2.932 0v2.932c0 .81-.656 1.466-1.466 1.466M3.341 22.396c-.81 0-1.466-.656-1.466-1.465v-5.864a1.466 1.466 0 1 1 2.932 0v5.864c0 .81-.657 1.465-1.466 1.465M3.219 9.923a1.466 1.466 0 0 1-1.241-1.66c.25-1.731.77-3.188 1.933-4.35s2.62-1.684 4.35-1.934a1.466 1.466 0 0 1 .42 2.901c-1.393.202-2.15.56-2.697 1.105s-.903 1.304-1.105 2.697a1.466 1.466 0 0 1-1.66 1.241M16.5 3.341c0 .81-.656 1.466-1.466 1.466h-2.165a1.466 1.466 0 1 1 0-2.932h2.165c.81 0 1.466.656 1.466 1.466"/></svg>