<svg fill="none" xmlns="http://www.w3.org/2000/svg" viewBox="0 0 36 36"><path opacity=".4" d="M3.38 12c0-.62.5-1.12 1.12-1.12h27c.62 0 1.13.5 1.13 1.12v7.59l-.23 6.64c-.24 1.76-.74 3.19-1.86 4.3-1.12 1.13-2.55 1.63-4.3 1.87-1.72.23-3.9.23-6.66.23h-3.16c-2.76 0-4.95 0-6.65-.23-1.76-.24-3.19-.74-4.3-1.86-1.13-1.12-1.63-2.55-1.86-4.3-.23-1.71-.23-3.9-.23-6.65z" fill="#8F9BB3"/><path fill-rule="evenodd" clip-rule="evenodd" d="M15.8 16.45a1.13 1.13 0 0 1 0 1.6l-1.08 1.07H21a4.12 4.12 0 0 1 0 8.25h-1.5a1.12 1.12 0 1 1 0-2.25H21a1.87 1.87 0 1 0 0-3.75h-6.28l1.08 1.08a1.13 1.13 0 1 1-1.6 1.6l-3-3a1.1 1.1 0 0 1 0-1.6l3-3a1.1 1.1 0 0 1 1.6 0" fill="#8F9BB3"/><path d="m22.68 3.38 3.07.08c.88.08 1.69.26 2.45.7a5 5 0 0 1 1.72 1.77c.42.66.81 1.5 1.28 2.48l1.3 2.75q.15.34.12.71a1.1 1.1 0 0 0-1.12-1h-2.35l-.59-1.24-1.15-2.28a2 2 0 0 0-.75-.81 3 3 0 0 0-1.2-.31c-.68-.07-1.55-.07-2.86-.07h-3.1v4.72h-3V6.16h-3.11l-2.85.07a3 3 0 0 0-1.2.3c-.23.14-.46.35-.75.83-.32.5-.65 1.2-1.16 2.26l-.59 1.26H4.5c-.58 0-1.06.43-1.12.99q-.04-.37.12-.71l1.3-2.75 1.27-2.48A5 5 0 0 1 7.8 4.17a6 6 0 0 1 2.45-.71c.83-.08 1.85-.08 3.07-.08z" fill="#8F9BB3"/></svg>