<svg xmlns="http://www.w3.org/2000/svg" fill="none" viewBox="0 0 25 25" xmlns:v="https://vecta.io/nano"><path d="m17.7 24.3-1.4-.4-3.6-2a1 1 0 0 0-1.1 0l-3.7 2a3 3 0 0 1-3.7-.7 3 3 0 0 1-.7-2.4l.7-4.1a1 1 0 0 0-.3-1l-3-3a3 3 0 0 1 1.7-5l4-.7a1 1 0 0 0 1-.6l1.8-3.8a3 3 0 0 1 5.4 0l1.8 3.8a1 1 0 0 0 1 .6l4 .6a3 3 0 0 1 1.7 5.1l-3 3a1 1 0 0 0-.3 1l.7 4a3 3 0 0 1-3 3.6M12.1 20q.8 0 1.4.3l3.7 2h.5a1 1 0 0 0 1.2-.8V21l-.7-4.1a3 3 0 0 1 .9-2.7l3-2.9a1.2 1.2 0 0 0-.7-2l-4.1-.6A3 3 0 0 1 15 7.2l-1.8-3.8a1.2 1.2 0 0 0-2.2 0L9.2 7.2a3 3 0 0 1-2.3 1.6l-4 .6a1.2 1.2 0 0 0-.7 2l3 3A3 3 0 0 1 6 17l-.7 4a1 1 0 0 0 .3 1 1 1 0 0 0 .9.5q.3 0 .5-.2l3.7-2z" fill="#8798ad"/></svg>