<svg xmlns="http://www.w3.org/2000/svg" width="36" height="36" fill="#8f9bb3" xmlns:v="https://vecta.io/nano"><path opacity=".3" d="M33.375 17.914v.172l-.27 7.882c-.278 2.065-.86 3.703-2.146 4.99s-2.926 1.869-4.991 2.146c-2.015.271-4.596.271-7.882.271h-.172c-3.286 0-5.867 0-7.882-.27-2.065-.278-3.703-.86-4.99-2.146s-1.868-2.926-2.146-4.991c-.271-2.015-.271-4.596-.271-7.882v-.172l.27-7.882c.279-2.065.86-3.703 2.146-4.99s2.926-1.868 4.991-2.146c2.015-.271 4.596-.271 7.882-.271h.172l7.882.27c2.065.279 3.703.859 4.99 2.146s1.868 2.926 2.146 4.991c.271 2.015.271 4.596.271 7.882z"/><path fill-rule="evenodd" d="M25.5 17.991a1.5 1.5 0 0 0-1.5-1.5h-6.75v-.874l-.033-.851v-.005c-.024-.19-.132-1.054-.98-1.465s-1.6.04-1.763.138l-.006.004c-.23.138-.486.34-.697.505l-.045.035-1.877 1.586c-.292.285-.594.61-.832.957-.212.308-.517.833-.517 1.479s.305 1.171.517 1.48a6.6 6.6 0 0 0 .833.956c.586.57 1.312 1.144 1.876 1.586l.045.035.697.505.006.004c.162.098.913.55 1.763.139s.956-1.276.98-1.466v-.005c.034-.264.033-.588.033-.851v-.892H24a1.5 1.5 0 0 0 1.5-1.5z"/></svg>