<svg fill="none" xmlns="http://www.w3.org/2000/svg" viewBox="0 0 36 36"><path d="M10.92 9.33a1.1 1.1 0 0 0-1.43-.14 28 28 0 0 0-6.8 6.84c-.38.52-.8 1.13-.8 1.97s.5 1.56.88 2.09a29 29 0 0 0 5.51 5.84c2.56 2 5.86 3.7 9.72 3.7 3.27 0 6.15-1.23 8.5-2.82a1.12 1.12 0 0 0 .17-1.73l-4.15-4.15-.77.77a5.27 5.27 0 1 1-7.46-7.45l.78-.77z" fill="#8F9BB3"/><path opacity=".4" d="M13.78 7.06A14 14 0 0 1 18 6.38c3.86 0 7.16 1.7 9.72 3.7a29 29 0 0 1 5.5 5.83c.39.53.9 1.25.9 2.1 0 .83-.43 1.44-.81 1.96a32 32 0 0 1-3.36 4c-.44.42-1.15.42-1.6 0L13.34 8.9a1.12 1.12 0 0 1 .45-1.86" fill="#8F9BB3"/><path fill-rule="evenodd" clip-rule="evenodd" d="M3.44 3.44a1.5 1.5 0 0 1 2.12 0l27 27a1.5 1.5 0 1 1-2.12 2.12l-27-27a1.5 1.5 0 0 1 0-2.12" fill="#8F9BB3"/></svg>