<svg xmlns="http://www.w3.org/2000/svg" fill="none" viewBox="0 0 55 63"><path fill-rule="evenodd" d="M30 30h-.6v-8.4h10.2zm.4 10.7h-5.7a1.9 1.9 0 1 1 0-3.8h5.7c1 0 1.9.9 1.9 2q-.2 1.6-1.9 1.8m-15-19.1h10.3V30h-.4l-.1-.1zm31.3-4.8A19.5 19.5 0 0 0 27.6.4C18 .4 9.9 7.4 8.4 16.8a6 6 0 0 0 2.4 5.7l9 7.7c-3.7.6-6 3.5-6 7.5v8c0 4.5 3 7.6 7.3 7.6h13q3-.1 5.1-2a8 8 0 0 0 2.2-5.7v-8c0-4-2.5-6.8-6-7.4l8.7-7.6a6 6 0 0 0 2.6-5.8" fill="url(#a)"/><g opacity=".4"><path d="M.4 44.6v-.3q.3-1.8 2.2-2 2 .2 2.2 2v8c0 1.2-1 2.3-2.2 2.3s-2.2-1-2.2-2.3z" fill="url(#b)"/><path d="M40.1 57.2V57q.3-2.2 2.4-2.4 2 .1 2.3 2.4v3c0 1.5-1 2.7-2.3 2.7S40 61.6 40 60z" fill="url(#c)"/><path d="M49.5 30.8v-.2a2.3 2.3 0 0 1 4.6 0v11.8a2.3 2.3 0 0 1-4.6 0z" fill="url(#d)"/></g><defs><linearGradient id="a" x1="27.6" y1=".4" x2="27.6" y2="53.3" href="#e"><stop stop-color="#5392ff"/><stop offset="1" stop-color="#1d70ff"/></linearGradient><linearGradient id="b" x1="40" y1="28.5" x2="40" y2="62.8" href="#e"><stop stop-color="#5392ff"/><stop offset="1" stop-color="#1d70ff"/></linearGradient><linearGradient id="c" x1="69.6" y1="28.5" x2="69.6" y2="62.8" href="#e"><stop stop-color="#5392ff"/><stop offset="1" stop-color="#1d70ff"/></linearGradient><linearGradient id="d" x1="49.5" y1="35.6" x2="54.1" y2="35.6" href="#e"><stop stop-color="#5392ff"/><stop offset="1" stop-color="#1d70ff"/></linearGradient><linearGradient id="e" gradientUnits="userSpaceOnUse"/></defs></svg>