<svg xmlns="http://www.w3.org/2000/svg" fill="none" viewBox="0 0 68 52"><g fill-rule="evenodd"><path d="M29 33.7A11.4 11.4 0 1 0 29 11a11.4 11.4 0 0 0 0 22.7" fill="url(#a)"/><path d="M29 36c-7.2 0-17 .8-17 7.7 0 7.7 12.9 7.7 17 7.7 7.4 0 17-.8 17-7.7C46 36 33.4 36 29 36" fill="url(#b)"/><g opacity=".4"><path d="M66.7 25a4 4 0 0 0-3.2-1.6H63a2 2 0 0 1-1.5-1.4 4 4 0 0 0-2.6-2.5c-2.5-.8-4.6 1.1-5.3 3.3-1 3.2.5 7.9 1.5 10.4h3.5c2.4-.3 5-.9 6.8-2.2a5 5 0 0 0 2-3.8 3 3 0 0 0-.7-2.2" fill="url(#c)"/><path d="M3.7 32.8Q4.2 31 6 30.5q.4-.2.4-.6t-.4-.5q-1.8-.6-2.3-2.3a.6.6 0 0 0-1 0 4 4 0 0 1-2.4 2.3.6.6 0 0 0 0 1q1.7.8 2.3 2.4 0 .3.5.4.5 0 .6-.4" fill="url(#d)"/><path d="M52.6 5.5A7 7 0 0 1 48 1a1 1 0 0 0-2 0 7 7 0 0 1-4.5 4.5 1 1 0 1 0 0 2A7 7 0 0 1 46 12a1 1 0 1 0 2 0 7 7 0 0 1 4.5-4.5 1 1 0 1 0 0-2" fill="url(#e)"/></g></g><defs><linearGradient id="a" x1="29.1" y1="55.5" x2="29.1" y2="82.9" href="#f"><stop stop-color="#5392ff"/><stop offset="1" stop-color="#1d70ff"/></linearGradient><linearGradient id="b" x1="29.1" y1="36" x2="29.1" y2="51.4" href="#f"><stop stop-color="#5392ff"/><stop offset="1" stop-color="#1d70ff"/></linearGradient><linearGradient id="c" x1="34" y1="0" x2="34" y2="33.2" href="#f"><stop stop-color="#5392ff"/><stop offset="1" stop-color="#1d70ff"/></linearGradient><linearGradient id="d" x1="32.5" y1="-.7" x2="32.5" y2="33.2" href="#f"><stop stop-color="#5392ff"/><stop offset="1" stop-color="#1d70ff"/></linearGradient><linearGradient id="e" x1="47.1" y1=".2" x2="47.1" y2="12.7" href="#f"><stop stop-color="#5392ff"/><stop offset="1" stop-color="#1d70ff"/></linearGradient><linearGradient id="f" gradientUnits="userSpaceOnUse"/></defs></svg>