<svg fill="none" xmlns="http://www.w3.org/2000/svg" viewBox="0 0 65 71"><path d="M30.8 14a21.4 21.4 0 1 1-10.6 39.9q-1.4-1.1-3.2-.7l-4.3 1.3c-1 .3-2-.6-1.8-1.7l1.5-4.8a3 3 0 0 0-.1-2 23 23 0 0 1-3-10.6A21.4 21.4 0 0 1 30.9 14m9.8 18.7a2.8 2.8 0 1 0 0 5.5 2.8 2.8 0 0 0 0-5.5m-9.9 0a2.7 2.7 0 0 0-2.7 2.7 2.7 2.7 0 1 0 4.7-2 3 3 0 0 0-2-.7m-9.8 0a2.8 2.8 0 1 0 0 5.5 2.8 2.8 0 0 0 0-5.5" fill="url(#a)"/><g opacity=".4" fill-rule="evenodd" clip-rule="evenodd"><path d="m62.6 69.4 2-13.7a2 2 0 0 0-2.6-2l-12.7 5.7a2 2 0 0 0-1.1 1.7c-.1 1.2.4 1.4 1.1 1.7l5 2.2q.9.4 1.5 1.2l3.4 4.1.3.3q.7.6 1.7.3a2 2 0 0 0 1.3-1.5" fill="url(#b)"/><path d="M7 1.4 1 8q-.5.6-.3 1.3t1 .8l9 1.5q.8.2 1.2-.5.6-1 0-1.3l-1.9-3a2 2 0 0 1-.4-1.2L9.2 2v-.3Q9 1.1 8.4.9a1 1 0 0 0-1.3.4" fill="url(#c)"/></g><defs><linearGradient id="a" x1="30.8" y1="14" x2="30.8" y2="56.7" gradientUnits="userSpaceOnUse"><stop stop-color="#5392FF"/><stop offset="1" stop-color="#1D70FF"/></linearGradient><linearGradient id="b" x1="30.7" y1="4" x2="40.3" y2="72.1" gradientUnits="userSpaceOnUse"><stop stop-color="#5392FF"/><stop offset="1" stop-color="#1D70FF"/></linearGradient><linearGradient id="c" x1="5.2" y1="11.9" x2="10.1" y2="1.8" gradientUnits="userSpaceOnUse"><stop stop-color="#5392FF"/><stop offset="1" stop-color="#1D70FF"/></linearGradient></defs></svg>