<svg xmlns="http://www.w3.org/2000/svg" fill="none" viewBox="0 0 50 45" xmlns:v="https://vecta.io/nano"><path d="M17.2 32.3V32l.4-.2h2.2a44 44 0 0 0 9 0h1l.3.2v.3l-.4 2.1q-.3 1.3-2.9 1.5h-6.3q-2.1-.2-2.6-1.3z" fill="url(#A)"/><g fill-rule="evenodd"><path d="m30.1 6.8-2 1a3.8 3.8 0 0 0 0 6.7l2.5 1.4q.3 0 .4.4l1.4 2.5c.7 1.4 2.2 2 3.6 2q-1 4.2-4.5 7l-.3 1.2q-.5 1.6-2.4 2a50 50 0 0 1-10.3 0q-1.7-.4-2.3-2l-.4-1.3a12.7 12.7 0 0 1 14.3-21" fill="url(#A)"/><path d="M37.6 5a1.6 1.6 0 0 0-2.8 0l-1.3 2.3q-.3.6-1.1 1.1L30 9.7a1.6 1.6 0 0 0 0 2.8l2.3 1.3q.8.3 1.1 1.1l1.3 2.4a1.6 1.6 0 0 0 2.8 0l1.3-2.4q.5-.8 1.2-1.1l2.3-1.3a1.6 1.6 0 0 0 0-2.8L40 8.4q-.8-.5-1.2-1.1zm8 28.7c-.5-1-1.7-1-2.2 0l-1 1.8q-.3.6-1 .9l-1.7 1c-1 .5-1 1.7 0 2.2l1.8 1q.6.3.9 1l1 1.8c.5.8 1.7.8 2.2 0l1-1.9q.3-.6 1-.9l1.7-1c1-.5 1-1.7 0-2.2l-1.8-1q-.6-.3-.9-.9zM3.8.4a.7.7 0 0 0-1.3 0l-.5 1-.6.6-1 .5c-.5.3-.5 1 0 1.3l1 .6q.4.2.6.5l.5 1c.3.6 1 .6 1.3 0l.6-1 .5-.5 1-.6q.9-.6 0-1.3L5 2q-.3-.2-.5-.6z" opacity=".6" fill="#2859c5"/></g><defs><linearGradient id="A" x1="23.5" y1="5" x2="23.5" y2="31.2" gradientUnits="userSpaceOnUse"><stop stop-color="#5392ff"/><stop offset="1" stop-color="#1d70ff"/></linearGradient></defs></svg>