<svg xmlns="http://www.w3.org/2000/svg" fill="none" viewBox="0 0 47 54"><g clip-path="url(#a)" fill-rule="evenodd"><path d="M11.2 33.8H4.6a3 3 0 0 0-3 2.9v13.9a3 3 0 0 0 3 2.9h6.6a3 3 0 0 0 3-3V36.8a3 3 0 0 0-3-3" fill="url(#b)"/><path d="M43.8 23.9h-6.6a3 3 0 0 0-3 2.9v23.8a3 3 0 0 0 3 2.9h6.6a3 3 0 0 0 3-3V26.9a3 3 0 0 0-3-3" fill="url(#c)"/><path d="M28.2 14h-8a3 3 0 0 0-2.9 2.8v34a3 3 0 0 0 3 2.8h7.9a3 3 0 0 0 3-2.9V16.8a3 3 0 0 0-1-2 3 3 0 0 0-2-.8" fill="url(#d)"/><g opacity=".4"><path d="M13.2 18.2v-.1l-.1-.4-.7-.7H8.9q-1 0-1.2 1.2 0 1 1 1.2L7.3 21l-1.5-1.6q-.9-.7-1.8 0l-2.7 2.7a1.3 1.3 0 0 0 .6 2.1q.8.2 1.2-.3l1.8-1.7 1.5 1.5q.9.7 1.8 0l2.5-2.4A1.3 1.3 0 0 0 13 21z" fill="url(#e)"/><path d="m43.8 9.9-2.6-1.6q-.8-.5-1.4 0l-2.6 1.6q-.6.4-.7 1.2v3q0 .9.7 1.3l2.6 1.5a1 1 0 0 0 1.4 0l2.6-1.5q.6-.4.7-1.2V11q0-.8-.7-1.2" fill="url(#f)"/><path d="M28.4 6.4 25.2 1q-.4-.5-1-.6t-1 .6l-3.1 5.5q-.3.6 0 1.2t1 .5h6.3q.6 0 1-.5.3-.6 0-1.2" fill="url(#g)"/></g></g><defs><linearGradient id="b" x1="82.7" y1="-26" x2="82.7" y2="53.8" href="#h"><stop stop-color="#5392ff"/><stop offset="1" stop-color="#1d70ff"/></linearGradient><linearGradient id="c" x1="-34.3" y1=".6" x2="-34.3" y2="53.7" href="#h"><stop stop-color="#5392ff"/><stop offset="1" stop-color="#1d70ff"/></linearGradient><linearGradient id="d" x1="24.2" y1="13.9" x2="24.2" y2="53.6" href="#h"><stop stop-color="#5392ff"/><stop offset="1" stop-color="#1d70ff"/></linearGradient><linearGradient id="e" x1="83.7" y1="-54.5" x2="83.7" y2="-28.9" href="#h"><stop stop-color="#5392ff"/><stop offset="1" stop-color="#1d70ff"/></linearGradient><linearGradient id="f" x1="-65.9" y1="-20.1" x2="-65.9" y2=".4" href="#h"><stop stop-color="#5392ff"/><stop offset="1" stop-color="#1d70ff"/></linearGradient><linearGradient id="g" x1="24.2" y1=".3" x2="24.2" y2="8.1" href="#h"><stop stop-color="#5392ff"/><stop offset="1" stop-color="#1d70ff"/></linearGradient><linearGradient id="h" gradientUnits="userSpaceOnUse"/><clipPath id="a"><path fill="#fff" d="M0 0h47v54H0z"/></clipPath></defs></svg>