<svg xmlns="http://www.w3.org/2000/svg" fill="none" viewBox="0 0 5900 5200" xmlns:v="https://vecta.io/nano"><g clip-path="url(#A)"><path d="M5775 2301h-329v-740h-310l-209 2v-392a156 156 0 00-311 0v394H4430a1723 1723 0 00-3430 16H782V1170a159 159 0 00-310 0v3693H138a158 158 0 00 2 313l5152-22a168 168 0 00 93-218c-17-43-50-76-94-93-120 0-242 0-363 2V1874h210v740h640a166 166 0 00 120-132c10-82-40-158-120-180h-4ZM4037 1233a2048 2048 0 00-1183-489V318c536 54 995 409 1183 914Zm-67 646a1726 1726 0 01-1116 583v-578l1116-5Zm-1116-306v-517c410 40 794 222 1086 512l-1086 5Zm1160 700a1417 1417 0 01-1160 856v-354c430-34 840-210 1160-500v-1ZM2930 3463v300h-463v-300h463Zm-388-338c-500-62-930-385-1127-849a1956 1956 0 00 1127 498v350Zm0-663a1726 1726 0 01-1073-569l1070-5v574Zm0-886-1068 5a1780 1780 0 01 1068-522v516Zm0-1250v420a2050 2050 0 00-1150 487 1414 1414 0 01 1150-910v2Zm175 4530h-36a148 148 0 01-132-148 150 150 0 11 300 0c0 76-57 140-132 147Zm387-3a431 431 0 10-837-144c0 51 10 101 28 148l-1513 7v-2970h220A1726 1726 0 00 2185 3360v682h1027v-671A1727 1727 0 00 4430 1875h185v2969l-1510 6-2 1Z" fill="#2977ff"/></g><defs><clipPath id="A"><path d="M0 0h5896v5176H0" fill="#fff"/></clipPath></defs></svg>