<svg xmlns="http://www.w3.org/2000/svg" fill="none" viewBox="0 0 240 240" xmlns:v="https://vecta.io/nano"><path d="M120 240H56A56 56 0 01 0 190v-85C0 86 8 70 22 60c20-17 42-33 64-50a55 55 0 01 56-6 10 10 0 01 3 15 10 10 0 01-10 2c-10-4-20-4-29 0L93 30l-60 45c-9 7-14 18-14 30v79A37 37 0 00 56 220h128c20 0 37-17 37-37v-41A10 10 0 11 240 140v43a56 56 0 01-56 56H120m12-67a10 10 0 00-3-18c-12 2-24 0-33-8L75 130l-22-17a10 10 0 00-15 6c0 4 0 8 4 10L83 160a60 60 0 00 38 14c4 0 7 0 11-2M240 97a26 26 0 01-41 16h-3A28 28 0 01 160 68 28 28 0 01 206 90c0 5 3 8 8 8 4 0 7-3 7-8a43 43 0 10-49 42c8 0 16 0 23-3 5-2 10 0 12 5 2 4 0 10-4 12h-1a62 62 0 11 37-50M187 90A10 10 0 00 170 90a10 10 0 00 18 0Z" fill="#cacfda"/></svg>