<svg xmlns="http://www.w3.org/2000/svg" fill="none" viewBox="0 0 300 310" xmlns:v="https://vecta.io/nano"><path d="M83 83V62l12-52H37L0 62v20c0 25 19 44 42 44s41-20 41-43zm180-73h-58l12 52v20c0 25 18 44 41 44s42-20 42-43V62l-37-52zM150 126c23 0 42-20 42-43V62l-9-52h-65l-10 52v20c0 25 20 44 42 44zm56-6a69 69 0 0 1-112 0 68 68 0 0 1-80 25v99c0 30 21 56 50 63a10 10 0 0 0 13-11v-82c0-10 9-20 20-20h23c10 0 19 10 19 20v82c0 8 6 14 13 14h59c36 0 67-29 68-66v-97a68 68 0 0 1-73-26zm27 118c0 10-8 20-19 20h-22c-10 0-20-10-20-20v-24c0-10 10-20 20-20h22c10 0 20 10 20 20v24z" fill="#bfc5d2"/></svg>