<svg xmlns="http://www.w3.org/2000/svg" fill="none" viewBox="0 0 290 240" xmlns:v="https://vecta.io/nano"><path d="M20 234a20 20 0 01-10-2 20 20 0 01-6-6l-3-2v-19l3-11A185 185 0 01 168 50V32c1-6 5-12 10-17 5-4 12-6 19-5 6 0 11 3 16 7l4 4 59 60a42 42 0 01 0 60l-59 58c-3 4-7 7-11 9a25 25 0 01-37-18l-1-11v-10C120 163 74 180 42 216l-5 7-2 2c-3 5-9 9-15 9ZM177 70h-3c-16 0-31 4-46 10A163 163 0 00 25 199v5l1-2c38-44 96-64 153-53 6 0 10 6 10 13v17l1 7v2c2 1 4 2 5 1l7-5a16188 16188 0 00 62-63 20 20 0 00-3-25l-60-60-3-2v-1l-3-2-3 1-2 3v33L180 70h-2Z" fill="#bfc5d2"/></svg>