<svg xmlns="http://www.w3.org/2000/svg" fill="none" viewBox="0 0 270 190" xmlns:v="https://vecta.io/nano"><g fill="#bfc5d2" clip-path="url(#A)"><path d="M260 66c-10-17-25-30-41-42A164 164 0 0 0 88 7C52 16 23 39 8 72a40 40 0 0 0 0 38 130 130 0 0 0 36 42c26 20 58 30 91 30a180 180 0 0 0 40-4c37-7 68-30 86-60 11-16 10-37 0-52zm-14 44a115 115 0 0 1-83 52l-15 2h-7c-50 0-88-18-114-57-7-10-8-23-1-33 14-26 41-44 71-51a190 190 0 0 1 40-5 127 127 0 0 1 108 57c8 10 8 24 0 35zM135 31a60 60 0 0 0-60 60 60 60 0 0 0 18 43 63 63 0 0 0 43 17h1a60 60 0 0 0 43-18 57 57 0 0 0 18-42c0-33-28-60-62-60zm32 90c-8 8-20 13-32 13a43 43 0 0 1-43-44c0-23 20-41 44-40 25 0 44 17 44 41a40 40 0 0 1-13 29z"/></g><defs><clipPath id="A"><path d="M2 0h267v182H2" fill="#fff"/></clipPath></defs></svg>