<svg xmlns="http://www.w3.org/2000/svg" fill="none" viewBox="0 0 4700 3400" xmlns:v="https://vecta.io/nano"><g clip-path="url(#A)"><path d="m3128 1823-70-404 295-289a313 313 0 00-173-530l-406-59-180-367a313 313 0 00-562 0l-180 367-407 59a313 313 0 00-173 534l293 286-70 404a312 312 0 00 455 330l363-192 362 190a313 313 0 00 453-330Zm-404-513 95 566-507-267-509 262 97-565-410-402 567-83 255-515 254 515 568 85-410 400Zm1940 1076a258 258 0 00-210-176l-235-34-105-213a257 257 0 00-462 0l-105 213-236 34a258 258 0 00-143 440l170 166-40 234a258 258 0 00 374 272l210-110 212 110a258 258 0 00 374-270l-40-235 170-166c71-68 96-171 66-264v-1Zm-571 322 50 290-260-137-259 136 49-290-210-203 290-42L3882 2200l130 262 290 42-210 204Zm-2729-497-235-34-108-213a257 257 0 00-462 0l-105 214-235 34a257 257 0 00-140 440l170 166-40 235a258 258 0 00 373 271l211-110 210 110a258 258 0 00 375-271l-40-234 170-166a259 259 0 00-143-440l-3-2Zm-362 497 50 290-260-137-259 137 50-290-211-203 290-42L792 2200l130 263 290 42-210 204v-1Z" fill="#2977ff"/></g><defs><clipPath id="A"><path d="M0 0h4676v3353H0" fill="#fff"/></clipPath></defs></svg>