<svg xmlns="http://www.w3.org/2000/svg" fill="none" viewBox="0 0 200 240" xmlns:v="https://vecta.io/nano"><path d="M98 240a52 52 0 01-44-23C18 165 0 127 0 101 0 75 10 50 29 30c18-20 43-30 68-30 26 0 51 10 70 30 18 19 28 45 28 71 0 27-18 64-54 116-5 7-12 13-20 17-7 4-15 6-23 6Zm0-220c-21 0-41 8-56 23a84 84 0 00-23 58c0 15 8 45 50 105A36 36 0 00 92 220a34 34 0 00 26-6l8-8c42-60 50-90 50-105 0-21-8-42-23-58A78 78 0 00 97 20Zm0 128c-10 0-18-3-25-8a46 46 0 01-17-20 48 48 0 01 10-52 47 47 0 01 49-10c8 4 15 10 20 17a48 48 0 01-6 60c-8 8-20 13-32 13Zm0-74c-6 0-10 2-15 5a30 30 0 00-10 12 28 28 0 00 6 30c4 3 8 6 13 7 5 0 10 0 15-2s10-5 12-10a28 28 0 00-3-34c-5-5-12-8-18-8Z" fill="#bfc5d2"/></svg>