<svg xmlns="http://www.w3.org/2000/svg" width="36" height="36" fill="#8f9bb3" xmlns:v="https://vecta.io/nano"><path d="M14.6 7.14C14.6 5.57 15.68 4 16.75 4h8.66C31.26 4 36 7.14 36 15s-4.74 11-10.6 11H12v-6.29h13.4c2.25 0 4.66 0 4.66-4.71s-2.4-4.71-4.66-4.71h-8.66c-1.07 0-2.13-1.58-2.13-3.15" opacity=".4"/><path d="M10.68 14.24A2.2 2.2 0 0 1 12 16.25v13.5c0 .85-.5 1.63-1.32 2-.8.4-1.77.31-2.5-.19l-.03-.02-.07-.04-.24-.17a67 67 0 0 1-3.41-2.59 29 29 0 0 1-2.7-2.44 10 10 0 0 1-1.08-1.34A3.7 3.7 0 0 1 0 23c0-.85.4-1.56.65-1.96.3-.47.69-.92 1.08-1.33a27 27 0 0 1 2.7-2.45 65 65 0 0 1 3.65-2.76l.07-.04.02-.02c.74-.5 1.7-.58 2.51-.2"/></svg>