<svg xmlns="http://www.w3.org/2000/svg" fill="none" viewBox="0 0 220 240" xmlns:v="https://vecta.io/nano"><path d="M214 216c6 5 6 13 0 19-5 5-13 5-18 0l-21-21c-5-5-14-5-19 0l-22 22c-5 5-14 5-19 0s-5-14 0-19l22-22a40 40 0 01 11-8 40 40 0 01-10-8l-20-20c-6-6-6-14 0-20 4-5 13-5 18 0l20 22c6 5 14 5 20 0l21-23c6-5 14-5 20 0 4 5 4 14 0 20l-23 21a40 40 0 01-10 8l10 8 20 20ZM33 59A60 60 0 01 92 0 60 60 0 01 150 60a60 60 0 01-58 59 60 60 0 01-60-60M60 60c0 18 14 33 32 33 17 0 31-15 31-32 0-18-14-33-31-33A32 32 0 00 60 60Zm20 74c-20 1-39 10-53 23a89 89 0 00-27 60c0 8 6 14 14 14 7 0 13-6 13-14A67 67 0 01 53 170c8-5 17-9 26-10 4 0 9-2 12-6 2-3 3-6 2-10-1-6-7-11-14-11" fill="#fff"/></svg>