<svg xmlns="http://www.w3.org/2000/svg" fill="none" viewBox="0 0 300 310" xmlns:v="https://vecta.io/nano"><path d="M286 114c-17-3-30-16-35-33-7-21 12-34-5-47l-44-24c-7-4-15-2-20 5-9 10-21 16-34 16s-25-6-33-16c-5-6-13-8-20-4L53 37c-6 4-9 12-5 20a47 47 0 0 1-33 60c-8 0-14 8-14 15v53c0 7 6 14 14 14 24 5 40 30 36 55l-2 5c-3 8 0 16 6 20l44 26c3 2 7 2 10 2 4 0 7-3 9-6a50 50 0 0 1 32-17 50 50 0 0 1 36 15c2 3 5 5 9 6 3 1 7 0 10-1l44-27c16-10 0-23 3-40 2-20 16-36 35-40 8 0 14-8 14-16v-51c0-8-7-14-14-15zM98 190c-40-70 64-133 104-63s-63 133-104 63z" fill="#bfc5d2"/></svg>