<svg xmlns="http://www.w3.org/2000/svg" fill="none" viewBox="0 0 240 240" xmlns:v="https://vecta.io/nano"><path d="M240 170a30 30 0 0 0-27-27h-3l-27-7a32 32 0 0 0-40 13v2l-2 1a154 154 0 0 1-53-53v-1l2-3c2 0 3-2 5-4 10-9 13-23 8-36-3-10-6-19-7-29A32 32 0 0 0 66 0H30C20 0 10 5 5 14L0 24l-1 4v8l2 10a228 228 0 0 0 190 191l11 3h10l2-1a30 30 0 0 0 24-27v-42m-34 50A209 209 0 0 1 20 38c-1-5 0-10 3-14s8-6 14-5h28c5 1 12 5 13 11l8 33c2 5 0 10-3 14l-6 5-7 8a10 10 0 0 0-2 13c16 28 40 52 68 68 5 4 10 3 14-1l12-13c4-4 10-5 15-3l31 7c7 0 13 7 12 14v32c0 4 0 7-4 10-3 3-7 4-10 3" fill="#bfc5d2"/></svg>