<svg xmlns="http://www.w3.org/2000/svg" fill="#8f9bb3" viewBox="0 0 36 36"><path fill-rule="evenodd" d="M22.9 22.9a1.5 1.5 0 0 1 2 0l3.6 3.5 3.4-3.5a1.6 1.6 0 0 1 2.2 2.2l-3.5 3.4 3.5 3.4a1.6 1.6 0 1 1-2.2 2.2l-3.4-3.5-3.4 3.5a1.6 1.6 0 1 1-2.2-2.2l3.5-3.4-3.5-3.4a1.5 1.5 0 0 1 0-2.2"/><path opacity=".4" d="M18 2a8 8 0 0 0-3.3.2A7.9 7.9 0 0 0 18 17.6 7.9 7.9 0 0 0 18 2m-3.9 18.2a18 18 0 0 1 7.1.4q.5.3.1.8a4 4 0 0 0 0 5.4l1.3 1.2.4.6-.4.6-1.3 1.2q-1 1-1 2.6 0 1-.2 1.1l-.9.1H9.9a10 10 0 0 1-6.6-3Q1.8 29.7 1.9 28q.3-1.6 1.5-2.7c1-1 2.7-2 3.8-2.6l.6-.3a17 17 0 0 1 6.3-2.2"/></svg>