<svg xmlns="http://www.w3.org/2000/svg" width="36" height="36" fill="#8f9bb3" xmlns:v="https://vecta.io/nano"><path opacity=".3" d="M18.086 2.625l7.882.27c2.065.279 3.703.86 4.99 2.146s1.869 2.926 2.146 4.991c.271 2.015.271 4.596.271 7.882v.172l-.27 7.882c-.278 2.065-.86 3.703-2.146 4.99s-2.926 1.869-4.991 2.146c-2.015.271-4.596.271-7.882.271h-.172c-3.286 0-5.867 0-7.882-.27-2.065-.278-3.703-.86-4.99-2.146s-1.868-2.926-2.146-4.991c-.271-2.015-.271-4.596-.271-7.882v-.172l.27-7.882c.279-2.065.86-3.703 2.146-4.99s2.926-1.868 4.991-2.146c2.015-.271 4.596-.271 7.882-.271h.172z"/><path fill-rule="evenodd" d="M18 10.5a1.5 1.5 0 0 1 1.5 1.5v4.5H24a1.5 1.5 0 0 1 1.5 1.5 1.5 1.5 0 0 1-1.5 1.5h-4.5V24a1.5 1.5 0 0 1-1.5 1.5 1.5 1.5 0 0 1-1.5-1.5v-4.5H12a1.5 1.5 0 0 1-1.5-1.5 1.5 1.5 0 0 1 1.5-1.5h4.5V12a1.5 1.5 0 0 1 1.5-1.5z"/></svg>