<svg xmlns="http://www.w3.org/2000/svg" fill="#8f9bb3" viewBox="0 0 36 36"><path fill-rule="evenodd" d="M33.6 23.3q.8-1 0-2a1.4 1.4 0 0 0-2 .2l-6.7 7.1-2.5-2.4a1.4 1.4 0 0 0-2 0q-.7 1 0 2l3.5 3.4a1.4 1.4 0 0 0 2 0z"/><path opacity=".4" d="M17.8 1.9A7.9 7.9 0 1 0 16 17.6a7.9 7.9 0 0 0 1.8-15.7M14 20a17 17 0 0 1 11 2.5l-.5.8-.5.6-.5.5-.7-.3q-1-.4-2-.4a4 4 0 0 0-3.7 3c-.1 1-.1 1.4.9 2.4l2 2.3 1.1 1.2q1.2 1 1 1.3t-1.6.3H9.7a10 10 0 0 1-6.6-3Q1.6 29.7 1.7 28q.3-1.6 1.5-2.7c1-1 2.7-2 3.8-2.6l.6-.3q3-1.8 6.4-2.4"/></svg>