<svg xmlns="http://www.w3.org/2000/svg" width="36" height="36" fill="none" xmlns:v="https://vecta.io/nano"><g clip-path="url(#A)" fill="#8f9bb3"><path opacity=".4" d="M21.4 28.86c0 1.57-1.08 3.14-2.15 3.14h-8.66C4.74 32 0 28.86 0 21s4.74-11 10.6-11H24v6.29H10.6c-2.25 0-4.66 0-4.66 4.71s2.4 4.71 4.66 4.71h8.66c1.07 0 2.13 1.58 2.13 3.15"/><path d="M25.32 21.76A2.2 2.2 0 0 1 24 19.75V6.25c0-.85.5-1.63 1.32-2 .8-.4 1.77-.31 2.5.19l.03.02.07.04.24.17 3.41 2.59c.95.756 1.852 1.571 2.7 2.44a10 10 0 0 1 1.08 1.34A3.7 3.7 0 0 1 36 13c0 .85-.4 1.56-.65 1.96-.3.47-.69.92-1.08 1.33-.844.877-1.746 1.695-2.7 2.45l-3.65 2.76-.07.04-.02.02a2.56 2.56 0 0 1-2.51.2z"/></g><defs><clipPath id="A"><path fill="#fff" d="M0 0h36v36H0z"/></clipPath></defs></svg>