<svg xmlns="http://www.w3.org/2000/svg" width="20" height="20" fill="#8f9bb3" xmlns:v="https://vecta.io/nano"><path opacity=".4" d="M13.98 12.8a1.8 1.8 0 0 1 1.9.44l2.54 2.55a1.86 1.86 0 0 1-.024 2.606 1.86 1.86 0 0 1-2.606.024l-2.54-2.54a1.8 1.8 0 0 1-.44-1.9l-1.73-1.72 1.18-1.18 1.72 1.72z"/><path fill-rule="evenodd" d="M.83 7.5A6.67 6.67 0 0 1 7.5.83a6.67 6.67 0 0 1 6.67 6.67 6.67 6.67 0 0 1-6.67 6.67A6.67 6.67 0 0 1 .83 7.5zm6.67-5a5 5 0 0 0-5 5 5 5 0 0 0 5 5 5 5 0 0 0 5-5 5 5 0 0 0-5-5z"/></svg>