<svg xmlns="http://www.w3.org/2000/svg" width="15" height="16" fill="none" xmlns:v="https://vecta.io/nano"><g clip-path="url(#A)" stroke="#bfc5d2" stroke-miterlimit="10" stroke-width="1.2"><path d="M9.95 1H3.11A2.11 2.11 0 0 0 1 3.11v6.84a2.11 2.11 0 0 0 2.11 2.11h6.84a2.11 2.11 0 0 0 2.11-2.11V3.11A2.11 2.11 0 0 0 9.95 1z"/><path d="M12.38 3.061c1.09.05 1.94.95 1.94 2.04v7.42c0 1.12-.91 2.04-2.04 2.04H4.86c-1.13 0-2.04-.91-2.04-2.04v-.45"/></g><defs><clipPath id="A"><path fill="#fff" d="M0 0h15v16H0z"/></clipPath></defs></svg>