<svg xmlns="http://www.w3.org/2000/svg" fill="none" viewBox="0 0 4800 3200" xmlns:v="https://vecta.io/nano"><g clip-path="url(#A)"><path d="M4752 1945a1213 1213 0 00-600-609 765 765 0 10-1271-630 752 752 0 00-970 0 766 766 0 10-1270 631A1210 1210 0 00 40 1945a450 450 0 00 34 434 470 470 0 00 395 215h787c-23 117 0 238 65 338a468 468 0 00 393 214h1365c160 0 307-81 393-214 65-100 88-221 65-338h788c160 0 307-81 393-214a450 450 0 00 34-434v-1ZM3642 313a456 456 0 01 7 911h-12a455 455 0 11 6-910v-1ZM2397 842a456 456 0 11 0 912 456 456 0 01 0-912ZM695 769a456 456 0 11 463 455h-13a456 456 0 01-450-455ZM335 2210a144 144 0 01-10-138 905 905 0 01 820-536h13a889 889 0 01 713 360c-183 90-340 222-458 387H468a160 160 0 01-134-72h1Zm2876 552c-29 45-78 72-132 72H1714c-53 0-103-27-132-72a144 144 0 01-12-140 904 904 0 01 1653 1c20 45 16 98-12 140Zm1246-552c-29 45-78 72-131 72h-944c-119-166-277-300-460-387a895 895 0 01 714-360h12a902 902 0 01 820 537c20 45 16 97-10 138Z" fill="#2977ff"/></g><defs><clipPath id="A"><path d="M0 0h4792v3146H0" fill="#fff"/></clipPath></defs></svg>