<svg xmlns="http://www.w3.org/2000/svg" fill="#2699fb" viewBox="0 0 36 36" fill-rule="evenodd" xmlns:v="https://vecta.io/nano"><path d="M3 25.5A1.5 1.5 0 0 1 4.5 24h9a1.5 1.5 0 1 1 0 3h-9A1.5 1.5 0 0 1 3 25.5m18-15A1.5 1.5 0 0 1 22.5 9h9a1.5 1.5 0 1 1 0 3h-9a1.5 1.5 0 0 1-1.5-1.5" opacity=".4"/><path d="M3 10.5A1.5 1.5 0 0 1 4.5 9H9a1.5 1.5 0 1 1 0 3H4.5A1.5 1.5 0 0 1 3 10.5m22.5 15A1.5 1.5 0 0 1 27 24h4.5a1.5 1.5 0 1 1 0 3H27a1.5 1.5 0 0 1-1.5-1.5"/><path d="M13.5 4.9h1.7l1.4.3A4 4 0 0 1 19 8.8v3.4l-.3 1.4a4 4 0 0 1-3.6 2.5h-3.4a4 4 0 0 1-3.9-3.9V8.8l.3-1.4A4 4 0 0 1 11.8 5zm9 15h1.7l1.4.3a4 4 0 0 1 2.5 3.6v3.4l-.3 1.4a4 4 0 0 1-3.6 2.5h-3.4a4 4 0 0 1-3.9-3.9v-3.4l.3-1.4a4 4 0 0 1 3.6-2.5z"/></svg>