<svg xmlns="http://www.w3.org/2000/svg" fill="none" viewBox="0 0 200 240" xmlns:v="https://vecta.io/nano"><path d="m196 185-42 43a38 38 0 01-55 0l-20-20c-6-6-6-15 0-20 4-5 13-5 18 0l20 21c5 5 13 5 19 0l42-43c5-5 13-5 18 0s5 14 0 19M92 160h16c4 0 7-2 9-4 2-4 3-8 2-12-2-6-7-10-13-10l-15-2h-7a90 90 0 00-58 24A90 90 0 00 0 217c0 8 6 14 13 14 7 0 13-6 13-14A66 66 0 01 52 170a64 64 0 01 40-10m-60-100A60 60 0 01 90 0a60 60 0 01 58 60A60 60 0 01 90 120a59 59 0 01-58-60ZM60 60c0 17 14 32 30 32 18 0 32-15 32-32 0-18-14-33-31-33A32 32 0 00 59 60Z" fill="#fff"/></svg>