<svg fill="none" xmlns="http://www.w3.org/2000/svg" viewBox="0 0 36 36"><path opacity=".4" d="m30.33 11.063 1.138.02c.33.024.683.072 1.029.226.58.257 1.026.65 1.304 1.166.267.497.33 1.018.323 1.463a6.2 6.2 0 0 1-.17 1.236l-.227.963a1.85 1.85 0 0 1-1.022 1.287c-.555.262-.916.747-1.01 1.277l-1.05 6.095-.51 2.79c-.348 1.357-.95 2.828-2.208 3.839l-.004.002c-.944.752-2.051 1.08-3.37 1.233-1.276.15-2.878.15-4.88.15h-3.346c-2.002 0-3.604 0-4.88-.15-1.32-.153-2.426-.481-3.37-1.233l-.004-.003c-1.258-1.01-1.86-2.482-2.21-3.84-.234-.915-.383-1.925-.51-2.788l-1.05-6.094c-.092-.533-.453-1.017-1.008-1.28a1.85 1.85 0 0 1-1.022-1.285l-.227-.96a6.3 6.3 0 0 1-.17-1.24c-.008-.445.056-.965.323-1.462.278-.516.723-.91 1.304-1.166.346-.152.7-.202 1.03-.225l1.137-.021z" fill="#8F9BB3"/><path fill-rule="evenodd" clip-rule="evenodd" d="M15.602 3.314a1.5 1.5 0 0 1 .773 1.975l-5.25 12a1.501 1.501 0 0 1-2.75-1.201l5.25-12a1.5 1.5 0 0 1 1.977-.774m-1.727 14.875c0-.622.504-1.125 1.125-1.125h6a1.126 1.126 0 0 1 0 2.25h-6a1.125 1.125 0 0 1-1.125-1.125" fill="#8F9BB3"/><path d="M23.843 4.016A1.5 1.5 0 0 0 21.16 5.36l2.852 5.704h3.354z" fill="#8F9BB3"/></svg>