<svg xmlns="http://www.w3.org/2000/svg" fill="#44cb8c" viewBox="0 0 28 15" xmlns:v="https://vecta.io/nano"><path opacity=".4" d="M27.54.44a1.5 1.5 0 0 1 0 2.13l-7.85 7.58-1.72 1.56c-.78.62-1.78.94-2.79.87a4 4 0 0 1-2.07-.87c-.52-.4-1.1-.95-1.73-1.56q-.75-.75-1.57-1.45a.74.74 0 0 0-1 0c-.36.27-.8.7-1.52 1.39l-4.67 4.5a1.6 1.6 0 0 1-2.16-.03 1.5 1.5 0 0 1-.04-2.09L5.15 7.9l1.73-1.56a4 4 0 0 1 2.78-.88c.83.07 1.5.45 2.08.88.52.4 1.09.95 1.72 1.56q.75.76 1.58 1.44c.18.13.62.32 1 0 .36-.27.8-.7 1.51-1.38l7.8-7.52a1.6 1.6 0 0 1 2.2 0"/><path fill-rule="evenodd" d="M17.1 1.5c0-.83.7-1.5 1.55-1.5h7.8C27.3 0 28 .67 28 1.5v7.52q0 .62-.46 1.07a1.6 1.6 0 0 1-2.2 0q-.46-.45-.46-1.07V3.01h-6.23q-.63-.01-1.1-.44-.44-.45-.45-1.07"/></svg>