<svg fill="none" xmlns="http://www.w3.org/2000/svg" viewBox="0 0 36 36"><path fill-rule="evenodd" clip-rule="evenodd" d="M3.38 24.28c0-.78.65-1.4 1.46-1.4h21.94a5.74 5.74 0 0 1 5.84 5.62c0 3.1-2.61 5.63-5.84 5.63H4.83c-.81 0-1.46-.63-1.46-1.41s.65-1.4 1.46-1.4h21.94a2.87 2.87 0 0 0 2.92-2.82c0-1.55-1.3-2.81-2.93-2.81H4.84c-.81 0-1.46-.63-1.46-1.4" fill="#8F9BB3"/><path opacity=".4" fill-rule="evenodd" clip-rule="evenodd" d="M6 28.5c0-.83.67-1.5 1.5-1.5h.01a1.5 1.5 0 1 1 0 3H7.5A1.5 1.5 0 0 1 6 28.5m9 0a1.5 1.5 0 1 1 1.5 1.5h-.02a1.5 1.5 0 0 1-1.5-1.5m8.99 0c0-.83.67-1.5 1.5-1.5h.01a1.5 1.5 0 1 1 0 3h-.01a1.5 1.5 0 0 1-1.5-1.5" fill="#8F9BB3"/><path opacity=".4" d="M4.88 9A1.1 1.1 0 0 1 6 7.88h21c.62 0 1.13.5 1.13 1.12v5.9l-.19 5.1a5.6 5.6 0 0 1-1.52 3.46c-.93.91-2.1 1.3-3.49 1.5-1.34.17-3.05.17-5.18.17h-2.5c-2.13 0-3.84 0-5.18-.18a5.8 5.8 0 0 1-3.5-1.5 5.6 5.6 0 0 1-1.5-3.44 38 38 0 0 1-.19-5.1z" fill="#8F9BB3"/><path fill-rule="evenodd" clip-rule="evenodd" d="M12.75 13.5c0-.83.67-1.5 1.5-1.5h4.5a1.5 1.5 0 1 1 0 3h-4.5a1.5 1.5 0 0 1-1.5-1.5" fill="#8F9BB3"/><path d="M24.68 7.88H27a1.1 1.1 0 0 1 1.12 1A1.3 1.3 0 0 0 28 8.2l-1-2.18q-.52-1.16-1-1.98a4 4 0 0 0-1.43-1.49 5 5 0 0 0-2.05-.6 26 26 0 0 0-2.39-.07h-7.26q-1.4-.02-2.4.06c-.7.07-1.4.22-2.04.61-.64.4-1.08.91-1.43 1.5q-.48.8-1 1.97L5 8.2q-.15.33-.12.68a1.1 1.1 0 0 1 1.12-1h2.32l.32-.7.87-1.76c.22-.35.36-.48.48-.55.13-.07.32-.15.78-.2.5-.04 1.15-.05 2.17-.05h7.12l2.17.06c.46.04.65.12.78.2.12.06.26.2.48.54.23.38.48.92.87 1.77z" fill="#8F9BB3"/></svg>