<svg xmlns="http://www.w3.org/2000/svg" fill="none" viewBox="0 0 22 26" xmlns:v="https://vecta.io/nano"><path d="M9.6 24H6.047C3.26 24 1 21.853 1 19.208V7.836C1 5.19 3.261 3.044 6.047 3.044m9.906-.013C18.74 3.03 21 5.178 21 7.823v5.66m-1.527 10.392A4.45 4.45 0 0 1 16.494 25 4.497 4.497 0 0 1 12 20.5m1.527-3.375A4.45 4.45 0 0 1 16.506 16 4.497 4.497 0 0 1 21 20.5M14.135 5.204H7.877c-1.01 0-1.83-.78-1.83-1.738v-.728c0-.959.82-1.738 1.83-1.738h6.258c1.01 0 1.83.78 1.83 1.738v.728c0 .959-.82 1.738-1.83 1.738" stroke="#e3ae5e" stroke-width="2" stroke-miterlimit="10" stroke-linecap="round" stroke-linejoin="round"/></svg>