<svg xmlns="http://www.w3.org/2000/svg" fill="#8f9bb3" viewBox="0 0 36 36" xmlns:v="https://vecta.io/nano"><path fill-rule="evenodd" d="M15.75 19.875c.621 0 1.125.504 1.125 1.125v4.875a3.75 3.75 0 0 1-3.75 3.75H13A3.625 3.625 0 0 1 9.375 26a1.125 1.125 0 0 1 2.25 0c0 .76.616 1.375 1.375 1.375h.125a1.5 1.5 0 0 0 1.5-1.5V21c0-.621.504-1.125 1.125-1.125m1.875 2.625a2.625 2.625 0 0 1 2.625-2.625H21a3.375 3.375 0 0 1 0 6.75h-1.125V28.5a1.125 1.125 0 1 1-2.25 0zm2.25 1.875H21a1.125 1.125 0 1 0 0-2.25h-.75a.375.375 0 0 0-.375.375zm5.25-1.875a2.625 2.625 0 0 1 2.625-2.625H30a2.625 2.625 0 0 1 2.625 2.625 1.125 1.125 0 1 1-2.25 0 .375.375 0 0 0-.375-.375h-2.25a.375.375 0 0 0-.375.375V27c0 .207.168.375.375.375H30a.375.375 0 0 0 .375-.375v-.375H30a1.125 1.125 0 1 1 0-2.25h1.5c.621 0 1.125.504 1.125 1.125V27A2.625 2.625 0 0 1 30 29.625h-2.25A2.625 2.625 0 0 1 25.125 27z"/><path opacity=".4" d="M15.881 1.875c.855 0 1.612-.002 2.325.251q.22.078.432.18c.682.328 1.216.866 1.82 1.475l7.174 7.211c.701.703 1.323 1.326 1.66 2.142s.334 1.7.333 2.694V18H10.5a3 3 0 0 0-3 3v7.5a3 3 0 0 0 3 3h17.416a6 6 0 0 1-.427.478c-1.17 1.177-2.644 1.683-4.394 1.92-1.686.227-3.83.227-6.488.227s-5.016 0-6.702-.228c-1.75-.236-3.224-.742-4.394-1.919s-1.674-2.658-1.91-4.417c-.226-1.694-.226-3.849-.226-6.522v-6.86l.171-5.63c.178-1.528.555-2.836 1.444-3.945A7.3 7.3 0 0 1 6.09 3.5c1.102-.894 2.404-1.273 3.923-1.45 1.468-.174 3.58-.174 5.868-.174"/><path d="M18.205 2.128q.22.078.432.18c.682.328 1.216.866 1.82 1.475l7.174 7.21c.701.704 1.324 1.327 1.66 2.143a4.21 4.21 0 0 1 .276 1.122h-2.97c-2.052 0-3.025-.001-4.326-.176-1.35-.182-2.486-.57-3.39-1.473s-1.29-2.04-1.472-3.39c-.175-1.297-.175-2.27-.175-4.312V1.92a4.19 4.19 0 0 1 .971.208"/></svg>