<svg xmlns="http://www.w3.org/2000/svg" fill="#8f9bb3" viewBox="0 0 36 36" fill-rule="evenodd"><path opacity=".4" d="M25.213 6.287a6.1 6.1 0 0 0-8.627 0l-4.3 4.3a6.1 6.1 0 0 0 8.447 8.8 1.5 1.5 0 1 1 2.034 2.206A9.1 9.1 0 0 1 10.165 8.465l4.3-4.3a9.1 9.1 0 0 1 12.87 12.87l-.697.698a1.5 1.5 0 0 1-2.12-2.123l.695-.694a6.1 6.1 0 0 0 0-8.629"/><path d="M8.527 19.105a9.1 9.1 0 0 0 13.007 12.728l4.3-4.299a9.1 9.1 0 0 0-12.602-13.127 1.5 1.5 0 0 0 2.034 2.205 6.1 6.1 0 0 1 8.446 8.8l-4.3 4.3a6.1 6.1 0 0 1-9.036-8.174 9.1 9.1 0 0 1-1.849-2.433"/></svg>