<svg xmlns="http://www.w3.org/2000/svg" fill="none" viewBox="0 0 36 36" xmlns:v="https://vecta.io/nano"><g clip-path="url(#A)" fill="#8f9bb3"><path opacity=".4" d="M27.88 6.81q1.5.85 2.46 1.51c.66.48 1.2.99 1.6 1.67.39.68.56 1.4.65 2.22q.1 1.16.08 2.88l.01 5.86q.02 1.72-.07 2.89a5 5 0 0 1-.65 2.22 5 5 0 0 1-1.6 1.67c-.64.46-1.46.93-2.47 1.51l-5.08 2.92q-1.48.87-2.53 1.37c-.75.33-1.46.55-2.25.54-.79 0-1.5-.21-2.24-.55a32 32 0 0 1-2.54-1.37l-5.13-2.97q-1.5-.84-2.46-1.5A5 5 0 0 1 4.06 26c-.4-.68-.56-1.4-.65-2.22q-.1-1.16-.08-2.88l-.01-5.86q-.02-1.71.07-2.89c.08-.82.25-1.54.65-2.22a5 5 0 0 1 1.6-1.67c.64-.46 1.46-.93 2.47-1.51l5.08-2.92q1.48-.88 2.53-1.37a5 5 0 0 1 2.25-.54c.79 0 1.5.2 2.24.55q1.06.5 2.54 1.37z"/><path d="M23.25 18a5.25 5.25 0 1 1-10.5 0 5.25 5.25 0 0 1 10.5 0"/></g><defs><clipPath id="A"><path fill="#fff" d="M0 0h36v36H0z"/></clipPath></defs></svg>