<svg fill="none" xmlns="http://www.w3.org/2000/svg" viewBox="0 0 36 36"><path opacity=".4" d="M21.427 3.477a62 62 0 0 0-2.233-.098c-.596-.01-.903-.019-1.042.157-.14.175-.05.487.109 1.14.234.942.288 1.918.159 2.878-.377 2.712-2.144 5.307-5.091 7.394-.774.546-2.243 1.59-4.139 1.59-1.895 0-3.265-.975-4.039-1.522l-.1-.068a15 15 0 0 1-1.19-.927c-.536-.458-.804-.682-1.052-.604s-.298.39-.427 1.034q-.15.79-.198 1.61a30 30 0 0 0 0 3.823 13.3 13.3 0 0 0 3.909 8.627 13.75 13.75 0 0 0 8.724 3.956c2.201.146 4.41.146 6.61 0a8 8 0 0 0 2.56-.576l.348-.136c.198-.078.297-.127.416-.108.12.01.199.078.388.205l.139.098a7.44 7.44 0 0 0 4.783 1.414h.07l1.19-.097c.265-.035.518-.128.741-.271s.411-.334.55-.559a1.83 1.83 0 0 0 .079-1.6c-.139-.36-.367-.78-.596-1.218l-.03-.059c-.694-1.297-.892-2.35-.515-3.063a13.5 13.5 0 0 0 2.51-6.613 30 30 0 0 0 0-3.824 13.3 13.3 0 0 0-3.909-8.627 13.75 13.75 0 0 0-8.724-3.956" fill="#8F9BB3"/><path fill-rule="evenodd" clip-rule="evenodd" d="M24.37 22.5c0 .62-.5 1.13-1.12 1.13h-10.5a1.125 1.125 0 0 1 0-2.25h10.5c.62 0 1.12.5 1.12 1.12m0-7.5c0 .62-.5 1.13-1.12 1.13H18a1.125 1.125 0 0 1 0-2.25h5.25c.62 0 1.12.5 1.12 1.12" fill="#8F9BB3"/><path d="M9.048 3.387c-.994 0-.994-1.355-2.983-1.382-.879-.012-1.215-.01-1.95.46-2.026 1.384-2.3 2.714-2.026 4.614.273 1.92 1.617 3.984 4.175 5.771.81.57 1.64 1.15 2.783 1.15s1.973-.57 2.784-1.14c2.558-1.797 3.793-3.861 4.067-5.78.273-1.901.109-3.23-1.88-4.615-.734-.47-1.109-.474-1.988-.462-1.988.027-1.988 1.384-2.982 1.384" fill="#8F9BB3"/></svg>