<svg xmlns="http://www.w3.org/2000/svg" fill="none" viewBox="0 0 21 24" xmlns:v="https://vecta.io/nano"><mask id="A" maskUnits="userSpaceOnUse" x="0" y="0" width="21" height="24"><path d="M20.2 0H0v24h20.2z" fill="#fff"/></mask><g mask="url(#A)"><path d="M20.2 6.5 13.7 0H6.2Q3.8.2 2 1.9a6 6 0 0 0-2 4.4V18a6 6 0 0 0 2.2 4.6Q3.8 24 6 24h8.2a6 6 0 0 0 6-6zm-2.9 14.6a4 4 0 0 1-3.1 1.3H6q-1.5 0-2.8-1A5 5 0 0 1 1.6 18V6.3A4 4 0 0 1 3.1 3q1.4-1.2 3.2-1.4H13l5.6 5.6V18a4 4 0 0 1-1.3 3M12.9 8.5h-1.6V10H8.9V8.4H7.3v1.5H5.8v1.6h1.5v2.4H5.8v1.6h1.5V17h1.6v-1.5h2.4V17h1.6v-1.5h1.5v-1.6H13v-2.4h1.5V9.9H13zM11.3 14H8.9v-2.4h2.4z" fill="#8798ad"/></g></svg>