<svg fill="none" xmlns="http://www.w3.org/2000/svg" viewBox="0 0 160 122"><path fill-rule="evenodd" clip-rule="evenodd" d="M153.3 38a6.7 6.7 0 1 1 0 13.4h-38.33a6.7 6.7 0 1 1 0 13.4h21.08a6.7 6.7 0 1 1 0 13.4h-9.75c-4.67 0-8.46 3-8.46 6.7q0 3.7 5.75 6.7a6.7 6.7 0 1 1 0 13.4H44.07a6.7 6.7 0 1 1 0-13.4H6.71a6.7 6.7 0 1 1 0-13.4h38.32a6.7 6.7 0 1 0 0-13.4H21.08a6.7 6.7 0 1 1 0-13.4H59.4a6.7 6.7 0 1 1 0-13.4zm0 26.8a6.7 6.7 0 1 1 0 13.4 6.7 6.7 0 0 1 0-13.4" fill="#F3F7FF"/><path fill-rule="evenodd" clip-rule="evenodd" d="m106.94 37.54 8.92 65.24.8 6.55a3.84 3.84 0 0 1-3.34 4.29l-56.1 6.91a3.84 3.84 0 0 1-4.28-3.35l-8.63-70.61a1.9 1.9 0 0 1 1.66-2.14H46l4.66-.53m3.76-.42 4.4-.5z" fill="#fff"/><path d="M108.18 37.37a1.25 1.25 0 1 0-2.47.34zm7.68 65.41 1.24-.15v-.02zm.8 6.55 1.24-.15zm-3.34 4.29.15 1.24zm-56.1 6.91.15 1.24zm-4.28-3.35 1.24-.15zm-8.63-70.61-1.24.15zm1.68-2.15.14 1.25zm4.8.72a1.25 1.25 0 0 0-.28-2.48zm3.48-2.9a1.25 1.25 0 0 0 .28 2.48zm4.68 1.98a1.25 1.25 0 0 0-.28-2.48zm46.76-6.5 8.9 65.23 2.48-.34-8.9-65.24zm8.9 65.22.8 6.54 2.49-.3-.8-6.55zm.8 6.54a2.6 2.6 0 0 1-2.24 2.9l.3 2.48a5.1 5.1 0 0 0 4.43-5.68zm-2.24 2.9-56.1 6.91.3 2.48 56.1-6.91zm-56.1 6.91a2.6 2.6 0 0 1-2.89-2.26l-2.48.3a5.1 5.1 0 0 0 5.67 4.44zm-2.89-2.26-8.63-70.61-2.48.3 8.63 70.62zm-8.63-70.61a.67.67 0 0 1 .58-.75l-.3-2.48a3.17 3.17 0 0 0-2.76 3.53zm.58-.75-.27-2.49h-.04zm0 0 4.66-.53-.28-2.48-4.65.52zm8.42-.95 4.4-.5-.28-2.48-4.4.5z" fill="#1F64E7"/><path fill-rule="evenodd" clip-rule="evenodd" d="m104.52 41.65 8.06 59.13.73 5.93a3.46 3.46 0 0 1-2.98 3.88l-50.25 6.19a3.46 3.46 0 0 1-3.83-3.04l-7.8-63.76a2 2 0 0 1 1.75-2.23l6.13-.75" fill="#E8F0FE"/><path d="M66 25.25h43.27c.73 0 1.42.29 1.94.8l12.73 12.69c.52.52.81 1.22.81 1.95V100a2.75 2.75 0 0 1-2.75 2.75H66a2.75 2.75 0 0 1-2.75-2.75V28A2.75 2.75 0 0 1 66 25.25Z" fill="#fff" stroke="#1F64E7" stroke-width="2.5"/><path d="M110 26v11.12a2.8 2.8 0 0 0 2.74 2.88H120" stroke="#1F64E7" stroke-width="2.5" stroke-linecap="round" stroke-linejoin="round"/><path d="M73 89h24.8M73 40h24.8zm0 11.53h41zm0 12.49h41zm0 12.49h41z" stroke="#75A4FE" stroke-width="2.5" stroke-linecap="round" stroke-linejoin="round"/><path d="M115 7a3 3 0 1 0 0-6 3 3 0 0 0 0 6Z" stroke="#75A4FE" stroke-width="2"/><path d="M145 22a3 3 0 1 0 0-6 3 3 0 0 0 0 6" fill="#75A4FE"/><path d="m122 14 7.88 8m.12-8-7.88 8zM30 28l6 6m0-6-6 6z" stroke="#75A4FE" stroke-width="2.5" stroke-linecap="round" stroke-linejoin="round"/><path d="M43 22a3 3 0 1 0 0-6 3 3 0 0 0 0 6" fill="#75A4FE"/></svg>