<svg xmlns="http://www.w3.org/2000/svg" fill="#3687ff" viewBox="0 0 167 88" xmlns:v="https://vecta.io/nano"><path fill-rule="evenodd" d="M160 1a7 7 0 1 1 0 14h-40a7 7 0 1 1 0 14h22a7 7 0 1 1 0 14h-10.2c-4.8 0-8.8 3.1-8.8 7q0 4 6 7a7 7 0 1 1 0 14H46a7 7 0 1 1 0-14H7a7 7 0 1 1 0-14h40a7 7 0 1 0 0-14H22a7 7 0 1 1 0-14h40a7 7 0 1 1 0-14zm0 28a7 7 0 1 1 0 14 7 7 0 0 1 0-14" fill-opacity=".3"/><path d="M75.4 60.3a1.2 1.2 0 1 0-.5 2.4zm5.1 1.7v1.3zM69.9 11.2l-.5-1.2zM57 23.4l1.1.6zm-.5 23.1 1.1-.5zm3.3 7.4a1.3 1.3 0 0 0 2-1.6zm4.9 1.2a1.2 1.2 0 1 0-1.6 2zm6 6.3a1.3 1.3 0 0 0 .8-2.3zM113 74l-.9.9zm11.1 11 .9-.8zm6.9 0-1-.8zm0-6.8-1 .9zm-11.1-11 .9-1zM81 18.2a1.2 1.2 0 1 0 0-2.6zM77 16a1.3 1.3 0 0 0 .5 2.5zm-2.9 3.5a1.3 1.3 0 0 0-1-2.3zM60.8 36a1.2 1.2 0 1 0 2.5 0zm19.7 34.3a34.7 34.7 0 0 0 34.8-34.8h-2.5a32 32 0 0 1-32.3 32.3zm34.8-34.8A34.7 34.7 0 0 0 80.5.8v2.5a32 32 0 0 1 32.3 32.2zM80.5.8a34.7 34.7 0 0 0-34.7 34.7h2.5A32 32 0 0 1 80.5 3.3zM45.8 35.5a34.7 34.7 0 0 0 34.7 34.8v-2.5a32 32 0 0 1-32.2-32.3zm29.1 27.2q2.7.6 5.6.5v-2.5q-2.6 0-5.1-.4zm5.6.5a27.7 27.7 0 0 0 27.8-27.7h-2.5c0 14-11.4 25.3-25.3 25.3zm27.8-27.7A27.7 27.7 0 0 0 80.5 7.8v2.5c14 0 25.3 11.3 25.3 25.2zM80.5 7.8q-6 0-11 2.2l1 2.3q4.6-2 10-2zm-11 2.2a28 28 0 0 0-13.8 13l2.3 1q4.2-8 12.4-11.7zM55.7 23q-3 5.7-3 12.6h2.5q0-6.2 2.7-11.5zm-3 12.6q0 6.2 2.5 11.6l2.2-1a25 25 0 0 1-2.2-10.6zm2.5 11.6q1.7 3.8 4.4 6.8l2-1.6q-2.5-2.8-4.2-6.3zM63 57q3.4 2.7 7.6 4.3l.8-2.3q-3.8-1.5-6.8-4zm44.1 5.8 6 6L115 67l-6-6zm5 3.2a6 6 0 0 0 0 8.7L114 73a3.6 3.6 0 0 1 0-5zm0 8.7 11.1 11L125 84l-11-11zm11.1 11a6 6 0 0 0 8.7 0l-1.8-1.7a3.6 3.6 0 0 1-5.1 0zm8.7 0a6 6 0 0 0 0-8.6L130 79a3.6 3.6 0 0 1 0 5zm0-8.6-11.1-11-1.8 1.7L130 79zm-11.1-11a6 6 0 0 0-8.7 0l1.8 1.7a3.6 3.6 0 0 1 5.1 0zM81 15.7q-2 0-4 .3l.5 2.5q1.7-.3 3.5-.4zm-7.8 1.5A20 20 0 0 0 60.7 36h2.5c0-7.4 4.5-13.7 11-16.4z"/></svg>