<svg xmlns="http://www.w3.org/2000/svg" fill="none" viewBox="0 0 36 36">
    <rect width="36" height="36" rx="12" fill="#ff9a4d" fill-opacity=".3"/>
    <path d="m27.18 16.13-.02-2.6c0-3.24-1.96-5.54-5.1-5.53l-8.98.02C9.95 8.03 7.99 10.33 8 13.6l.02 8.77c0 3.25 1.96 5.55 5.1 5.54l3.7-.02m5.01-6.63c.65-.6 1.51-.97 2.46-.97A3.8 3.8 0 0 1 28 24.15m-1.26 2.89a3.6 3.6 0 0 1-2.46.96 3.8 3.8 0 0 1-3.71-3.85M20.6 8l.02 7.37-3.02-1.02-3.03 1.04-.01-7.36" stroke="#ff9a4d" stroke-width="2" stroke-linecap="round" stroke-linejoin="round"/>
</svg>
