<svg xmlns="http://www.w3.org/2000/svg" fill="#fff" viewBox="0 0 31 31" fill-rule="evenodd"><path d="M18 18.1c.14.12.3.3.3.54s-.16.44-.3.56c-.86.78-1.88 1.42-2.91 1.84q-.36.14-.57.01c-.13-.07-.17-.27-.18-.36a19 19 0 0 1-.02-4.06c.03-.14.08-.31.22-.39l.22-.06q.15 0 .3.07A10 10 0 0 1 18 18.1m1.26 2.5a12 12 0 0 1-3.49 2.18q-.52.2-1.03.2-.65 0-1.18-.3c-.6-.37-.99-1-1.09-1.77a21 21 0 0 1 0-4.5c.1-.8.5-1.43 1.13-1.79a2.4 2.4 0 0 1 2.19-.1 12 12 0 0 1 3.47 2.19c.59.54.91 1.22.91 1.94 0 .7-.32 1.4-.9 1.95M22.1 9.4h-4.11l4.21-3.77a.94.94 0 0 0 .07-1.32.96.96 0 0 0-1.32-.08l-5.06 4.53-4.93-4.51a.93.93 0 0 0-1.32.06.93.93 0 0 0 .06 1.32l4.11 3.77H9.66A5.7 5.7 0 0 0 4 15.06v6.82a5.67 5.67 0 0 0 5.66 5.67H22.1a5.66 5.66 0 0 0 5.65-5.67v-6.82A5.67 5.67 0 0 0 22.1 9.4"/></svg>