<svg fill="none" xmlns="http://www.w3.org/2000/svg" viewBox="0 0 24 24"><path d="m20.4 21.1-.6-.2-6.3-6.4a1 1 0 0 1 0-1l7.7-7.8q.3-.2.7-.1.5 0 .6.5l.2 2.9v6c0 2.67-.7 4.67-1.9 6zM15 14l5.2 5.3q1-1.5 1-4.3V7.9zm-8.7 8.5h-.2c-3.2-.73-4.87-3.23-4.8-7.5V9c0-5.4 2.3-7.7 7.7-7.7h6q6.4 0 7.5 4.8 0 .4-.2.7L6.8 22.3zM9 2.8C4.4 2.8 2.8 4.4 2.8 9v6c0 3.5 1 5.2 3.2 5.9L21 6.1c-.7-2.4-2.4-3.3-6-3.3zm6 20H9q-1.6 0-2.9-.3l-.6-.6.2-.7 7.8-7.7q.5-.5 1 0l6.4 6.4a1 1 0 0 1 0 1q-1.8 2-5.9 1.9m-7.2-1.6H15q2.9 0 4.3-.9L14 15.1zm1.3-7.9q-1 0-1.7-.7Q5 10.3 5.5 7.8A3.6 3.6 0 0 1 9.1 5c1.8 0 3.3 1.2 3.6 2.8q.6 2.5-1.8 4.8-.8.7-1.8.7M7 8.2c-.4 1.3.6 2.5 1.4 3.3q.7.6 1.4 0c.9-.8 1.8-2 1.5-3.3S9.9 6.5 9 6.5 7.2 7 7 8.2m2 1.3c-.5 0-1-.5-1-1s.4-1 1-1c.5 0 1 .5 1 1s-.5 1-1 1" fill="#8F9BB3"/></svg>