<svg fill="none" xmlns="http://www.w3.org/2000/svg" viewBox="0 0 24 24"><g clip-path="url(#a)"><path d="M22.9 1.1a4 4 0 0 0-5.3 0l-2 1.8q-1-.6-2.3-.6h-8A5.3 5.3 0 0 0 0 7.6v11A5.3 5.3 0 0 0 5.3 24h8a5.3 5.3 0 0 0 5.3-5.3v-8l4.3-4.3a4 4 0 0 0 0-5.3M6.2 12.3v4.2l.2.7.6.3h4.5l5.4-5.2v6.4a3.6 3.6 0 0 1-3.6 3.6h-8a3.7 3.7 0 0 1-3.6-3.6v-11A3.7 3.7 0 0 1 5.3 4h8q.6 0 1.1.2zM7.7 16v-2.9l9.1-8.9 2.9 3-9 8.8zm14-10.7L21 6l-3-3 .8-.7a2 2 0 1 1 2.9 3" fill="#8F9BB3"/></g><defs><clipPath id="a"><path fill="#fff" d="M0 0h24v24H0z"/></clipPath></defs></svg>