<svg fill="none" xmlns="http://www.w3.org/2000/svg" viewBox="0 0 24 24"><path d="M13.9 22q-1.8-.8-3.6-2.1a31 31 0 0 1-6.2-6.2A14 14 0 0 1 2 10a9 9 0 0 1-.8-3.6 4.3 4.3 0 0 1 .4-2.2 5 5 0 0 1 1.3-2q1.2-1 2.6-1 .6 0 1.1.2l1 .8 2.6 3.2.5.9v1.1q0 .5-.3 1l-.7.9-.7.7.9 1.2 3 3 1 .8.8-.7q.4-.5.9-.7.8-.5 2-.1l.8.4 3.3 2.4q.6.4.8 1l.2 1q0 .8-.3 1.4l-.8 1.3q-.9.9-2 1.3-1 .4-2.2.4m-12-20q-.7 0-1.5.7L3 4.9l-.2 1.6q0 1.5.6 3 .7 1.6 1.9 3.3a28 28 0 0 0 5.9 5.9q1.6 1.2 3.3 1.9 2.6 1.1 4.6.3a4 4 0 0 0 2-1.8l.1-.8v-.5l-.4-.3-3.3-2.3-.5-.3q-.4-.2-.7 0-.3 0-.6.4l-.7.8q-.7.5-1.5.3l-.2-.1-1.5-1a31 31 0 0 1-4.1-4.6l-.1-.3-.1-.5q0-.5.4-1l.7-.7.5-.6V7c0-1.34-1.96-3.42-3.1-4.1z" fill="#8F9BB3"/></svg>