<svg xmlns="http://www.w3.org/2000/svg" fill="#8f9bb3" viewBox="0 0 36 36" xmlns:v="https://vecta.io/nano"><path opacity=".4" d="M15.881 1.875c.855 0 1.612-.002 2.325.251q.22.078.432.18c.682.328 1.216.866 1.82 1.475l7.174 7.211c.701.703 1.323 1.326 1.66 2.142s.334 1.7.333 2.694V18H10.5a3 3 0 0 0-3 3v7.5a3 3 0 0 0 3 3h17.416a6 6 0 0 1-.427.478c-1.17 1.177-2.644 1.683-4.394 1.92-1.686.227-3.83.227-6.488.227s-5.016 0-6.702-.228c-1.75-.236-3.224-.742-4.394-1.919s-1.674-2.658-1.91-4.417c-.226-1.694-.226-3.849-.226-6.522v-6.86l.171-5.63c.178-1.528.555-2.836 1.444-3.945A7.3 7.3 0 0 1 6.09 3.5c1.102-.894 2.404-1.273 3.923-1.45 1.468-.174 3.58-.174 5.868-.174"/><path fill-rule="evenodd" d="M18.638 2.306a4 4 0 0 0-1.402-.388v2.987l.174 4.312c.181 1.35.57 2.487 1.473 3.39s2.04 1.291 3.39 1.473c1.3.175 2.273.176 4.324.176h2.971a4.2 4.2 0 0 0-.277-1.122c-.336-.816-.958-1.44-1.659-2.142l-7.174-7.211c-.604-.609-1.138-1.147-1.82-1.475M10.5 19.874c-.621 0-1.125.504-1.125 1.125v7.5a1.125 1.125 0 0 0 2.25 0v-1.875h1.125a3.375 3.375 0 0 0 0-6.75zm2.25 4.5h-1.125v-2.25h1.125a1.125 1.125 0 1 1 0 2.25m6-4.5c-.621 0-1.125.504-1.125 1.125v7.5c0 .621.504 1.125 1.125 1.125h1.928c2.012 0 3.697-1.593 3.697-3.625v-2.5c0-2.032-1.685-3.625-3.697-3.625zm1.125 7.5v-5.25h.803c.83 0 1.447.645 1.447 1.375v2.5c0 .73-.617 1.375-1.447 1.375zm8.625-7.5a2.625 2.625 0 0 0-2.625 2.625v6a1.125 1.125 0 0 0 2.25 0v-2.625h2.625a1.125 1.125 0 0 0 0-2.25h-2.625v-1.125c0-.207.168-.375.375-.375h3a1.125 1.125 0 0 0 0-2.25z"/></svg>