<svg fill="none" xmlns="http://www.w3.org/2000/svg" viewBox="0 0 36 36"><path opacity=".4" d="M1.875 16.113v9.32l.043 1.67c.046.505.15 1.04.448 1.551a3.65 3.65 0 0 0 1.341 1.335c.516.296 1.533.43 2.041.476a5.13 5.13 0 0 0 4.922 3.66 5.13 5.13 0 0 0 4.919-3.648h4.822a5.13 5.13 0 0 0 9.841-.014c.508-.044 1.525-.178 2.04-.474a3.65 3.65 0 0 0 1.342-1.335c.297-.512.402-1.046.448-1.552.043-.47.043-1.038.043-1.67v-4.061c0-.488.002-.982-.133-1.466-.135-.485-.391-.908-.644-1.326l-2.579-4.276-.816-1.27c-.29-.39-.639-.76-1.131-1.04-.492-.279-.992-.383-1.478-.43-.439-.042-.956-.042-1.514-.042h-2.017c-.102-.758-.383-1.942-1.023-2.578s-1.42-.873-2.182-.975q-.45-.056-.902-.072.167.9.169 1.854c0 5.592-4.533 10.125-10.125 10.125-3.18 0-6.019-1.465-7.875-3.76" fill="#8F9BB3"/><path d="M23.862 24.128c.476-.14.97-.212 1.466-.212a5.13 5.13 0 0 1 4.914 3.63c.676 0 .95-.444.95-.713v-6.15l-3.815-6.245h-3.515zm-13.193 2.706c-1.215 0-2.2.98-2.2 2.186s.985 2.189 2.2 2.189 2.199-.98 2.199-2.19a2.19 2.19 0 0 0-2.2-2.185m14.659 0c-1.214 0-2.2.98-2.2 2.186s.986 2.189 2.2 2.189 2.2-.98 2.2-2.19a2.194 2.194 0 0 0-2.2-2.185" fill="#8F9BB3"/><path fill-rule="evenodd" clip-rule="evenodd" d="M9.75 1.875a7.875 7.875 0 1 0 0 15.75 7.875 7.875 0 0 0 0-15.75m1.125 5.174a1.125 1.125 0 1 0-2.25 0v3.375c0 .376.188.727.501.936l2.025 1.35a1.125 1.125 0 0 0 1.248-1.872l-1.524-1.016z" fill="#8F9BB3"/></svg>