<svg xmlns="http://www.w3.org/2000/svg" fill="#ff9a4d" viewBox="0 0 36 36" xmlns:v="https://vecta.io/nano"><path opacity=".4" d="m5.98 12.06.55-.4c.47-.28 1.24-.6 2.45-1.12.73-.3 1.04-1.1.7-1.74-.34-.65-1.22-.92-1.95-.6l-.1.03L4.9 9.5c-.67.4-1.53 1.06-1.53 2.15v14.18c0 1.68 1.2 2.82 2.72 3.74a65 65 0 0 0 6.94 3.25c2.12.9 3.5 1.5 4.96 1.5s2.84-.6 4.96-1.5q3.57-1.42 6.94-3.25c1.5-.92 2.73-2.06 2.73-3.74v-14.2c0-1.1-.87-1.74-1.54-2.14s-1.63-.8-2.72-1.26l-.1-.04c-.73-.3-1.6-.03-1.95.6-.34.66-.03 1.44.7 1.75l2.45 1.12.55.4c-.52.35-1.37.77-2.61 1.35l-4.38 2.1c-2.8 1.32-3.9 1.8-5.03 1.8s-2.23-.48-5.03-1.81L8.6 13.4 6 12.05"/><path fill-rule="evenodd" d="M8.48 19.67c.27-.56.94-.8 1.5-.53l3 1.42A1.13 1.13 0 1 1 12 22.6l-3-1.42c-.56-.26-.8-.94-.53-1.5m9.53-18c.83 0 1.5.68 1.5 1.5v3a1.5 1.5 0 1 1-3 0v-3c0-.82.67-1.5 1.5-1.5m-6.9 1.8a1.5 1.5 0 0 1 2.1.3l2.25 3a1.5 1.5 0 1 1-2.4 1.8l-2.25-3a1.5 1.5 0 0 1 .3-2.1m13.8 0c.66.5.8 1.44.3 2.1l-2.25 3a1.5 1.5 0 0 1-2.4-1.8l2.25-3a1.5 1.5 0 0 1 2.1-.3"/></svg>