<svg xmlns="http://www.w3.org/2000/svg" fill="#ff4e85" viewBox="0 0 36 36" fill-rule="evenodd" xmlns:v="https://vecta.io/nano"><path d="m9.104 11.77 11.469-5.614 3.325 1.574-11.47 5.615zm-2.61 5.725c.278-.556.954-.78 1.51-.503l3 1.5a1.125 1.125 0 0 1-1.007 2.012l-3-1.5a1.125 1.125 0 0 1-.503-1.51m27.191 3.944a1.5 1.5 0 0 1 0 2.12l-3.44 3.44 3.44 3.44a1.5 1.5 0 1 1-2.122 2.12l-3.439-3.44-3.44 3.44a1.5 1.5 0 0 1-2.12-2.12l3.44-3.44-3.44-3.44a1.5 1.5 0 0 1 2.121-2.12l3.44 3.439 3.44-3.44a1.5 1.5 0 0 1 2.12 0"/><path opacity=".4" d="M31.125 19.06c-.418.183-.81.445-1.152.787l-1.848 1.848-1.848-1.848a3.75 3.75 0 1 0-5.304 5.303L22.822 27l-1.849 1.848a3.75 3.75 0 0 0-.716 4.302c-1.484.607-2.593.976-3.757.976-1.458 0-2.83-.58-4.959-1.48L4.61 29.447c-1.509-.905-2.735-2.023-2.735-3.704V9.75c0-1.193.848-1.926 1.523-2.373s1.633-.9 2.72-1.414l4.668-2.212c2.347-1.113 3.955-1.876 5.714-1.876s3.367.763 5.714 1.876l4.668 2.212 2.72 1.414c.675.447 1.523 1.18 1.523 2.373zM16.5 4.74c-1.004 0-1.973.421-4.736 1.73L7.492 8.493 5.036 9.75c.478.316 1.24.68 2.456 1.257l4.936 2.337c2.263 1.064 3.153 1.417 4.072 1.417 1.005 0 1.973-.421 4.736-1.73l4.273-2.024 2.455-1.257c-.477-.316-1.24-.68-2.455-1.257l-4.937-2.337C18.31 5.092 17.42 4.74 16.5 4.74"/></svg>