<svg xmlns="http://www.w3.org/2000/svg" fill="#8f9bb3" viewBox="0 0 36 36"><path d="m6 12 .5-.3L9 10.5q1.1-.6.7-1.7-.7-1.1-2-.6L4.8 9.5c-.7.4-1.5 1-1.5 2.1v14.2c0 1.7 1.2 2.8 2.7 3.8a65 65 0 0 0 12 4.7 64 64 0 0 0 11.9-4.7c1.5-1 2.7-2 2.7-3.8V11.6c0-1-.8-1.7-1.5-2.1l-2.7-1.3h-.1q-1.3-.4-2 .6-.4 1 .7 1.7l2.5 1.2.5.4-2.6 1.3-4.4 2.1c-2.8 1.3-3.9 1.8-5 1.8s-2.2-.5-5-1.8l-4.4-2.1z" opacity=".4"/><path fill-rule="evenodd" d="M8.5 19.7q.6-.9 1.5-.6l3 1.5a1.1 1.1 0 1 1-1 2l-3-1.4q-1-.6-.5-1.5m9.5-18q1.4.2 1.5 1.5v3a1.5 1.5 0 1 1-3 0v-3q.1-1.3 1.5-1.5m-6.9 1.8a1.5 1.5 0 0 1 2.1.3l2.3 3A1.5 1.5 0 1 1 13 8.6l-2.3-3a1.5 1.5 0 0 1 .3-2.1m13.8 0q1 1 .3 2l-2.2 3a1.5 1.5 0 0 1-2.4-1.7l2.2-3a1.5 1.5 0 0 1 2.1-.3"/></svg>