<svg xmlns="http://www.w3.org/2000/svg" fill="#fff" viewBox="0 0 36 36"><path fill-rule="evenodd" d="M27.4 19.5q1.4.1 1.5 1.5v3.8h3.7a1.5 1.5 0 1 1 0 3H29v3.7a1.5 1.5 0 1 1-3 0v-3.7h-4a1.5 1.5 0 1 1 0-3h4V21q.1-1.4 1.5-1.5"/><path d="m9.1 11.8 11.5-5.6 3.3 1.5-11.5 5.7z"/><g fill-rule="evenodd"><path d="M4.8 17.5q.6-1 1.5-.5l3 1.5a1.1 1.1 0 0 1-1 2l-3-1.5a1 1 0 0 1-.5-1.5"/><path opacity=".4" d="M27.4 17.3a3.7 3.7 0 0 0-3.8 3.7v1.5h-1.5a3.7 3.7 0 1 0 0 7.5h1.5v1.7l-2.1 1c-2.2.9-3.5 1.4-5 1.4s-2.8-.5-5-1.4a65 65 0 0 1-6.9-3.2c-1.5-1-2.7-2-2.7-3.7v-16c0-1.2.8-2 1.5-2.4q1-.8 2.7-1.4l4.7-2.2q3.3-1.9 5.7-2c1.8 0 3.4.8 5.7 2L27 6l2.7 1.4c.7.4 1.5 1.2 1.5 2.4v8.4q0 1.5-.2 1.7-.2 0-1.3-1.3-1-1.2-2.2-1.3m-11-12.5c-1 0-2 .4-4.7 1.7l-4.3 2-2.4 1.3L7.5 11l5 2.4c2.2 1 3 1.4 4 1.4s2-.4 4.8-1.8l4.2-2L28 9.8q-.7-.5-2.5-1.3l-5-2.3c-2.2-1.1-3-1.4-4-1.4"/></g></svg>