<svg xmlns="http://www.w3.org/2000/svg" fill="#2699fb" viewBox="0 0 36 36" fill-rule="evenodd" xmlns:v="https://vecta.io/nano"><path opacity=".4" d="M27 17.62a9.37 9.37 0 0 0-6.99 15.63 9 9 0 0 1-3.51.88c-1.46 0-2.83-.58-4.96-1.48l-6.93-3.2c-1.5-.9-2.74-2.03-2.74-3.7v-16c0-1.2.85-1.93 1.53-2.37.67-.45 1.63-.9 2.72-1.42l4.67-2.2c2.34-1.12 3.95-1.88 5.71-1.88s3.37.76 5.71 1.87l4.67 2.21 2.72 1.42c.68.44 1.52 1.18 1.52 2.37v8.83a9 9 0 0 0-4.12-.96M16.5 4.74c-1 0-1.97.42-4.74 1.73L7.5 8.49 5.04 9.75c.47.32 1.24.68 2.45 1.26l4.94 2.33c2.26 1.07 3.15 1.42 4.07 1.42 1 0 1.97-.42 4.74-1.73l4.27-2.02 2.45-1.26c-.47-.32-1.24-.68-2.45-1.26l-4.94-2.33c-2.26-1.07-3.15-1.42-4.07-1.42"/><path d="m9.1 11.77 11.47-5.61 3.33 1.57-11.47 5.62zM6.5 17.5A1.1 1.1 0 0 1 8 17l3 1.5a1.13 1.13 0 0 1-1 2L7 19a1.13 1.13 0 0 1-.5-1.5m14.84 15.16a8 8 0 1 1 11.32-11.32 8 8 0 0 1-11.32 11.32m6.67-9.5c0-.64-.45-1.16-1-1.16-.56 0-1.01.52-1.01 1.17v3.9q0 .37.19.68.19.3.5.42l2.01.78q.39.13.76-.08.35-.22.49-.67.12-.45-.05-.88a1 1 0 0 0-.56-.59l-1.33-.5z"/></svg>