<svg xmlns="http://www.w3.org/2000/svg" fill="#8f9bb3" viewBox="0 0 36 36" xmlns:v="https://vecta.io/nano"><path d="M7.9 10.751L19.5 5l3.6 1.749-11.6 5.751z"/><g fill-rule="evenodd"><path d="M6.5 17.499a1.101 1.101 0 0 1 1.5-.5l3 1.5a1.13 1.13 0 0 1-.212 1.97 1.13 1.13 0 0 1-.788.03l-3-1.5a1.1 1.1 0 0 1-.5-1.5"/><path opacity=".4" d="M25.16 16a9.15 9.15 0 0 0-5.76 16.26c-1.5.61-2.6 1-3.77 1-1.46 0-2.83-.59-4.96-1.49a67 67 0 0 1-6.93-3.2c-1.5-.9-2.74-2.03-2.74-3.7v-16c0-1.2.85-1.93 1.53-2.37.67-.45 1.63-.9 2.72-1.42l4.67-2.2C12.26 1.76 13.87 1 15.62 1c1.77 0 3.38.76 5.72 1.87l4.67 2.21 2.72 1.42c.67.45 1.52 1.18 1.52 2.37v8.68a9 9 0 0 0-5.1-1.55M15.63 3.86c-1 0-1.97.42-4.74 1.73L6.63 7.62 4.18 8.88c.47.32 1.24.68 2.45 1.26l4.94 2.33c2.26 1.07 3.15 1.42 4.07 1.42 1 0 1.97-.42 4.74-1.73l4.27-2.02 2.45-1.26c-.47-.32-1.24-.68-2.45-1.26l-4.94-2.33c-2.26-1.07-3.15-1.42-4.07-1.42"/><path d="M18 25.578a7.577 7.577 0 0 1 3.06-6.085 7.575 7.575 0 0 1 10.822 10.283l2.547 2.533a1.5 1.5 0 1 1-2.116 2.128l-2.554-2.542A7.576 7.576 0 0 1 18 25.578m7.575-4.575a4.576 4.576 0 0 0-4.227 2.824 4.573 4.573 0 0 0 2.476 5.977 4.576 4.576 0 0 0 4.986-7.462 4.575 4.575 0 0 0-3.235-1.34"/></g></svg>