<svg xmlns="http://www.w3.org/2000/svg" fill="#8f9bb3" viewBox="0 0 36 36" xmlns:v="https://vecta.io/nano"><path opacity=".4" d="m6.4 11.38.13-.09c.48-.29 1.24-.63 2.46-1.17l2.33-1.02c.73-.32 1.04-1.12.69-1.78a1.54 1.54 0 0 0-1.96-.63L7.72 7.72 4.9 9.08c-.67.41-1.53 1.1-1.53 2.2v14.67c0 1.68 1.23 2.8 2.74 3.7 1.53.91 4.1 2 6.93 3.19 2.13.9 3.5 1.47 4.96 1.47s2.83-.58 4.96-1.47l6.93-3.2c1.5-.9 2.73-2.01 2.73-3.69V11.3c0-1.11-.84-1.8-1.52-2.21a25 25 0 0 0-2.72-1.31L25.95 6.7c-.73-.32-1.6-.05-1.95.62-.36.66-.05 1.46.68 1.78L27 10.12l2.46 1.17.14.1q.1.07.13.2c.04.17 0 .37-.16.46q-.74.42-2.18 1.1l-4.38 2.11c-2.8 1.35-3.88 1.85-5.02 1.85s-2.22-.5-5.02-1.85L8.6 13.15l-2.18-1.1c-.16-.1-.2-.29-.16-.46a.4.4 0 0 1 .13-.2"/><path fill-rule="evenodd" d="M8 19.23a1.1 1.1 0 0 1 1.5-.5l3 1.49a1.12 1.12 0 1 1-1 2.01l-3-1.5a1.1 1.1 0 0 1-.5-1.5m14.06-17.1a1.5 1.5 0 0 1 0 2.12l-1.94 1.94 1.94 1.94a1.5 1.5 0 0 1-2.12 2.12L18 8.3l-1.94 1.94a1.5 1.5 0 0 1-2.12-2.12l1.94-1.94-1.94-1.94a1.5 1.5 0 1 1 2.12-2.12L18 4.07l1.94-1.94a1.5 1.5 0 0 1 2.12 0"/></svg>