<svg xmlns="http://www.w3.org/2000/svg" fill="#8f9bb3" viewBox="0 0 36 36" fill-rule="evenodd" xmlns:v="https://vecta.io/nano"><path d="m12.1 11.77 11.47-5.61 3.33 1.57-11.47 5.61zM1.88 19.5c0-.83.67-1.5 1.5-1.5h4.5a1.5 1.5 0 1 1 0 3h-4.5a1.5 1.5 0 0 1-1.5-1.5m0 4.5c0-.83.67-1.5 1.5-1.5h4.5a1.5 1.5 0 1 1 0 3h-4.5a1.5 1.5 0 0 1-1.5-1.5m0 4.5c0-.83.67-1.5 1.5-1.5h4.5a1.5 1.5 0 1 1 0 3h-4.5a1.5 1.5 0 0 1-1.5-1.5"/><path opacity=".4" d="M6.38 15.75c-.7 0-1.07 0-1.29-.22s-.2-.57-.2-1.28v-4.5c0-1.2.83-1.93 1.51-2.37.67-.45 1.63-.9 2.72-1.42l4.67-2.2c2.34-1.12 3.95-1.88 5.71-1.88s3.37.76 5.71 1.87l4.67 2.21 2.72 1.42c.67.45 1.52 1.18 1.52 2.37v16c0 1.67-1.22 2.8-2.73 3.7-1.53.91-4.1 2-6.93 3.2-2.13.9-3.5 1.48-4.96 1.48s-2.83-.58-4.96-1.48l-2-.86c-.45-.19-.67-.28-.79-.47-.13-.19-.13-.42-.13-.9V19.5a3.75 3.75 0 0 0-3.75-3.75zm13.12-11c-1 0-1.97.41-4.74 1.72L10.5 8.5 8.05 9.76c.47.32 1.24.68 2.45 1.26l4.94 2.33c2.26 1.07 3.15 1.42 4.07 1.42 1 0 1.97-.42 4.74-1.73l4.27-2.02 2.45-1.26c-.47-.32-1.24-.68-2.45-1.26l-4.94-2.33c-2.26-1.07-3.15-1.42-4.07-1.42"/></svg>