<svg xmlns="http://www.w3.org/2000/svg" fill="#44cb8c" viewBox="0 0 36 36" xmlns:v="https://vecta.io/nano"><path opacity=".4" fill-rule="evenodd" d="M20.55 33.03A5.1 5.1 0 0 1 18 29c0-2 1.5-3.5 3-3.5 1 0 1.64.1 2.51.6a7 7 0 0 1 1.5 1.4l3-3 3.12-3.5V9.75c0-1.2-.85-1.93-1.53-2.37-.67-.45-1.63-.9-2.72-1.42l-4.67-2.2c-2.34-1.12-3.95-1.88-5.7-1.88-1.77 0-3.38.76-5.72 1.87L6.12 5.96 3.4 7.38c-.67.45-1.52 1.18-1.52 2.37v16c0 1.67 1.22 2.8 2.73 3.7 1.53.91 4.1 2 6.93 3.2 2.13.9 3.5 1.48 4.96 1.48 1.24 0 2.42-.42 4.05-1.1M16.5 4.73c-1 0-1.97.43-4.74 1.74L7.5 8.5 5.05 9.76c.47.32 1.24.68 2.45 1.26l4.94 2.33c2.26 1.07 3.15 1.42 4.07 1.42 1 0 1.97-.42 4.74-1.73l4.27-2.02 2.45-1.26c-.47-.32-1.24-.68-2.45-1.26l-4.94-2.33c-2.26-1.07-3.15-1.42-4.07-1.42"/><path d="m9.1 11.77 11.47-5.61 3.33 1.57-11.47 5.62zM6.5 17.5A1.1 1.1 0 0 1 8 17l3 1.5a1.13 1.13 0 0 1-1 2L7 19a1.13 1.13 0 0 1-.5-1.5m28.13 7.8c.52-.56.49-1.43-.08-1.94a1.4 1.4 0 0 0-1.98.09l-6.71 7.19-2.47-2.42a1.4 1.4 0 0 0-1.98 0c-.55.53-.55 1.4 0 1.94l3.5 3.44a1.4 1.4 0 0 0 2.02-.05z"/></svg>