<svg xmlns="http://www.w3.org/2000/svg" fill="#8f9bb3" viewBox="0 0 36 36"><path d="m27.36 34.9-8.53-4.13a1.2 1.2 0 0 1-.58-.67q-.16-.45.03-.9l6.04-13.51a1.1 1.1 0 0 1 1.5-.57l8.53 4.13c.56.27.8.97.54 1.56l-6.03 13.51q-.2.44-.64.6t-.86-.02m-20.6-1.48L1.1 19.73a1.2 1.2 0 0 1 .6-1.55l2.8-1.25L8 30.63a2.5 2.5 0 0 0 1.1 1.5 2.3 2.3 0 0 0 1.8.25l2.79-.78-5.44 2.44a1.1 1.1 0 0 1-1.48-.62m2.42-3.11L5.51 15.9c-.16-.63.2-1.27.8-1.44l2.43-.67-.29 2.26c-.08.65.08 1.3.46 1.82s.95.86 1.57.95l5.7.8-2.32 8.15a2.6 2.6 0 0 0 .5 2.31l-3.8 1.05c-.6.17-1.2-.2-1.37-.83m7.76-.36-1.14-.35q-.45-.15-.67-.57c-.15-.27-.18-.6-.1-.9l4.08-14.29q.15-.46.55-.69.41-.21.85-.1l3.51 1.1h.01q-.56.38-.84 1l-6.04 13.52q-.27.61-.21 1.28" fill-opacity=".4"/><path d="m16.14 19-6.12-.84A1.2 1.2 0 0 1 9 16.83l2-14.81A1.2 1.2 0 0 1 12.32 1l9.66 1.31a1.2 1.2 0 0 1 1.01 1.33l-1.22 9.1-1.14-.33a2.43 2.43 0 0 0-3.04 1.66zm-.38-2.35q.5-.34.62-.98a1.4 1.4 0 0 0-.29-1.12 1.7 1.7 0 0 0-1.08-.6 1.7 1.7 0 0 0-1.25.22 1.4 1.4 0 0 0-.6 1.56q.07.3.26.53.44.52 1.1.61.7.11 1.24-.22m1.92-6.07q.53-.3.93-.6a4 4 0 0 0 1.22-1.43 4 4 0 0 0 .23-2.47 3 3 0 0 0-.66-1.14q-.48-.5-1.13-.77-.67-.3-1.5-.44a7 7 0 0 0-1.69-.08q-.82.08-1.59.38l-.44 2.66a4.7 4.7 0 0 1 3.03-.68c1.59.3 1.44 1.85.65 2.53q-.56.48-1.19.86c-.77.44-2.05 1.72-1.67 3.36l2.32.4c-.52-1.33.87-2.2 1.49-2.58"/></svg>