<svg xmlns="http://www.w3.org/2000/svg" fill="#8f9bb3" viewBox="0 0 36 36" xmlns:v="https://vecta.io/nano"><path d="M2.2 13.98C1 13.98 1 13.65 1 13V8.65Q1 7.5 2.2 7.5h8.12l-.7-.65q-.86-.98 0-1.63a1.8 1.8 0 0 1 1.74 0l3.1 2.77q.87.83 0 1.64l-3.1 2.77q-.87.83-1.73 0-.87-.8 0-1.63l1.03-1.14H3.6v3.26c0 .77 0 1.09-1.38 1.09M33.8 22.7c1.2 0 1.2.43 1.2.97v4.57q-.18 1.15-1.38 1.15h-7.94l.7.65q.86.98 0 1.63-.87.66-1.74 0l-3.1-2.94q-.69-.65 0-1.63l3.28-2.78a1.8 1.8 0 0 1 1.72 0q.87.83 0 1.64l-1.2 1.14h7.24v-3.27c0-.87-.08-1.14 1.21-1.14"/><path opacity=".4" d="M27.15 1H29l.25.1c.38.16.69.45 1.04.77l3.76 4c.4.37.76.7.95 1.13v4.1l-.13 3.44a3.7 3.7 0 0 1-1.1 2.33 4.2 4.2 0 0 1-2.5 1c-.97.13-2.19.13-3.7.13-1.53 0-2.87 0-3.83-.12a4.4 4.4 0 0 1-2.52-1.01 3.7 3.7 0 0 1-1.08-2.33C20 13.64 20 12.5 20 11.1V7.5l.1-2.97c.05-.75.34-1.48.83-2.09q.29-.3.62-.58a4.4 4.4 0 0 1 2.24-.76c.84-.1 2.05-.1 3.36-.1"/><path d="M29.47 1.1q.12.03.22.09c.33.15.58.42.88.71l3.49 3.51c.34.34.64.65.8 1.04q.1.27.14.55h-1.44c-1 0-1.48 0-2.1-.09q-.95-.08-1.66-.71a2.7 2.7 0 0 1-.71-1.65C29 3.9 29 3.45 29 2.45V1q.24.03.48.1"/><path fill-rule="evenodd" d="M32 14.18c0-.45-.32-.82-.71-.82H23.7a.7.7 0 0 0-.5.24 1 1 0 0 0-.21.58q0 .34.2.58.22.23.51.24h7.58c.39 0 .71-.36.71-.82M28.21 9.8c0-.45-.31-.81-.71-.81h-3.8a.7.7 0 0 0-.5.24 1 1 0 0 0-.21.58q0 .33.2.58.22.23.51.24h3.79c.39 0 .71-.37.71-.83"/><path opacity=".4" d="M8.15 18H10q.12.03.25.1c.38.16.69.45 1.04.77l3.76 4c.4.37.76.7.95 1.13v4.1l-.13 3.44a3.7 3.7 0 0 1-1.1 2.33 4.2 4.2 0 0 1-2.5 1c-.97.13-2.19.13-3.7.13-1.53 0-2.87 0-3.83-.12a4.4 4.4 0 0 1-2.52-1.01 3.7 3.7 0 0 1-1.08-2.33C1 30.64 1 29.5 1 28.1v-3.6l.1-2.97c.05-.75.34-1.48.83-2.09q.29-.3.62-.58a4.4 4.4 0 0 1 2.24-.76c.84-.1 2.05-.1 3.36-.1"/><path d="M10.47 18.1q.12.03.22.09c.33.15.58.42.88.71l3.49 3.51c.34.34.64.65.8 1.04q.1.27.14.55h-1.44c-1 0-1.48 0-2.1-.09q-.95-.08-1.66-.71a2.7 2.7 0 0 1-.71-1.65c-.09-.64-.09-1.1-.09-2.1V18q.24.03.48.1"/><path fill-rule="evenodd" d="M13 31.18c0-.45-.32-.82-.71-.82H4.7a.7.7 0 0 0-.5.24 1 1 0 0 0-.21.58q0 .34.2.58.22.23.51.24h7.58c.39 0 .71-.36.71-.82M9.21 26.8c0-.45-.31-.81-.71-.81H4.7a.7.7 0 0 0-.5.24 1 1 0 0 0-.21.58q0 .33.2.58.22.23.51.24h3.8c.39 0 .71-.37.71-.83"/></svg>