<svg xmlns="http://www.w3.org/2000/svg" fill="none" viewBox="0 0 32 32" stroke="#fff" stroke-width="1.5" stroke-linecap="round" stroke-linejoin="round" xmlns:v="https://vecta.io/nano"><path d="m10.504 4 2.019 1.974-1.976 2.02"/><path d="M12.487 5.942h-1.996A4.99 4.99 0 0 0 5.5 10.933M21.275 28l-2.02-1.975 1.977-2.017m-1.941 2.05h1.997a4.99 4.99 0 0 0 4.99-4.99M10.82 16.281c.363 0 .71.148.962.41l2.469 2.571c.239.25.372.58.372.925v5.392a2.423 2.423 0 0 1-2.423 2.422H7.52a2.42 2.42 0 0 1-2.424-2.422v-6.876a2.423 2.423 0 0 1 2.423-2.422zM23.099 4c.363 0 .71.148.962.41l2.47 2.571c.238.25.372.58.372.925v5.392a2.423 2.423 0 0 1-2.424 2.422H19.8a2.423 2.423 0 0 1-2.424-2.422V6.422A2.423 2.423 0 0 1 19.799 4z"/></svg>