<svg xmlns="http://www.w3.org/2000/svg" fill="#8f9bb3" viewBox="0 0 36 36" xmlns:v="https://vecta.io/nano"><path opacity=".4" fill-rule="evenodd" d="M8.854 1.507a1.5 1.5 0 0 1 .292 2.986c-1.873.183-2.8.571-3.44 1.212s-1.03 1.568-1.213 3.441a1.5 1.5 0 0 1-2.986-.292c.21-2.134.708-3.9 2.077-5.27s3.136-1.868 5.27-2.077m16.653 1.347a1.5 1.5 0 0 1 1.64-1.347c2.133.21 3.9.708 5.27 2.077s1.868 3.136 2.076 5.27a1.5 1.5 0 0 1-2.986.292c-.183-1.873-.57-2.8-1.212-3.44s-1.568-1.03-3.44-1.213a1.5 1.5 0 0 1-1.348-1.639M13.5 3A1.5 1.5 0 0 1 15 1.5h6a1.5 1.5 0 1 1 0 3h-6A1.5 1.5 0 0 1 13.5 3m-12 12a1.5 1.5 0 0 1 3 0v6a1.5 1.5 0 1 1-3 0zm.007 12.146a1.5 1.5 0 1 1 2.986-.292c.183 1.873.571 2.8 1.212 3.441s1.568 1.03 3.441 1.212a1.5 1.5 0 0 1-.292 2.986c-2.134-.208-3.9-.707-5.27-2.077s-1.868-3.136-2.077-5.27"/><path opacity=".4" d="M23.968 13h.064l1.553.036c.442.038.843.118 1.229.31.687.34 1.122.88 1.427 1.423.236.42.42.893.576 1.294l.106.27.304.76c1.154.006 1.98.033 2.695.332a4.32 4.32 0 0 1 2.216 2.109c.205.424.309.88.378 1.41.067.515.107 1.152.156 1.948l.163 2.656.13 4.792c-.093 1.266-.39 2.298-1.156 3.124s-1.77 1.194-3.015 1.367c-1.21.169-2.766.169-4.73.169h-4.128c-1.964 0-3.52 0-4.73-.169-1.246-.173-2.248-.54-3.015-1.367s-1.063-1.858-1.155-3.124c-.091-1.232.006-2.804.129-4.792l.163-2.656.156-1.949c.07-.53.173-.985.378-1.409a4.32 4.32 0 0 1 2.216-2.109c.714-.3 1.542-.326 2.695-.331l.305-.761.105-.27.576-1.294c.305-.542.74-1.083 1.428-1.424.386-.19.786-.271 1.229-.309.422-.036.934-.036 1.552-.036"/><path fill-rule="evenodd" d="M22 18c0-1.105.891-2 1.991-2 1.092 0 2.009.896 2.009 2s-.917 2-2.009 2c-1.1 0-1.991-.895-1.991-2"/><path d="M19 28a5 5 0 1 1 10 0 5 5 0 0 1-10 0"/></svg>