<svg xmlns="http://www.w3.org/2000/svg" fill="#fff" viewBox="0 0 36 36" xmlns:v="https://vecta.io/nano"><path d="M29.35 22.42a3.1 3.1 0 0 1 3.1 0c.37.2.77.6 1.15.98.36.37.77.78.98 1.13a3.1 3.1 0 0 1 0 3.1 5 5 0 0 1-.9 1.06l-4.6 4.6q-.91.85-2.1 1.12c-.35.1-1.65.33-1.96.38l-1.19.2a1.8 1.8 0 0 1-1.37-.45 1.8 1.8 0 0 1-.45-1.38c0-.35.1-.77.19-1.19l.38-1.95c.18-.7.48-1.46 1.1-2.1l4.62-4.6q.53-.58 1.05-.9"/><path opacity=".4" d="M34.83 14.12c.14.14.14.36.15.78q.03 1.84.02 4.06v.18q0 .5-.04.6a.4.4 0 0 1-.37.27c-.1 0-.29-.05-.66-.18a6.3 6.3 0 0 0-4.97.39q-.9.56-1.62 1.33l-.08.07-5.25 5.23a7.3 7.3 0 0 0-1.88 3.46c-.12.47-.4 1.94-.47 2.35v.03c-.09.42-.22 1.04-.26 1.6l-.05.4a.4.4 0 0 1-.28.27q-.1.03-.35.02-4.02.1-8.02-.28c-2.14-.28-3.85-.88-5.2-2.22-1.32-1.33-1.94-3.03-2.22-5.18C3 25.23 3 22.54 3 19.14v-.18q0-2.22.02-4.06c0-.42 0-.64.15-.78.13-.12.35-.12.78-.12h30.1c.43 0 .65 0 .78.12"/><path d="M18.9 3h.2l8.32.3c2.18.29 3.9.93 5.27 2.33s1.98 3.2 2.26 5.45c.05.33.08.52 0 .66l-.15.16c-.12.1-.3.1-.63.1H3.84c-.35 0-.53 0-.64-.1l-.15-.17c-.08-.13-.05-.3 0-.66.28-2.24.9-4.03 2.26-5.44 1.36-1.4 3.1-2.04 5.28-2.34C12.7 3 15.44 3 18.9 3"/><path fill-rule="evenodd" d="M9 20.09c0-.6.54-1.09 1.21-1.09h1.62a1.3 1.3 0 0 1 .86.32q.17.15.26.35a1 1 0 0 1-.26 1.19q-.17.15-.4.24-.21.08-.46.08H10.2a1.3 1.3 0 0 1-.87-.31q-.16-.16-.26-.36a1 1 0 0 1-.08-.42m6.48 0c0-.6.54-1.09 1.2-1.09h8.1a1.3 1.3 0 0 1 .86.32q.17.15.27.35a1 1 0 0 1 0 .84q-.09.2-.27.35-.16.15-.39.24-.22.08-.46.08h-8.1a1.3 1.3 0 0 1-.87-.31q-.17-.16-.26-.36a1 1 0 0 1-.08-.42M9 25.9c0-.6.54-1.08 1.21-1.08h1.62q.5 0 .86.32.35.32.35.77 0 .45-.35.77-.36.31-.86.32H10.2a1.3 1.3 0 0 1-.87-.32q-.16-.15-.26-.35A1 1 0 0 1 9 25.9m6.48 0c0-.6.54-1.08 1.2-1.08h2.44q.5 0 .86.32.34.32.35.77-.01.45-.35.77-.36.31-.86.32h-2.43a1.3 1.3 0 0 1-.87-.32q-.17-.15-.26-.35a1 1 0 0 1-.08-.43"/></svg>