<svg fill="none" xmlns="http://www.w3.org/2000/svg" viewBox="0 0 36 36"><path opacity=".4" d="M18.09 4.875H7.648l-2.517.093c-.762.102-1.543.338-2.183.975-.36.359-.593.762-.746 1.182H12a3.375 3.375 0 0 1 .181 6.745A3.373 3.373 0 0 1 9 18.375H1.875v4.059l.043 1.67c.046.505.15 1.04.448 1.552a3.65 3.65 0 0 0 1.341 1.335c.516.296 1.533.429 2.041.475a5.13 5.13 0 0 0 4.922 3.659 5.13 5.13 0 0 0 4.919-3.646h4.822a5.13 5.13 0 0 0 9.841-.014c.508-.045 1.525-.178 2.04-.474a3.65 3.65 0 0 0 1.342-1.335c.297-.512.402-1.047.448-1.552.043-.471.043-1.04.043-1.67v-4.065c0-.488.002-.981-.133-1.465s-.391-.907-.644-1.325l-2.579-4.276-.816-1.27c-.29-.39-.639-.761-1.131-1.039s-.992-.384-1.478-.43c-.439-.043-.956-.043-1.514-.043h-2.017c-.102-.758-.383-1.942-1.023-2.578s-1.42-.873-2.182-.975c-.697-.093-1.559-.093-2.518-.093" fill="#8F9BB3"/><path fill-rule="evenodd" clip-rule="evenodd" d="M1.875 10.5c0-.621.504-1.125 1.125-1.125h9a1.125 1.125 0 0 1 0 2.25H3A1.125 1.125 0 0 1 1.875 10.5m0 4.5c0-.621.504-1.125 1.125-1.125h6a1.125 1.125 0 1 1 0 2.25H3A1.125 1.125 0 0 1 1.875 15" fill="#8F9BB3"/><path d="M23.862 21.128c.476-.14.97-.212 1.466-.212a5.13 5.13 0 0 1 4.914 3.63c.676 0 .95-.444.95-.713v-6.15l-3.815-6.245h-3.515zm-13.193 2.706c-1.215 0-2.2.98-2.2 2.186s.985 2.189 2.2 2.189 2.199-.98 2.199-2.19a2.19 2.19 0 0 0-2.2-2.185m14.659 0c-1.214 0-2.2.98-2.2 2.186s.986 2.189 2.2 2.189 2.2-.98 2.2-2.19a2.194 2.194 0 0 0-2.2-2.185" fill="#8F9BB3"/></svg>