<svg xmlns="http://www.w3.org/2000/svg" fill="#8f9bb3" viewBox="0 0 36 36" xmlns:v="https://vecta.io/nano"><path d="M26.25 2.25a6 6 0 1 0 0 12 6 6 0 0 0 0-12m-18 9a6 6 0 1 0 0 12 6 6 0 0 0 0-12m19.5 10.5a6 6 0 1 0 0 12 6 6 0 0 0 0-12"/><path opacity=".4" fill-rule="evenodd" d="M20.06 8.25c-4.06 0-7.58 2.22-9.39 5.47l-2.62-1.45A13.7 13.7 0 0 1 22 5.4l-.42 2.97q-.74-.1-1.53-.1m10.7 10.5c0-2.49-.89-4.77-2.35-6.57l2.32-1.9a13.3 13.3 0 0 1 1.37 14.88l-2.63-1.44a10.3 10.3 0 0 0 1.28-4.98M9.7 21.35a10.66 10.66 0 0 0 10.36 7.9q1.76 0 3.3-.52l.92 2.86q-2 .64-4.22.65c-6.37 0-11.74-4.3-13.26-10.14z"/></svg>