<svg xmlns="http://www.w3.org/2000/svg" fill="#8f9bb3" viewBox="0 0 36 36" xmlns:v="https://vecta.io/nano"><path opacity=".4" fill-rule="evenodd" d="M18.15 4.5a1.5 1.5 0 0 1-1.5 1.5l-6.21.29c-1.45.23-2.29.63-2.9 1.25-.67.66-1.08 1.58-1.3 3.25A61 61 0 0 0 6 18l.23 7.2c.23 1.68.64 2.6 1.3 3.26.67.67 1.6 1.08 3.26 1.3 1.72.24 3.99.24 7.21.24l7.2-.23c1.68-.23 2.6-.64 3.26-1.3.62-.62 1.02-1.46 1.25-2.9.25-1.5.29-3.46.29-6.22a1.5 1.5 0 1 1 3 0l-.32 6.7a8 8 0 0 1-2.1 4.53c-1.3 1.32-2.97 1.89-4.97 2.16-1.94.26-4.41.26-7.5.26h-.22c-3.09 0-5.56 0-7.5-.26-2-.27-3.66-.84-4.97-2.16-1.32-1.31-1.89-2.97-2.16-4.97C3 23.67 3 21.2 3 18.1v-.22l.26-7.5c.27-2 .84-3.66 2.16-4.97a8 8 0 0 1 4.54-2.1c1.77-.28 3.98-.32 6.69-.32a1.5 1.5 0 0 1 1.5 1.5"/><path d="M24.94 3.09a28 28 0 0 1 5.51.09q.99.18 1.63.87l.01.01q.57.61.73 1.49c.28 1.57.17 4.2.1 5.5a1.97 1.97 0 0 1-3.37 1.28L27.7 10.5l-4.1 4.07a1.528 1.528 0 1 1-2.15-2.17l4.1-4.06-1.88-1.88a1.97 1.97 0 0 1 1.27-3.36"/></svg>