<svg xmlns="http://www.w3.org/2000/svg" fill="#8f9bb3" viewBox="0 0 36 36" xmlns:v="https://vecta.io/nano"><path fill-rule="evenodd" d="M1.875 25.5A2.625 2.625 0 0 1 4.5 22.875h3a1.125 1.125 0 1 1 0 2.25h-3a.375.375 0 0 0-.375.375v.75c0 .207.168.375.375.375H6a2.625 2.625 0 0 1 2.625 2.625V30A2.625 2.625 0 0 1 6 32.625H3a1.125 1.125 0 1 1 0-2.25h3A.375.375 0 0 0 6.375 30v-.75A.375.375 0 0 0 6 28.875H4.5a2.625 2.625 0 0 1-2.625-2.625zm8.25 0a2.625 2.625 0 0 1 2.625-2.625h1.5a2.625 2.625 0 0 1 2.625 2.625V30a2.625 2.625 0 0 1-2.625 2.625h-1.5A2.625 2.625 0 0 1 10.125 30zm2.625-.375a.375.375 0 0 0-.375.375V30c0 .207.168.375.375.375h1.5a.375.375 0 0 0 .375-.375v-4.5a.375.375 0 0 0-.375-.375zm5.625.375A2.625 2.625 0 0 1 21 22.875h1.5a2.625 2.625 0 0 1 2.625 2.625V30a2.625 2.625 0 0 1-2.625 2.625H21A2.625 2.625 0 0 1 18.375 30zM21 25.125a.375.375 0 0 0-.375.375V30c0 .207.168.375.375.375h1.5a.375.375 0 0 0 .375-.375v-4.5a.375.375 0 0 0-.375-.375zm6.412-2.198c.468-.148.978.026 1.26.428l3.203 4.576v-3.93a1.125 1.125 0 0 1 2.25 0v7.5a1.125 1.125 0 0 1-2.047.644l-3.203-4.576V31.5a1.125 1.125 0 1 1-2.25 0V24c0-.49.318-.925.787-1.073"/><path opacity=".4" d="M9.375 12a8.625 8.625 0 1 0 17.25 0 8.625 8.625 0 0 0-17.25 0"/><path fill-rule="evenodd" d="M18 7.125c.621 0 1.125.504 1.125 1.125v2.94l1.48.493a1.125 1.125 0 0 1-.71 2.134l-2.25-.75a1.125 1.125 0 0 1-.77-1.067V8.25c0-.621.504-1.125 1.125-1.125"/></svg>