<svg xmlns="http://www.w3.org/2000/svg" fill="none" viewBox="0 0 24 24" stroke="#8f9bb3" stroke-width="1.5" stroke-linecap="round" stroke-linejoin="round"><path d="m13.72 8-2.8 1.03c-.96.37-1.84-.07-2.22-1l-.67-1.68c-.38-.94-.04-1.82.94-2.19l2.79-1.03c.98-.37 1.85.07 2.23 1l.66 1.68c.38.94.04 1.82-.93 2.2m2.9 6.9-2.79 1.03c-.97.36-1.85-.08-2.23-1l-.66-1.69c-.38-.94-.04-1.82.93-2.18l2.8-1.04c.97-.36 1.84.07 2.22 1l.67 1.7c.38.92.04 1.81-.94 2.17"/><path opacity=".4" d="m3 6.74 2.16.6 4.7 11.2m1.85.68 8.29-3.2m-8.2 3.64a1.33 1.33 0 0 0-1.4-1.26c-.74.03-1.33.62-1.3 1.34.02.72.64 1.28 1.39 1.26a1.3 1.3 0 0 0 1.31-1.34"/></svg>