<svg xmlns="http://www.w3.org/2000/svg" fill="none" viewBox="0 0 85 57"><g fill-rule="evenodd"><path d="m52.7 20.3-8.4 6.8a6 6 0 0 1-3.8 1.3q-2 0-3.7-1.2l-8.5-6.9c-.7-.5-.8-1.6-.3-2.2q1-1 2.3-.3l8.4 6.8q1.8 1.3 3.6 0l8.4-6.8q1.2-.7 2.3.3c.5.6.4 1.7-.3 2.2m4.8-9.3L44.3 1.8h-.1q-1.7-1-3.7-1t-3.7 1h-.1L23.5 11a8 8 0 0 0-3.2 6.2v12.6c0 6.5 4.1 10.5 10.8 10.5h18.8c6.7 0 10.8-4 10.8-10.5V17.2q0-3.7-3.2-6.2" fill="url(#a)"/><path opacity=".4" d="M82.5 37.8a11.7 11.7 0 0 0-17.4-1 12 12 0 0 0-2.3 13.1l1.2 2.3v.6l-1 1.3q-.4.9 0 1.7.5 1 1.4 1h8.9q5.4-.2 9-4.2c3.5-4.3 3.6-10.5.2-14.8" fill="url(#b)"/><path opacity=".4" d="M1.8 4.2A7.4 7.4 0 0 1 13 3.5a8 8 0 0 1 1.5 8.4l-.8 1.4v.4l.6.9q.3.5 0 1a1 1 0 0 1-.9.6H7.7q-3.4-.1-5.7-2.6a7.5 7.5 0 0 1-.2-9.4" fill="url(#c)"/></g><defs><linearGradient id="a" x1="40.5" y1="25.2" x2="40.5" y2="40.3" gradientUnits="userSpaceOnUse"><stop stop-color="#5392ff"/><stop offset="1" stop-color="#1d70ff"/></linearGradient><linearGradient id="b" x1="73.3" y1="33.3" x2="73.3" y2="56.7" gradientUnits="userSpaceOnUse"><stop stop-color="#5392ff"/><stop offset="1" stop-color="#1d70ff"/></linearGradient><linearGradient id="c" x1="7.7" y1="1.3" x2="7.7" y2="16.2" gradientUnits="userSpaceOnUse"><stop stop-color="#5392ff"/><stop offset="1" stop-color="#1d70ff"/></linearGradient></defs></svg>