<svg xmlns="http://www.w3.org/2000/svg" width="1410" height="1166" fill="none" xmlns:v="https://vecta.io/nano"><path d="M86.385 507.694L926.323 161.66c82.917-36.02 364.097-151.364 364.097-151.364s129.81-50.488 118.93 72.14c-3.59 50.488-32.43 227.097-61.26 418.173l-90.1 565.941s-7.19 82.92-68.45 97.29c-61.26 14.47-162.24-50.49-180.2-64.86-14.469-10.77-270.401-173.014-364.094-252.338-25.244-21.652-54.08-64.856 3.592-115.344C777.302 613.58 903.479 493.39 1027.3 370.797c43.3-43.304 86.51-144.18-93.693-21.652L425.334 691.586s-57.672 36.02-165.833 3.592-234.28-75.732-234.28-75.732-86.608-54.08 61.164-111.752z" fill="#fff"/></svg>