<svg fill="none" xmlns="http://www.w3.org/2000/svg" viewBox="0 0 36 36"><path opacity=".4" d="M8.55 9.82C11.17 7.75 14.55 6 18.5 6s7.33 1.75 9.95 3.82a31 31 0 0 1 5.73 6.15c.38.53.82 1.16.82 2.03s-.44 1.5-.82 2.03a31 31 0 0 1-5.73 6.15c-2.62 2.07-6 3.82-9.95 3.82s-7.33-1.75-9.95-3.82a31 31 0 0 1-5.73-6.15A3.5 3.5 0 0 1 2 18c0-.87.44-1.5.82-2.03a31 31 0 0 1 5.73-6.15" fill="#8F9BB3"/><path fill-rule="evenodd" clip-rule="evenodd" d="M13 18.5a5.5 5.5 0 1 0 11 0 5.5 5.5 0 0 0-11 0" fill="#8F9BB3"/></svg>