<svg xmlns="http://www.w3.org/2000/svg" fill="#8f9bb3" viewBox="0 0 36 36" fill-rule="evenodd" xmlns:v="https://vecta.io/nano"><path opacity=".4" d="M19.54 3h-3.08l-7.14.27c-1.93.28-3.53.88-4.8 2.24-1.24 1.35-1.77 3.03-2.02 5.06-.25 1.98-.25 4.51-.25 7.7v.97l.25 7.69c.25 2.03.78 3.72 2.03 5.06 1.25 1.36 2.86 1.96 4.8 2.24a54 54 0 0 0 7.13.27h3.08l7.14-.27c1.93-.28 3.54-.88 4.8-2.24 1.24-1.34 1.77-3.03 2.02-5.06.25-1.98.25-4.51.25-7.7v-.97l-.25-7.69c-.25-2.03-.78-3.71-2.03-5.06-1.25-1.36-2.86-1.96-4.8-2.24C24.83 3 22.48 3 19.55 3M6.74 13.5c-.68 0-1.03 0-1.24.22-.22.21-.23.55-.24 1.23l-.01 3.41v.78l.22 7.42c.22 1.74.62 2.7 1.26 3.4.62.66 1.47 1.07 3.03 1.3 1.6.24 3.75.24 6.82.24h2.85l6.82-.24c1.55-.23 2.4-.64 3.02-1.3.64-.7 1.04-1.66 1.26-3.4.22-1.78.22-4.12.22-7.42v-.78l-.01-3.4c-.01-.69-.02-1.03-.24-1.24-.21-.22-.56-.22-1.25-.22z"/><path d="M10.12 19.5a1.87 1.87 0 1 1 3.74.02 1.87 1.87 0 0 1-3.74-.02m6 0c0-1.04.84-1.87 1.87-1.87h.02a1.87 1.87 0 1 1 0 3.75h-.02a1.87 1.87 0 0 1-1.87-1.88m6 0A1.87 1.87 0 1 1 24 21.38h-.02a1.87 1.87 0 0 1-1.88-1.88m-12 6a1.87 1.87 0 0 1 1.88-1.87H12a1.87 1.87 0 1 1-1.88 1.87m6 0c0-1.04.84-1.87 1.87-1.87h.02a1.87 1.87 0 1 1 0 3.75h-.02a1.87 1.87 0 0 1-1.87-1.88M11.5 0A1.5 1.5 0 0 1 13 1.5v5a1.5 1.5 0 1 1-3 0v-5A1.5 1.5 0 0 1 11.5 0m13 0A1.5 1.5 0 0 1 26 1.5v5a1.5 1.5 0 1 1-3 0v-5A1.5 1.5 0 0 1 24.5 0"/></svg>