<svg xmlns="http://www.w3.org/2000/svg" fill="none" viewBox="0 0 35 50"><path fill-rule="evenodd" d="M6.45 12.58C6.45 6.18 11.48.96 17.66.96s11.22 5.21 11.22 11.62-5.03 11.63-11.22 11.63h-.07c-6.17-.03-11.17-5.24-11.14-11.64zm11.21 36.1h.36a8 8 0 0 1-1.44-4.65c0-4.4 3.46-8 7.71-8s7.72 3.59 7.72 8-.1 1.28-.24 1.88a6 6 0 0 0 2.78-5.1c0-6.11-7.73-11.3-16.88-11.3S.8 34.72.8 40.86c0 6.15 9.63 7.83 16.87 7.83m11.35-6.22-2.34-.35a.4.4 0 0 1-.3-.23l-1.04-2.2q-.15-.3-.42-.45a1 1 0 0 0-1.34.45l-1.04 2.2a.4.4 0 0 1-.32.23l-2.33.35q-.34.07-.57.3a1 1 0 0 0-.27.74q.02.42.3.73l1.7 1.72q.15.15.11.37l-.4 2.42q-.05.35.11.65.2.38.58.51.15.05.3.05.24 0 .45-.12l2.09-1.14a.4.4 0 0 1 .39 0l2.07 1.14q.29.15.62.1c.54-.09.9-.62.82-1.19l-.4-2.42a.5.5 0 0 1 .12-.39l1.69-1.71q.24-.25.3-.6c.06-.56-.31-1.09-.85-1.17z" fill="url(#a)"/><defs><linearGradient id="a" x1="18.92" y1="-1.76" x2="16.16" y2="62.44" gradientUnits="userSpaceOnUse"><stop stop-color="#63d92d"/><stop offset="1" stop-color="#377719"/></linearGradient></defs></svg>