<svg xmlns="http://www.w3.org/2000/svg" fill="none" viewBox="0 0 46 44"><g fill-rule="evenodd" fill="url(#a)"><path d="M22.92 38.88c-.21.56-.63 1-1.17 1.26a2.3 2.3 0 0 1-1.7.05 2.3 2.3 0 0 1-1.26-1.15l-3.08-6.79a67 67 0 0 1 4.57-.74l2.6 5.67c.23.53.25 1.14.04 1.7m6.81-31.15c-1.38-3-3.64-4.97-6.18-5.39a6.2 6.2 0 0 0-5.58 2.03 87 87 0 0 1-9.59 9.03l4.18 8.82c.4.89 0 1.92-.89 2.31a2 2 0 0 1-.72.16 1.8 1.8 0 0 1-1.59-1.02l-3.8-8.05L3.2 17.3c-2.96 2.03-3.78 5.74-2.08 9.45l.91 2c1.4 3.09 3.95 4.86 6.75 4.86q.87 0 1.75-.21l1.65-.4 3.43 7.5a5.7 5.7 0 0 0 3.2 2.98 6 6 0 0 0 2.03.37q1.22 0 2.36-.51a5.8 5.8 0 0 0 3-3.22 5.7 5.7 0 0 0-.16-4.39l-2.12-4.64a81 81 0 0 1 6.07-.35 6.7 6.7 0 0 0 5.53-3.13 6.6 6.6 0 0 0 .42-6.23zm14.77.23A13.8 13.8 0 0 0 34.84.2c-.93-.22-1.87.4-2.07 1.34a1.75 1.75 0 0 0 1.35 2.08 10.2 10.2 0 0 1 7.21 5.79 10.2 10.2 0 0 1-.26 9.03 1.75 1.75 0 1 0 3.09 1.64 13.7 13.7 0 0 0 .36-12.12"/><path d="M34.1 6.2a1.75 1.75 0 0 0-1.21 3.28 5 5 0 0 1 2.81 2.62 5 5 0 0 1 .08 3.95 1.75 1.75 0 0 0 .97 2.28q.33.13.66.13a1.8 1.8 0 0 0 1.62-1.1 8.5 8.5 0 0 0-.14-6.71A8.4 8.4 0 0 0 34.1 6.2"/></g><defs><linearGradient id="a" x1="24.68" y1="-2.27" x2="23.06" y2="55.05" gradientUnits="userSpaceOnUse"><stop stop-color="#2dd9b7"/><stop offset="1" stop-color="#157966"/></linearGradient></defs></svg>