<svg xmlns="http://www.w3.org/2000/svg" fill="none" viewBox="0 0 44 46"><path d="M38.1 26.22v-5.11a2.7 2.7 0 0 1 1.91 2.57c0 1.21-.81 2.19-1.91 2.54m-10.73-5.06c-.96 0-1.75-.77-1.75-1.75v-.03c0-.95.79-1.75 1.75-1.75a1.76 1.76 0 0 1 0 3.53m-.82 7.74A6.4 6.4 0 0 1 22 30.72a6.5 6.5 0 0 1-4.48-1.75 1.74 1.74 0 0 1-.1-2.47c.66-.7 1.78-.75 2.48-.1 1.3 1.22 3.22 1.01 4.15.08a1.74 1.74 0 1 1 2.5 2.42m-11.67-9.5v-.02a1.75 1.75 0 1 1 3.5 0c0 .98-.79 1.78-1.75 1.78-.98 0-1.75-.77-1.75-1.75m-9 6.82a2.7 2.7 0 0 1-1.9-2.54c0-1.22.82-2.22 1.9-2.57zm32.08-8.7c-.65-4.67-4.04-7.73-8.84-7.77V2a1.75 1.75 0 1 0-3.5 0v7.72h-7.24V5.94c0-.98-.79-1.75-1.75-1.75-.98 0-1.75.77-1.75 1.75v3.8c-4.8.05-8.19 3.11-8.84 7.78a6.18 6.18 0 0 0 0 12.3c.65 4.7 4.08 7.79 8.96 7.79h14c4.88 0 8.28-3.08 8.96-7.8a6.18 6.18 0 0 0 0-12.3m-5.63 24.98c-2.6-1.51-6.37-2.38-10.32-2.38s-7.73.87-10.34 2.38a1.75 1.75 0 0 0 1.76 3.03c2.06-1.2 5.27-1.91 8.58-1.91 3.35 0 6.47.7 8.56 1.9q.43.25.87.24a1.75 1.75 0 0 0 .88-3.26" fill-rule="evenodd" fill="url(#a)"/><defs><linearGradient id="a" x1="23.59" y1="-2.27" x2="21.73" y2="57.41" gradientUnits="userSpaceOnUse"><stop stop-color="#6338ff"/><stop offset="1" stop-color="#2900bc"/></linearGradient></defs></svg>