<svg xmlns="http://www.w3.org/2000/svg" fill="none" viewBox="0 0 46 40"><path d="M31.4 6.01h12.3c.97 0 1.76-.75 1.76-1.68s-.79-1.68-1.75-1.68H31.4c-.97 0-1.76.75-1.76 1.68s.79 1.68 1.75 1.68M43.7 17.87h-5.39c-.96 0-1.75.75-1.75 1.68s.79 1.68 1.75 1.68h5.4c.97 0 1.75-.75 1.75-1.68s-.78-1.68-1.75-1.68m-.01 15.22H31.4c-.96 0-1.74.75-1.74 1.68s.78 1.68 1.75 1.68h12.3c.97 0 1.75-.75 1.75-1.68s-.78-1.68-1.75-1.68M32.17 15.51a3.1 3.1 0 0 0-2.72-1.6H19.9V3.2c0-1.42-.9-2.64-2.25-3.03a3.05 3.05 0 0 0-3.4 1.21L1.11 20.23a3.2 3.2 0 0 0-.17 3.36 3.1 3.1 0 0 0 2.71 1.6h9.56v10.72a3.12 3.12 0 0 0 5.67 1.81L32 18.88a3.2 3.2 0 0 0 .16-3.37" fill-rule="evenodd" fill="url(#a)"/><defs><linearGradient id="a" x1="24.66" y1="-2.12" x2="23.35" y2="49.08" gradientUnits="userSpaceOnUse"><stop stop-color="#ff8b25"/><stop offset="1" stop-color="#d43f00"/></linearGradient></defs></svg>