<svg xmlns="http://www.w3.org/2000/svg" fill="none" viewBox="0 0 44 46"><path fill-rule="evenodd" d="M33 16.73c0 .96-.76 1.75-1.68 1.75-.93 0-1.68-.79-1.68-1.75v-.6a35.4 35.4 0 0 1-16.55 9.67 1.7 1.7 0 0 1-2.03-1.28 1.75 1.75 0 0 1 1.22-2.12 32 32 0 0 0 15.26-9.03h-1.13c-.93 0-1.68-.79-1.68-1.75 0-.97.75-1.75 1.68-1.75h4.9q.14.01.25.05.16.01.33.07.17.07.31.17l.2.13.05.05q.11.13.21.28.1.13.18.27l.07.26.08.4v5.17m0 17.66c0 .96-.76 1.75-1.69 1.75s-1.68-.79-1.68-1.75V24.2c0-.96.76-1.75 1.68-1.75.93 0 1.68.79 1.68 1.75zm-9.32 0c0 .96-.75 1.75-1.68 1.75s-1.68-.79-1.68-1.75v-6.23c0-.97.75-1.75 1.68-1.75s1.68.78 1.68 1.75zm-9.31 0c0 .96-.76 1.75-1.68 1.75-.93 0-1.68-.79-1.68-1.75v-2.31c0-.97.75-1.75 1.68-1.75s1.68.78 1.68 1.75zM31.45.83h-18.9C5.48.83.72 6.03.72 13.74v18.52c0 7.72 4.76 12.9 11.83 12.9h18.9c7.07 0 11.83-5.18 11.83-12.9V13.74c0-7.72-4.76-12.9-11.83-12.9" fill="url(#a)"/><defs><linearGradient id="a" x1="23.57" y1="-1.62" x2="21.78" y2="56.52" gradientUnits="userSpaceOnUse"><stop stop-color="#d9d92d"/><stop offset="1" stop-color="#898900"/></linearGradient></defs></svg>