<svg xmlns="http://www.w3.org/2000/svg" fill="none" viewBox="0 0 44 46"><path d="M4.68 27.46a.7.7 0 0 0-.7.7v10.37a6.94 6.94 0 0 0 6.93 6.93h8.64a.7.7 0 0 0 .7-.7v-16.6a.7.7 0 0 0-.7-.7zm19.77 0a.7.7 0 0 0-.7.7v16.6c0 .38.32.7.7.7h8.65a6.93 6.93 0 0 0 6.92-6.93V28.16a.7.7 0 0 0-.7-.7zM12.56 4.04c4.02 0 6.17 4.32 7.12 7h-7.12a3.5 3.5 0 0 1 0-7m18.9 0a3.5 3.5 0 0 1 0 7h-7.13c.95-2.68 3.1-7 7.13-7m6.62 7.65h-1.02a7 7 0 0 0 1.4-4.15c0-3.86-3.15-7-7-7-4.96 0-7.86 3.72-9.45 7-1.6-3.28-4.5-7-9.45-7a7 7 0 0 0-7 7 7 7 0 0 0 1.4 4.15H5.67A5.3 5.3 0 0 0 .38 17v1.91a5.55 5.55 0 0 0 5.55 5.53h32.4a5.3 5.3 0 0 0 5.3-5.3v-1.88a5.56 5.56 0 0 0-5.55-5.56" fill-rule="evenodd" fill="url(#a)"/><defs><linearGradient id="a" x1="23.6" y1="-1.95" x2="21.79" y2="56.96" gradientUnits="userSpaceOnUse"><stop stop-color="#a622ff"/><stop offset="1" stop-color="#7500c4"/></linearGradient></defs></svg>