<svg xmlns="http://www.w3.org/2000/svg" fill="none" viewBox="0 0 55 54"><rect x=".8" y=".3" width="54" height="53" rx="22.1" fill="#fff" fill-opacity=".1"/><path fill-rule="evenodd" d="m32.6 25-5.3 5.2a1 1 0 0 1-1.5 0l-2.6-2.6a1 1 0 1 1 1.5-1.5l1.8 1.8 4.6-4.5a1 1 0 1 1 1.5 1.5m5.3-7.4c-1-1-9-3.8-10.4-3.8s-9.4 2.8-10.4 3.8c-.8.7-.8 1.4-.7 4.8v5.8c0 9.1 10.8 12.5 10.9 12.5h.4c.1 0 10.9-3.4 10.9-12.5v-5.8c.1-3.4.1-4-.7-4.8" fill="url(#a)"/><defs><linearGradient id="a" x1="27.5" y1="13.8" x2="27.5" y2="49.7" gradientUnits="userSpaceOnUse"><stop stop-color="#fff"/><stop offset="1" stop-color="#999"/></linearGradient></defs></svg>