<svg xmlns="http://www.w3.org/2000/svg" fill="none" viewBox="0 0 23 28"><path fill-rule="evenodd" d="m16.566 11.909-5.273 5.27a1.063 1.063 0 0 1-.751.31 1.06 1.06 0 0 1-.752-.312l-2.557-2.564a1.06 1.06 0 0 1 .001-1.502c.417-.414 1.089-.414 1.503.003l1.806 1.809 4.519-4.518c.415-.415 1.088-.415 1.503 0s.415 1.088 0 1.503m5.356-7.357c-.996-1-8.969-3.736-10.422-3.736S2.075 3.552 1.078 4.552c-.793.796-.782 1.411-.72 4.812l.06 5.859c0 9.077 10.768 12.445 10.877 12.478a.67.67 0 0 0 .205.031.68.68 0 0 0 .205-.031c.109-.033 10.879-3.401 10.879-12.478l.059-5.848c.061-3.41.071-4.026-.721-4.824" fill="url(#a)"/><defs><linearGradient id="a" x1="11.5" y1=".816" x2="11.5" y2="36.736" gradientUnits="userSpaceOnUse"><stop stop-color="#fff"/><stop offset="1" stop-color="#999"/></linearGradient></defs></svg>