<svg xmlns="http://www.w3.org/2000/svg" fill="none" viewBox="0 0 15 15"><path fill-rule="evenodd" d="m13.877 5.114-4.546-.592L7.1.452a.8.8 0 0 0-.864-.409.8.8 0 0 0-.662.692l-.628 4.598L.908 7.514a.81.81 0 0 0-.41.875.8.8 0 0 0 .696.65l4.595.637 2.185 4.034a.8.8 0 0 0 .864.408h.001a.8.8 0 0 0 .66-.692l.63-4.599 4.029-2.184a.8.8 0 0 0 .419-.859.81.81 0 0 0-.7-.67" fill="url(#a)"/><defs><linearGradient id="a" x1="6.234" y1=".043" x2="9.709" y2="18.825" gradientUnits="userSpaceOnUse"><stop stop-color="#fff"/><stop offset="1" stop-color="#999"/></linearGradient></defs></svg>