<svg xmlns="http://www.w3.org/2000/svg" fill="none" viewBox="0 0 43 43"><path d="M40.86 4.75a52 52 0 0 1 2.02 7.43 6.3 6.3 0 0 1-1.6 5.07 8.4 8.4 0 0 1-6.13 2.85 7.7 7.7 0 0 1-5.94-2.9.84.84 0 0 0-1.28 0 7.67 7.67 0 0 1-11.98 0 .84.84 0 0 0-1.28 0 7.7 7.7 0 0 1-5.95 2.9 8.4 8.4 0 0 1-6.14-2.85 6.3 6.3 0 0 1-1.6-5.07q.36-2.41 1.99-7.4A6.6 6.6 0 0 1 9.2.29h25.41a6.6 6.6 0 0 1 6.24 4.47" fill="url(#a)"/><path fill-rule="evenodd" d="M28.13 21.51a.7.7 0 0 1 .82 0 11 11 0 0 0 6.2 1.95 11 11 0 0 0 4.65-1.03c.47-.22 1.03.11 1.03.63v12.22a7.6 7.6 0 0 1-7.58 7.55h-3.18a.67.67 0 0 1-.67-.67v-7.22a7.47 7.47 0 0 0-7.46-7.46 7.47 7.47 0 0 0-7.46 7.46v7.22a.67.67 0 0 1-.68.67h-3.19c-2 0-3.89-.77-5.32-2.2a7.5 7.5 0 0 1-2.25-5.34V23.06c0-.51.56-.84 1.03-.63a11 11 0 0 0 4.65 1.03c2.3 0 4.42-.74 6.2-1.95a.7.7 0 0 1 .81 0c1.78 1.21 3.9 1.95 6.2 1.95s4.43-.74 6.2-1.95m6.56 6.53a1.7 1.7 0 0 0-1.68 1.68v.02c0 .93.75 1.67 1.68 1.67a1.7 1.7 0 0 0 1.68-1.7 1.7 1.7 0 0 0-1.68-1.67" fill="url(#a)"/><defs><linearGradient id="a" x1="23.49" y1="-2.08" x2="21.82" y2="53.74" gradientUnits="userSpaceOnUse"><stop stop-color="#3871ff"/><stop offset="1" stop-color="#0035b9"/></linearGradient></defs></svg>