<svg fill="none" xmlns="http://www.w3.org/2000/svg" viewBox="0 0 25 25"><path fill-rule="evenodd" clip-rule="evenodd" d="M16.63 14.3a1 1 0 0 1-1-1 1 1 0 1 1 1 1m-4 0a1 1 0 0 1-1-1 1 1 0 1 1 1 1m-4.01 0a1 1 0 0 1-1-1 1 1 0 1 1 1 1m11.5-8.85a10.4 10.4 0 0 0-7.43-3.07 10.53 10.53 0 0 0-9.55 14.87c.03.16-.06.82-.12 1.3-.24 1.8-.37 3.14.25 3.75.6.61 1.93.49 3.74.25.48-.07 1.15-.15 1.25-.14a10.5 10.5 0 0 0 11.85-2.1c4.1-4.1 4.1-10.76 0-14.86" fill="url(#a)"/><defs><linearGradient id="a" x1="12.68" y1="2.38" x2="12.68" y2="23.37" gradientUnits="userSpaceOnUse"><stop stop-color="#5E748F"/><stop offset="1" stop-color="#2E3A48"/></linearGradient></defs></svg>