<svg xmlns="http://www.w3.org/2000/svg" fill="none" viewBox="0 0 25 25"><g fill-rule="evenodd" fill="url(#a)"><path d="M10.62 5.24c0-.85.59-1.54 1.31-1.54h2.4c.72 0 1.31.69 1.31 1.54v.02a25 25 0 0 0-5.02 0zm-6.98 5.92c2.6 1.6 5.99 2.5 9.51 2.5s6.9-.9 9.5-2.5c-.53-3.26-2.2-5-5.5-5.67v-.25c0-1.68-1.27-3.04-2.82-3.04h-2.4c-1.55 0-2.8 1.36-2.8 3.04v.25c-3.32.68-4.98 2.4-5.51 5.66z"/><path d="M13.88 15.2v2.16a.75.75 0 0 1-1.5 0v-2.17c-3.26-.1-6.38-.92-8.93-2.33q-.03.48-.03.99c0 6.42 2.54 8.7 9.71 8.7s9.71-2.28 9.71-8.7q0-.5-.02-.97a20 20 0 0 1-8.94 2.31"/></g><defs><linearGradient id="a" x1="13.13" y1="2.2" x2="13.13" y2="22.55" gradientUnits="userSpaceOnUse"><stop stop-color="#5e748f"/><stop offset="1" stop-color="#2e3a48"/></linearGradient></defs></svg>