<svg fill="none" xmlns="http://www.w3.org/2000/svg" viewBox="0 0 24 26"><path fill-rule="evenodd" clip-rule="evenodd" d="M15.19 13.68h-.05a1 1 0 0 1 0-2c.56 0 1.03.46 1.03 1 0 .56-.43 1-.98 1m-6.46-6.1a3.54 3.54 0 0 1 3.51-2.97h.02a3.6 3.6 0 0 1 3.5 2.97 26 26 0 0 0-3.51-.22q-1.98 0-3.52.22m.63 6.1H9.3a1 1 0 0 1 0-2c.56 0 1.02.46 1.02 1 0 .56-.42 1-.97 1m11.56-3.77q-1.1-1.43-3.62-2.05a5.06 5.06 0 0 0-5.04-4.75h-.02A5.04 5.04 0 0 0 7.2 7.86q-2.51.62-3.62 2.05c-1 1.32-1.18 3.14-.53 5.55 1.5 5.57 2.38 7.84 9.2 7.84s7.7-2.27 9.2-7.84c.65-2.41.48-4.23-.53-5.55" fill="url(#a)"/><defs><linearGradient id="a" x1="12.25" y1="3.11" x2="12.25" y2="23.3" gradientUnits="userSpaceOnUse"><stop stop-color="#5E748F"/><stop offset="1" stop-color="#2E3A48"/></linearGradient></defs></svg>