<svg fill="none" xmlns="http://www.w3.org/2000/svg" viewBox="0 0 25 25"><path fill-rule="evenodd" clip-rule="evenodd" d="M9.03 17.5h3.58a.75.75 0 0 1 0 1.5H9.03a.75.75 0 0 1 0-1.5m3.51-3.26h3.58a.75.75 0 0 1 0 1.5h-3.58a.75.75 0 0 1 0-1.5m-8.56 3.3c0 2.97 1.8 4.75 4.8 4.75h7.61c3 0 4.8-1.75 4.8-4.69v-5.7a.2.2 0 0 0-.2-.2H4.18a.2.2 0 0 0-.2.2z" fill="url(#a)"/><path fill-rule="evenodd" clip-rule="evenodd" d="M19.95 6a4.8 4.8 0 0 0-2.98-1.25V3.8a.75.75 0 1 0-1.5 0v3.55q-.1.04-.2.04a.75.75 0 0 1-.75-.75V4.91a.2.2 0 0 0-.2-.2H9.7V3.8a.75.75 0 1 0-1.5 0v3.55l-.2.04a.76.76 0 0 1-.75-.75V5.17a.2.2 0 0 0-.24-.2C5.09 5.56 3.98 7.1 3.98 9.4v.6c0 .11.1.2.2.2h16.8a.2.2 0 0 0 .2-.2v-.6A4.7 4.7 0 0 0 19.95 6" fill="url(#b)"/><defs><linearGradient id="a" x1="12.58" y1="3.04" x2="12.58" y2="22.29" gradientUnits="userSpaceOnUse"><stop stop-color="#5E748F"/><stop offset="1" stop-color="#2E3A48"/></linearGradient><linearGradient id="b" x1="12.58" y1="3.04" x2="12.58" y2="22.29" gradientUnits="userSpaceOnUse"><stop stop-color="#5E748F"/><stop offset="1" stop-color="#2E3A48"/></linearGradient></defs></svg>