<svg fill="none" xmlns="http://www.w3.org/2000/svg" viewBox="0 0 20 20"><path fill-rule="evenodd" clip-rule="evenodd" d="m16.052 12.094-3.808 3.28a.75.75 0 0 1-.984-.005l-2.104-1.85-2.887 2.139a.75.75 0 0 1-1.049-.156.75.75 0 0 1 .156-1.049l3.374-2.5a.75.75 0 0 1 .942.039l2.068 1.82 3.313-2.855a.75.75 0 1 1 .979 1.137M4.19 8.526a.75.75 0 0 1 .75-.75h3.945a.75.75 0 0 1 0 1.5H4.94a.75.75 0 0 1-.75-.75m.75-3.75h2.483a.75.75 0 0 1 0 1.5H4.94a.75.75 0 0 1 0-1.5m8.844-.56A2.416 2.416 0 0 1 16.2 6.625a2.42 2.42 0 0 1-2.416 2.421 2.415 2.415 0 1 1 0-4.83m.684-3.78H6.033C2.873.436.75 2.658.75 5.966v7.94c0 3.307 2.123 5.53 5.283 5.53h8.434c3.16 0 5.283-2.223 5.283-5.53v-7.94c0-3.308-2.123-5.53-5.282-5.53" fill="url(#a)"/><path fill-rule="evenodd" clip-rule="evenodd" d="M13.784 7.546a.92.92 0 0 0 .916-.92.914.914 0 0 0-.916-.91.913.913 0 0 0-.915.91c0 .507.41.92.915.92" fill="url(#b)"/><defs><linearGradient id="a" x1="10.25" y1=".436" x2="10.25" y2="19.436" gradientUnits="userSpaceOnUse"><stop stop-color="#5E748F"/><stop offset="1" stop-color="#2E3A48"/></linearGradient><linearGradient id="b" x1="10.25" y1=".436" x2="10.25" y2="19.436" gradientUnits="userSpaceOnUse"><stop stop-color="#5E748F"/><stop offset="1" stop-color="#2E3A48"/></linearGradient></defs></svg>