<svg xmlns="http://www.w3.org/2000/svg" fill="none" viewBox="0 0 25 26"><path fill-rule="evenodd" d="M17.7 18.16h-.1a.75.75 0 0 1 0-1.5h.1a.75.75 0 0 1 0 1.5m-1.74-3.4h-.1a.75.75 0 0 1 0-1.5h.1a.75.75 0 0 1 0 1.5m-4.4 1.67H10.5v1.04a.75.75 0 0 1-1.5 0v-1.04H7.92a.75.75 0 0 1 0-1.5h1.07V13.9a.75.75 0 0 1 1.5 0v1.04h1.08a.75.75 0 0 1 0 1.5m2.53-8.6V7.3a2.7 2.7 0 0 0-2.77-2.71H10.3a.54.54 0 0 1-.54-.54c0-.41-.36-.77-.76-.74a.75.75 0 0 0-.74.75 2.04 2.04 0 0 0 2.04 2.03h1.04c.68 0 1.25.55 1.26 1.23v.5c-7.3.04-9.89 2.12-9.89 7.92 0 5.84 2.63 7.91 10.05 7.91s10.05-2.07 10.05-7.91c0-5.48-2.31-7.64-8.71-7.9" fill="url(#a)"/><defs><linearGradient id="a" x1="12.75" y1="3.3" x2="12.75" y2="23.64" gradientUnits="userSpaceOnUse"><stop stop-color="#5e748f"/><stop offset="1" stop-color="#2e3a48"/></linearGradient></defs></svg>