<svg width="46" height="44" viewBox="0 0 46 44" fill="none" xmlns="http://www.w3.org/2000/svg">
<path fill-rule="evenodd" clip-rule="evenodd" d="M27.3658 40.2968H18.6322L19.6425 34.0715H26.3532L27.3658 40.2968ZM34.5992 0.203125H11.3988C5.5725 0.203125 0.833496 4.94446 0.833496 10.7731V23.5038C0.833496 29.3301 5.5725 34.0715 11.3988 34.0715H16.0982L15.0855 40.2968H11.4618C10.4958 40.2968 9.71183 41.0808 9.71183 42.0468C9.71183 43.0128 10.4958 43.7968 11.4618 43.7968H34.5338C35.4998 43.7968 36.2838 43.0128 36.2838 42.0468C36.2838 41.0808 35.4998 40.2968 34.5338 40.2968H30.9125L29.8975 34.0715H34.5992C40.4255 34.0715 45.1668 29.3301 45.1668 23.5038V10.7731C45.1668 4.94446 40.4255 0.203125 34.5992 0.203125Z" fill="url(#paint0_linear_16222_30457)"/>
<defs>
<linearGradient id="paint0_linear_16222_30457" x1="24.6404" y1="-2.21054" x2="22.9785" y2="54.9687" gradientUnits="userSpaceOnUse">
<stop stop-color="#D92D52"/>
<stop offset="1" stop-color="#AE0025"/>
</linearGradient>
</defs>
</svg>
